<svg width="55" height="61" viewBox="0 0 55 61" fill="none" xmlns="http://www.w3.org/2000/svg">
<g opacity="0.5">
<mask id="mask0_842_546069" style="mask-type:luminance" maskUnits="userSpaceOnUse" x="0" y="-1" width="55" height="62">
<path d="M54.8656 -0.00195312H0.265625V60.2463H54.8656V-0.00195312Z" fill="white"/>
</mask>
<g mask="url(#mask0_842_546069)">
<path d="M32.149 34.7023L29.1618 42.7001C29.0737 42.9219 29.0737 43.1683 29.1618 43.3901L34.2916 57.1553L40.2281 53.8033L33.1069 34.7023C32.9429 34.2587 32.3128 34.2587 32.149 34.7023Z" fill="white"/>
<path d="M38.1069 21.2438C37.9431 20.8002 37.3129 20.8002 37.1491 21.2438L34.1619 29.2416C34.0736 29.4636 34.0736 29.71 34.1619 29.9318L42.5686 52.4711L48.5052 49.119L38.1069 21.2438Z" fill="white"/>
<path d="M27.5656 3.73199C27.7168 3.73199 27.8556 3.76895 27.9941 3.8429L50.6307 16.6221C50.8955 16.77 51.0593 17.0411 51.0593 17.3368V42.8952C51.0593 43.191 50.8955 43.4621 50.6307 43.6099L27.9941 56.4015C27.8682 56.4753 27.7168 56.5124 27.5656 56.5124C27.4144 56.5124 27.2757 56.4753 27.1371 56.4015L4.51313 43.6223C4.24845 43.4743 4.08459 43.2032 4.08459 42.9076V17.3368C4.08459 17.0411 4.24845 16.77 4.51313 16.6221L27.1497 3.8429C27.2757 3.76895 27.4271 3.73199 27.5656 3.73199ZM27.5656 -0.00195312C26.7591 -0.00195312 25.9523 0.207541 25.2338 0.614208L2.59735 13.3934C1.1605 14.2067 0.265625 15.7102 0.265625 17.3368V42.8952C0.265625 44.5219 1.1605 46.0377 2.59735 46.8511L25.2338 59.6301C25.9523 60.0368 26.7591 60.2463 27.5656 60.2463C28.3722 60.2463 29.179 60.0368 29.8974 59.6301L52.5338 46.8511C53.9834 46.0377 54.8656 44.5341 54.8656 42.8952V17.3368C54.8656 15.7102 53.9707 14.1944 52.5338 13.3811L29.91 0.614208C29.179 0.207541 28.3722 -0.00195312 27.5656 -0.00195312Z" fill="white"/>
<path d="M12.6074 52.4938L14.6871 46.9238L18.8715 50.325L14.9643 53.8247L12.6074 52.4938Z" fill="white"/>
<path d="M25.6581 15.5127H19.9234C19.4949 15.5127 19.104 15.7715 18.9654 16.1658L6.66406 49.1428L12.6005 52.4946L26.1497 16.1782C26.263 15.8577 26.0235 15.5127 25.6581 15.5127Z" fill="white"/>
<path d="M35.7069 15.5127H29.9722C29.5437 15.5127 29.1528 15.7715 29.0142 16.1658L14.9609 53.8256L20.8973 57.1776L36.1859 16.1905C36.3118 15.8577 36.0599 15.5127 35.7069 15.5127Z" fill="white"/>
</g>
</g>
</svg>
