<svg width="184" height="33" viewBox="0 0 184 33" fill="none" xmlns="http://www.w3.org/2000/svg">
<g opacity="0.5">
<path d="M5.95124 5.77886L14.4606 0.867188L22.9701 5.77886L19.8416 7.59337L14.4606 4.4962L9.07971 7.59337L5.95124 5.77886ZM22.9701 11.9732L19.8416 10.1587L14.4606 13.2559L9.07971 10.1587L5.95124 11.9732V15.6022L11.3322 18.6993V24.8937L14.4606 26.7082L17.5891 24.8937V18.6993L22.9701 15.6022V11.9732ZM22.9701 21.7966V18.1675L19.8416 19.982V23.611L22.9701 21.7966ZM25.1912 23.0792L19.8103 26.1763V29.8053L28.3197 24.8937V15.0703L25.1912 16.8849V23.0792ZM22.0628 8.87603L25.1912 10.6905V14.3195L28.3197 12.505V8.87603L25.1912 7.06153L22.0628 8.87603ZM11.3322 27.4904V31.1194L14.4606 32.9338L17.5891 31.1194V27.4904L14.4606 29.3048L11.3322 27.4904ZM5.95124 21.7966L9.07971 23.611V19.982L5.95124 18.1675V21.7966ZM11.3322 8.87603L14.4606 10.6905L17.5891 8.87603L14.4606 7.06153L11.3322 8.87603ZM3.73001 10.6905L6.85848 8.87603L3.73001 7.06153L0.601562 8.87603V12.505L3.73001 14.3195V10.6905ZM3.73001 16.8849L0.601562 15.0703V24.8937L9.11095 29.8053V26.1763L3.73001 23.0792V16.8849Z" fill="white"/>
<path d="M52.9894 20.9921V20.9411C52.9894 18.5446 51.7147 17.3464 49.6497 16.5561C50.9243 15.8423 51.9951 14.7205 51.9951 12.7065V12.6555C51.9951 9.85111 49.7516 8.04102 46.1059 8.04102H37.8203V25.8871H46.31C50.3381 25.8871 52.9894 24.2554 52.9894 20.9921ZM48.0945 13.3693C48.0945 14.695 46.9983 15.2559 45.2647 15.2559H41.6445V11.4827H45.5196C47.1767 11.4827 48.0945 12.1456 48.0945 13.3183V13.3693ZM49.0888 20.5078C49.0888 21.8334 48.0436 22.4453 46.31 22.4453H41.6445V18.5192H46.1825C48.1965 18.5192 49.0888 19.2585 49.0888 20.4567V20.5078Z" fill="white"/>
<path d="M72.3263 25.8871V8.04102H68.451V19.0291L60.0889 8.04102H56.4688V25.8871H60.3439V14.542L68.9864 25.8871H72.3263Z" fill="white"/>
<path d="M92.0363 20.9921V20.9411C92.0363 18.5446 90.7615 17.3464 88.6966 16.5561C89.9712 15.8423 91.042 14.7205 91.042 12.7065V12.6555C91.042 9.85111 88.7985 8.04102 85.1528 8.04102H76.8672V25.8871H85.3568C89.3849 25.8871 92.0363 24.2554 92.0363 20.9921ZM87.1415 13.3693C87.1415 14.695 86.0452 15.2559 84.3116 15.2559H80.6914V11.4827H84.5665C86.2236 11.4827 87.1415 12.1456 87.1415 13.3183V13.3693ZM88.1357 20.5078C88.1357 21.8334 87.0904 22.4453 85.3568 22.4453H80.6914V18.5192H85.2294C87.2434 18.5192 88.1357 19.2585 88.1357 20.4567V20.5078Z" fill="white"/>
<path d="M115.699 22.734L113.685 20.6946C112.156 22.1222 110.753 23.0145 108.561 23.0145C105.145 23.0145 102.672 20.1592 102.672 16.641C102.672 13.1227 105.145 10.3184 108.561 10.3184C110.6 10.3184 112.13 11.2107 113.558 12.5364L115.572 10.2164C113.864 8.58475 111.875 7.4375 108.586 7.4375C103.182 7.4375 99.3828 11.5931 99.3828 16.692C99.3828 21.8418 103.258 25.8954 108.459 25.8954C111.799 25.8954 113.838 24.6716 115.699 22.734Z" fill="white"/>
<path d="M130.901 18.0693V25.5901H134.037V7.74414H130.901V15.163H122.386V7.74414H119.25V25.5901H122.386V18.0693H130.901Z" fill="white"/>
<path d="M148.102 7.61523H145.196L137.344 25.5887H140.556L142.392 21.2801H150.83L152.641 25.5887H155.954L148.102 7.61523ZM149.683 18.5013H143.539L146.598 11.3629L149.683 18.5013Z" fill="white"/>
<path d="M159.445 7.74414V25.5901H162.581V7.74414H159.445Z" fill="white"/>
<path d="M180.084 20.0834L170.523 7.74414H167.617V25.5901H170.702V12.894L180.543 25.5901H183.17V7.74414H180.084V20.0834Z" fill="white"/>
</g>
</svg>
