<svg width="122" height="43" viewBox="0 0 122 43" fill="none" xmlns="http://www.w3.org/2000/svg">
<path d="M87 33V0H93V33H87Z" fill="white" fill-opacity="0.5"/>
<path d="M13.5097 42.8843H0V9.8208H12.9671C19.269 9.8208 22.9402 13.4441 22.9402 19.1082C22.9402 22.7759 20.5815 25.1465 18.9493 25.9363C20.8985 26.8635 23.3917 28.9532 23.3917 33.3662C23.3917 39.5406 19.269 42.8843 13.5097 42.8843ZM12.4678 15.5796H6.30193V23.1959H12.4664C15.1406 23.1959 16.6369 21.6638 16.6369 19.3863C16.6369 17.1132 15.142 15.5796 12.4678 15.5796ZM12.8745 29.0005H6.30333V37.1285H12.8773C15.7338 37.1285 17.0912 35.271 17.0912 33.0409C17.0912 30.8122 15.731 29.0005 12.8773 29.0005H12.8745ZM42.6131 29.3259V42.8843H36.356V29.3259L26.6535 9.8208H33.4995L39.5294 23.1486L45.4681 9.8208H52.3128L42.6131 29.3259ZM70.1794 42.8843H56.6697V9.8208H69.6354C75.9373 9.8208 79.6099 13.4441 79.6099 19.1082C79.6099 22.7759 77.2512 25.1465 75.619 25.9363C77.5682 26.8635 80.0614 28.9532 80.0614 33.3662C80.0614 39.5406 75.9387 42.8843 70.1794 42.8843ZM69.1375 15.5796H62.9716V23.1959H69.1375C71.8117 23.1959 73.308 21.6638 73.308 19.3863C73.308 17.1132 71.8117 15.5796 69.1375 15.5796ZM69.5442 29.0005H62.9702V37.1285H69.5442C72.4021 37.1285 73.7595 35.271 73.7595 33.0409C73.7595 30.8122 72.4021 29.0005 69.5442 29.0005ZM113.567 15.5811V42.8873H107.265V15.5796H98.834V9.8208H122V15.5796L113.567 15.5811Z" fill="white" fill-opacity="0.5"/>
</svg>
