<svg width="151" height="52" viewBox="0 0 151 52" fill="none" xmlns="http://www.w3.org/2000/svg">
<path d="M36.8411 7.47998C45.8227 13.3691 47.8901 26.027 42.4145 35.0136C40.0438 38.9907 36.2647 42.2235 31.9644 43.7597L31.8691 43.5567C34.9716 41.7298 37.6205 39.2939 39.5626 36.3995C43.5096 30.6507 44.3642 23.1752 42.0862 16.637C40.9886 13.3541 39.1015 10.3469 36.6957 7.65289L36.8411 7.48249V7.47998Z" fill="white" fill-opacity="0.5"/>
<path d="M1.6287 29.2823C-2.05265 19.5589 3.3353 7.78563 12.8607 3.76346C15.9882 2.40019 19.454 1.85136 22.7469 2.29994V2.52549C19.4966 2.98409 16.4268 3.92134 13.6726 5.42997C5.10204 9.99343 0.463396 19.6291 1.84672 29.2322L1.6287 29.2873V29.2823Z" fill="white" fill-opacity="0.5"/>
<path d="M31.5529 39.8903C30.8311 40.7699 30.0668 41.617 29.2699 42.4364C28.4679 43.2509 27.6284 44.0353 26.7513 44.7846C25.8742 45.5339 24.9595 46.2456 23.9972 46.9047C23.0399 47.5688 22.04 48.1878 20.9875 48.7391C19.94 49.2929 18.8423 49.7891 17.687 50.18C16.5318 50.571 15.3188 50.8817 14.0408 51.0221C12.7652 51.1624 11.417 51.1223 10.0562 50.8241C8.70295 50.5033 7.33967 49.8843 6.21196 48.9471C5.07172 48.0249 4.15702 46.827 3.55057 45.5514C2.9391 44.2759 2.58325 42.9452 2.38277 41.6395C1.99684 39.0157 2.23491 36.4871 2.691 34.0688C3.17968 31.653 3.92897 29.3425 4.84618 27.1221C5.78844 24.9143 6.86854 22.7792 8.10902 20.7518C9.35451 18.727 10.7153 16.7823 12.1938 14.9303C13.6849 13.0909 15.2838 11.3342 17.0154 9.70528C18.7471 8.07888 20.594 6.55522 22.5763 5.20447C23.5687 4.53035 24.5886 3.8863 25.6487 3.30491C26.7137 2.72852 27.8064 2.18972 28.9366 1.71358C31.217 0.808906 33.6429 0.0971949 36.2542 0.00948409C37.5548 -0.0381303 38.903 0.089678 40.2187 0.480617C40.547 0.583364 40.8728 0.678593 41.1935 0.821437L41.6722 1.02192L42.1358 1.265C42.7498 1.58828 43.3136 2.0118 43.8349 2.46288C44.8724 3.38259 45.6292 4.56042 46.1103 5.76331C46.6015 6.97122 46.8095 8.22172 46.8697 9.43213C46.9173 10.6475 46.8095 11.8329 46.5965 12.9807C46.381 14.1284 46.0677 15.2411 45.6643 16.3137L45.4437 16.2686C45.539 14.0056 45.4688 11.7577 44.9225 9.71782C44.6594 8.70037 44.2559 7.7556 43.7396 6.94616C43.2184 6.13922 42.5718 5.48264 41.8301 5.01401C41.0808 4.5529 40.2538 4.27975 39.3742 4.15194C38.4945 4.02914 37.5623 4.06924 36.62 4.21459C34.733 4.52784 32.8234 5.26712 31.0065 6.20938C30.0944 6.68302 29.1997 7.21179 28.3251 7.77815C27.458 8.35955 26.5959 8.95849 25.7614 9.60004C24.9294 10.2466 24.115 10.9207 23.3231 11.6249C22.5237 12.3191 21.7543 13.0558 21 13.8051C19.5039 15.3188 18.073 16.9051 16.7347 18.5741C15.389 20.2331 14.146 21.9748 13.0158 23.7791C11.8731 25.5734 10.8556 27.4404 9.98103 29.355C9.11144 31.2671 8.36965 33.2293 7.88098 35.2166C7.63038 36.2065 7.43491 37.1989 7.31712 38.1837C7.19934 39.1661 7.18179 40.1359 7.24193 41.0656C7.30709 41.9954 7.48001 42.88 7.77822 43.6669C8.08396 44.4513 8.50748 45.1279 9.06382 45.6893C9.61263 46.2631 10.3218 46.6691 11.1263 46.9723C11.9432 47.253 12.868 47.4059 13.8403 47.4084C15.7925 47.4259 17.8725 46.9523 19.8898 46.2431C21.9097 45.5189 23.897 44.5641 25.8116 43.4514C26.7689 42.8925 27.7161 42.3036 28.6484 41.6796C29.5781 41.0531 30.4928 40.399 31.405 39.7274L31.5604 39.8903H31.5529Z" fill="white" fill-opacity="0.5"/>
<path d="M64.5699 24.6367C62.9792 24.6367 61.5892 24.3084 60.3999 23.6517C59.2105 22.995 58.2838 22.0683 57.6198 20.8716C56.9631 19.6677 56.6348 18.263 56.6348 16.6578C56.6348 15.4903 56.8281 14.4213 57.2149 13.4509C57.6089 12.4731 58.1598 11.6267 58.8676 10.9116C59.5826 10.1965 60.4254 9.64199 61.3959 9.24797C62.3663 8.85395 63.4316 8.65693 64.5918 8.65693C65.7593 8.65693 66.7662 8.80287 67.6127 9.09474C68.4664 9.3866 69.2106 9.80252 69.8454 10.3425L68.5758 12.3454C68.0942 11.9003 67.5324 11.5683 66.8903 11.3494C66.2482 11.1305 65.5404 11.0211 64.7669 11.0211C63.9132 11.0211 63.1434 11.1524 62.4575 11.4151C61.7716 11.6778 61.1843 12.0535 60.6954 12.5424C60.2138 13.024 59.8417 13.6114 59.579 14.3046C59.3236 14.9905 59.1959 15.7676 59.1959 16.6359C59.1959 17.8179 59.4258 18.8285 59.8854 19.6677C60.3524 20.5068 61.0091 21.1489 61.8556 21.594C62.7093 22.0318 63.7162 22.2507 64.8764 22.2507C65.6498 22.2507 66.3941 22.1376 67.1092 21.9114C67.8316 21.6779 68.5065 21.3021 69.134 20.7841L70.2723 22.8527C69.5353 23.4291 68.6926 23.8706 67.744 24.177C66.8027 24.4835 65.7447 24.6367 64.5699 24.6367Z" fill="white" fill-opacity="0.5"/>
<path d="M72.5328 24.3084V8.54748H74.9407V15.6837L74.4482 15.1474C74.9298 14.4761 75.5099 13.9762 76.1884 13.6479C76.867 13.3122 77.5821 13.1444 78.3337 13.1444C79.3187 13.1444 80.1396 13.3451 80.7963 13.7464C81.453 14.1404 81.9455 14.6512 82.2739 15.2787C82.6022 15.9062 82.7664 16.5593 82.7664 17.2379V24.3084H80.3585V17.9274C80.3585 17.1685 80.1214 16.552 79.6471 16.0777C79.1728 15.6034 78.527 15.3626 77.7098 15.3553C77.1699 15.3553 76.6919 15.4757 76.276 15.7165C75.8601 15.95 75.5317 16.282 75.291 16.7125C75.0575 17.143 74.9407 17.6428 74.9407 18.212V24.3084H72.5328Z" fill="white" fill-opacity="0.5"/>
<path d="M90.5863 24.6367C89.5064 24.6367 88.5505 24.3886 87.7187 23.8924C86.8942 23.389 86.2448 22.7067 85.7705 21.8457C85.3035 20.9774 85.07 19.9924 85.07 18.8906C85.07 18.066 85.205 17.3035 85.475 16.603C85.745 15.9026 86.1244 15.2933 86.6133 14.7752C87.1021 14.2572 87.6859 13.8558 88.3645 13.5713C89.0431 13.2867 89.7837 13.1444 90.5863 13.1444C91.6516 13.1444 92.5418 13.3706 93.2569 13.823C93.9793 14.2754 94.5302 14.8591 94.9096 15.5742L94.5703 16.0886V13.4728H96.7155V24.3084H94.5703V21.6925L94.9096 22.2069C94.5302 22.922 93.9793 23.5057 93.2569 23.9581C92.5418 24.4105 91.6516 24.6367 90.5863 24.6367ZM90.9037 22.5024C91.5604 22.5024 92.1478 22.3565 92.6659 22.0646C93.1839 21.7655 93.5889 21.3459 93.8808 20.8059C94.1799 20.266 94.3295 19.6275 94.3295 18.8906C94.3295 18.1536 94.1799 17.5151 93.8808 16.9752C93.5889 16.4279 93.1839 16.0084 92.6659 15.7165C92.1478 15.4246 91.5604 15.2787 90.9037 15.2787C90.2397 15.2787 89.6487 15.4246 89.1306 15.7165C88.6199 16.0084 88.2149 16.4279 87.9157 16.9752C87.6166 17.5151 87.467 18.1536 87.467 18.8906C87.467 19.6275 87.6166 20.266 87.9157 20.8059C88.2149 21.3459 88.6199 21.7655 89.1306 22.0646C89.6487 22.3565 90.2397 22.5024 90.9037 22.5024Z" fill="white" fill-opacity="0.5"/>
<path d="M100.066 24.3084V13.4728H102.474V24.3084H100.066ZM101.27 11.5355C100.84 11.5355 100.468 11.3968 100.154 11.1196C99.8403 10.8423 99.6834 10.4775 99.6834 10.0251C99.6834 9.57997 99.8403 9.21878 100.154 8.94151C100.468 8.65693 100.84 8.51465 101.27 8.51465C101.701 8.51465 102.073 8.65693 102.387 8.94151C102.701 9.21878 102.857 9.57997 102.857 10.0251C102.857 10.4775 102.701 10.8423 102.387 11.1196C102.073 11.3968 101.701 11.5355 101.27 11.5355Z" fill="white" fill-opacity="0.5"/>
<path d="M109.046 24.3084V11.229H104.733V8.98529H115.81V11.229H111.497V24.3084H109.046Z" fill="white" fill-opacity="0.5"/>
<path d="M121.795 24.6367C120.627 24.6367 119.602 24.3996 118.719 23.9253C117.836 23.4437 117.147 22.7724 116.65 21.9114C116.162 21.0504 115.917 20.0507 115.917 18.9124C115.917 18.0806 116.059 17.3145 116.344 16.614C116.629 15.9062 117.03 15.2933 117.548 14.7752C118.066 14.2572 118.672 13.8558 119.365 13.5713C120.065 13.2867 120.828 13.1444 121.652 13.1444C122.55 13.1444 123.349 13.3049 124.049 13.626C124.75 13.9397 125.33 14.3812 125.79 14.9503C126.257 15.5195 126.585 16.1871 126.775 16.9533C126.972 17.7121 127.004 18.5367 126.873 19.4269H118.227C118.212 20.0763 118.354 20.6454 118.653 21.1343C118.953 21.6159 119.379 21.9917 119.934 22.2616C120.496 22.5316 121.156 22.6666 121.915 22.6666C122.528 22.6666 123.119 22.5754 123.688 22.393C124.265 22.2033 124.786 21.926 125.253 21.5612L126.184 23.2905C125.833 23.575 125.41 23.8195 124.914 24.0238C124.418 24.2208 123.9 24.3704 123.36 24.4725C122.82 24.582 122.298 24.6367 121.795 24.6367ZM118.369 17.6538H124.509C124.487 16.8365 124.224 16.1944 123.721 15.7274C123.225 15.2604 122.517 15.027 121.598 15.027C120.707 15.027 119.967 15.2604 119.376 15.7274C118.792 16.1944 118.456 16.8365 118.369 17.6538Z" fill="white" fill-opacity="0.5"/>
<path d="M134.45 24.6367C133.312 24.6367 132.298 24.3886 131.408 23.8924C130.517 23.389 129.817 22.7067 129.306 21.8457C128.803 20.9774 128.551 19.9924 128.551 18.8906C128.551 18.0587 128.701 17.2962 129 16.603C129.299 15.9026 129.722 15.2933 130.269 14.7752C130.817 14.2572 131.459 13.8558 132.196 13.5713C132.94 13.2867 133.746 13.1444 134.615 13.1444C135.344 13.1444 136.019 13.2429 136.639 13.4399C137.267 13.6296 137.843 13.9252 138.369 14.3265L137.208 16.1652C136.873 15.8661 136.486 15.6435 136.048 15.4976C135.618 15.3517 135.158 15.2787 134.669 15.2787C133.91 15.2787 133.257 15.421 132.71 15.7055C132.163 15.9901 131.736 16.4024 131.429 16.9423C131.13 17.475 130.981 18.1208 130.981 18.8796C130.981 20.0106 131.309 20.8972 131.966 21.5393C132.63 22.1814 133.531 22.5024 134.669 22.5024C135.209 22.5024 135.72 22.4039 136.202 22.2069C136.683 22.0026 137.084 21.7363 137.405 21.4079L138.555 23.2357C137.978 23.6735 137.336 24.0165 136.628 24.2646C135.921 24.5127 135.195 24.6367 134.45 24.6367Z" fill="white" fill-opacity="0.5"/>
<path d="M140.768 24.3084V8.54748H143.176V15.6837L142.684 15.1474C143.165 14.4761 143.745 13.9762 144.424 13.6479C145.103 13.3122 145.818 13.1444 146.569 13.1444C147.554 13.1444 148.375 13.3451 149.032 13.7464C149.689 14.1404 150.181 14.6512 150.509 15.2787C150.838 15.9062 151.002 16.5593 151.002 17.2379V24.3084H148.594V17.9274C148.594 17.1685 148.357 16.552 147.883 16.0777C147.408 15.6034 146.763 15.3626 145.945 15.3553C145.405 15.3553 144.927 15.4757 144.512 15.7165C144.096 15.95 143.767 16.282 143.527 16.7125C143.293 17.143 143.176 17.6428 143.176 18.212V24.3084H140.768Z" fill="white" fill-opacity="0.5"/>
<path d="M63.4602 40.0863L59.4197 29.7259H60.9885L64.1929 38.177L67.264 29.7259H68.7884L64.8811 40.0863H63.4602Z" fill="white" fill-opacity="0.5"/>
<path d="M72.8399 40.3083C72.0702 40.3083 71.3919 40.1479 70.8048 39.8273C70.2177 39.5066 69.7589 39.0601 69.4283 38.4878C69.0978 37.9106 68.9325 37.2396 68.9325 36.4749C68.9325 35.9224 69.0263 35.4093 69.2137 34.9357C69.4061 34.4621 69.6725 34.0526 70.013 33.7072C70.3583 33.3619 70.7604 33.093 71.2192 32.9006C71.683 32.7082 72.1862 32.612 72.7289 32.612C73.316 32.612 73.8389 32.7156 74.2977 32.9228C74.7615 33.13 75.1438 33.4211 75.4448 33.796C75.7506 34.1661 75.9702 34.6027 76.1034 35.1059C76.2366 35.6042 76.2637 36.1469 76.1848 36.734H70.2794C70.2646 37.2174 70.3632 37.6417 70.5754 38.0068C70.7875 38.3669 71.0934 38.6482 71.493 38.8504C71.8976 39.0527 72.3761 39.1538 72.9287 39.1538C73.3332 39.1538 73.7279 39.0897 74.1127 38.9614C74.4975 38.8332 74.8379 38.6432 75.134 38.3916L75.7112 39.4055C75.4744 39.5979 75.1932 39.7631 74.8675 39.9013C74.5469 40.0345 74.2114 40.1356 73.8611 40.2047C73.5108 40.2738 73.1704 40.3083 72.8399 40.3083ZM70.3534 35.6757H74.8231C74.8034 35.064 74.6135 34.5879 74.2533 34.2475C73.8932 33.9021 73.3776 33.7294 72.7067 33.7294C72.0554 33.7294 71.5177 33.9021 71.0934 34.2475C70.6691 34.5879 70.4224 35.064 70.3534 35.6757Z" fill="white" fill-opacity="0.5"/>
<path d="M77.945 40.0863V32.834H79.3067V33.8108C79.6175 33.3866 79.9801 33.0807 80.3945 32.8932C80.8089 32.7057 81.2332 32.612 81.6674 32.612C82.3235 32.612 82.8662 32.7452 83.2954 33.0116C83.7296 33.2731 84.0527 33.6086 84.2649 34.018C84.4819 34.4275 84.5905 34.8469 84.5905 35.2761V40.0863H83.2288V35.6979C83.2288 35.1503 83.0586 34.7112 82.7182 34.3807C82.3778 34.0452 81.914 33.8774 81.327 33.8774C80.9421 33.8774 80.5968 33.9638 80.2909 34.1365C79.99 34.3042 79.7507 34.5435 79.5731 34.8543C79.3955 35.1651 79.3067 35.5228 79.3067 35.9273V40.0863H77.945Z" fill="white" fill-opacity="0.5"/>
<path d="M89.7155 40.3083C89.0396 40.3083 88.4945 40.1109 88.0801 39.7163C87.6706 39.3216 87.4658 38.7123 87.4658 37.8884V30.7027H88.8275V32.834H90.9514V33.9884H88.8275V37.548C88.8275 38.1005 88.9262 38.4903 89.1235 38.7172C89.3258 38.9392 89.6193 39.0502 90.0041 39.0502C90.1768 39.0502 90.3396 39.0305 90.4926 38.991C90.6504 38.9516 90.7886 38.8998 90.907 38.8356L91.1882 39.9531C90.9859 40.0616 90.7565 40.1479 90.5 40.2121C90.2434 40.2762 89.9819 40.3083 89.7155 40.3083ZM85.8082 33.9884V32.834H87.673V33.9884H85.8082Z" fill="white" fill-opacity="0.5"/>
<path d="M95.7594 40.3083C95.1131 40.3083 94.5778 40.1775 94.1535 39.9161C93.7341 39.6546 93.4209 39.3142 93.2137 38.8948C93.0065 38.4755 92.9028 38.0265 92.9028 37.548V32.834H94.2645V37.2594C94.2645 37.7922 94.4248 38.2239 94.7455 38.5544C95.0711 38.88 95.5176 39.0428 96.085 39.0428C96.4501 39.0428 96.7806 38.959 97.0766 38.7912C97.3726 38.6235 97.607 38.3891 97.7796 38.0882C97.9572 37.7823 98.046 37.4296 98.046 37.03V32.834H99.4077V40.0863H98.157V39.1982C97.8561 39.5633 97.5034 39.8396 97.0988 40.0271C96.6992 40.2146 96.2527 40.3083 95.7594 40.3083Z" fill="white" fill-opacity="0.5"/>
<path d="M101.765 40.0863V32.834H103.126V33.8848C103.417 33.4112 103.763 33.0807 104.162 32.8932C104.567 32.7008 104.996 32.6046 105.45 32.6046C105.593 32.6046 105.731 32.612 105.864 32.6268C105.998 32.6416 106.128 32.6613 106.257 32.686L106.057 34.0994C105.919 34.06 105.778 34.0304 105.635 34.0106C105.492 33.986 105.351 33.9736 105.213 33.9736C104.606 33.9736 104.106 34.1636 103.711 34.5435C103.321 34.9184 103.126 35.4216 103.126 36.0531V40.0863H101.765Z" fill="white" fill-opacity="0.5"/>
<path d="M110.81 40.3083C110.04 40.3083 109.362 40.1479 108.775 39.8273C108.188 39.5066 107.729 39.0601 107.398 38.4878C107.068 37.9106 106.902 37.2396 106.902 36.4749C106.902 35.9224 106.996 35.4093 107.184 34.9357C107.376 34.4621 107.642 34.0526 107.983 33.7072C108.328 33.3619 108.73 33.093 109.189 32.9006C109.653 32.7082 110.156 32.612 110.699 32.612C111.286 32.612 111.809 32.7156 112.268 32.9228C112.731 33.13 113.114 33.4211 113.415 33.796C113.72 34.1661 113.94 34.6027 114.073 35.1059C114.206 35.6042 114.234 36.1469 114.155 36.734H108.249C108.234 37.2174 108.333 37.6417 108.545 38.0068C108.757 38.3669 109.063 38.6482 109.463 38.8504C109.867 39.0527 110.346 39.1538 110.898 39.1538C111.303 39.1538 111.698 39.0897 112.083 38.9614C112.467 38.8332 112.808 38.6432 113.104 38.3916L113.681 39.4055C113.444 39.5979 113.163 39.7631 112.837 39.9013C112.517 40.0345 112.181 40.1356 111.831 40.2047C111.481 40.2738 111.14 40.3083 110.81 40.3083ZM108.323 35.6757H112.793C112.773 35.064 112.583 34.5879 112.223 34.2475C111.863 33.9021 111.347 33.7294 110.676 33.7294C110.025 33.7294 109.487 33.9021 109.063 34.2475C108.639 34.5879 108.392 35.064 108.323 35.6757Z" fill="white" fill-opacity="0.5"/>
<path d="M118.261 40.3009C117.688 40.3009 117.146 40.217 116.633 40.0493C116.125 39.8766 115.7 39.6472 115.36 39.3611L115.922 38.3324C116.243 38.5988 116.608 38.8085 117.017 38.9614C117.432 39.1094 117.846 39.1834 118.261 39.1834C118.774 39.1834 119.173 39.0922 119.46 38.9096C119.746 38.7222 119.889 38.4582 119.889 38.1178C119.889 37.8021 119.765 37.5677 119.519 37.4148C119.272 37.2618 118.813 37.104 118.142 36.9412C117.254 36.7389 116.608 36.4675 116.203 36.1271C115.804 35.7867 115.604 35.318 115.604 34.7211C115.604 34.2968 115.722 33.9218 115.959 33.5962C116.196 33.2657 116.519 33.0067 116.929 32.8192C117.343 32.6317 117.819 32.538 118.357 32.538C118.89 32.538 119.386 32.6145 119.844 32.7674C120.308 32.9154 120.71 33.1325 121.051 33.4186L120.525 34.4547C120.353 34.2919 120.148 34.1513 119.911 34.0328C119.679 33.9144 119.43 33.8232 119.164 33.759C118.897 33.69 118.631 33.6554 118.364 33.6554C117.925 33.6554 117.565 33.7442 117.284 33.9218C117.008 34.0995 116.869 34.3461 116.869 34.6619C116.869 34.9924 117.003 35.2342 117.269 35.3871C117.54 35.54 117.989 35.6905 118.616 35.8385C119.524 36.0408 120.175 36.3121 120.57 36.6525C120.964 36.988 121.162 37.4518 121.162 38.0438C121.162 38.5026 121.041 38.9022 120.799 39.2426C120.557 39.5781 120.219 39.8396 119.785 40.0271C119.351 40.2096 118.843 40.3009 118.261 40.3009Z" fill="white" fill-opacity="0.5"/>
</svg>
