<svg width="181" height="40" viewBox="0 0 181 40" fill="none" xmlns="http://www.w3.org/2000/svg">
<g opacity="0.5">
<path fill-rule="evenodd" clip-rule="evenodd" d="M39.7143 20C39.7143 30.9662 30.8244 39.8561 19.8581 39.8561C8.89186 39.8561 0.00195312 30.9662 0.00195312 20C0.00195312 9.03371 8.89186 0.143799 19.8581 0.143799C30.8244 0.143799 39.7143 9.03371 39.7143 20ZM26.247 7.55386C24.1529 7.55386 22.4554 8.02947 22.4554 11.3476V15.2931C21.1109 14.3981 19.4969 13.8767 17.7611 13.8767C13.0745 13.8767 9.27522 17.6781 9.27522 22.3673C9.27522 27.0567 13.0745 30.8581 17.7611 30.8581H28.7747C28.7747 28.7629 28.0613 27.0644 24.983 27.0644H24.8314C25.7258 25.7192 26.247 24.1043 26.247 22.3673V7.55386ZM22.4554 22.3673C22.4554 24.9615 20.3537 27.0644 17.7611 27.0644C15.1685 27.0644 13.0668 24.9615 13.0668 22.3673C13.0668 19.7733 15.1685 17.6704 17.7611 17.6704C20.3537 17.6704 22.4554 19.7733 22.4554 22.3673Z" fill="white"/>
<path fill-rule="evenodd" clip-rule="evenodd" d="M124.583 9.72559C124.266 9.72559 124.01 9.98204 124.01 10.2984V29.3908C124.01 29.7071 124.266 29.9636 124.583 29.9636H126.301C126.617 29.9636 126.874 29.7071 126.874 29.3908V28.6343C128.131 29.6444 129.718 30.25 131.456 30.25C135.61 30.25 138.902 26.7882 138.902 22.613C138.902 18.4377 135.61 14.976 131.456 14.976C129.718 14.976 128.131 15.5815 126.874 16.5916V10.2984C126.874 9.98204 126.617 9.72559 126.301 9.72559H124.583ZM131.456 27.3861C128.967 27.3861 126.874 25.2916 126.874 22.613C126.874 19.9343 128.967 17.8399 131.456 17.8399C133.945 17.8399 136.038 19.9343 136.038 22.613C136.038 25.2916 133.945 27.3861 131.456 27.3861Z" fill="white"/>
<path d="M157.994 11.2532L160.104 10.5499C160.475 10.4262 160.858 10.7023 160.858 11.0932V15.2626H165.631C165.947 15.2626 166.204 15.5191 166.204 15.8354V17.5537C166.204 17.8701 165.947 18.1265 165.631 18.1265H160.858V25.6589C160.858 26.6657 161.674 27.4818 162.681 27.4818C163.526 27.4818 164.355 27.242 165.071 26.7904C165.274 26.6618 165.543 26.7225 165.672 26.9262L166.968 28.9788L166.599 29.2117C165.426 29.9525 164.068 30.3457 162.681 30.3457C160.092 30.3457 157.994 28.2473 157.994 25.6589V11.2532Z" fill="white"/>
<path d="M107.303 24.5223V15.9307C107.303 15.6144 107.559 15.3579 107.876 15.3579H109.594C109.91 15.3579 110.167 15.6144 110.167 15.9307V24.3314C110.167 26.0497 111.492 27.4816 113.126 27.4816H113.317C116.085 27.4816 117.804 25.2819 117.804 22.804V15.9307C117.804 15.6144 118.06 15.3579 118.376 15.3579H120.095C120.411 15.3579 120.667 15.6144 120.667 15.9307V29.3909C120.667 29.7072 120.411 29.9636 120.095 29.9636H118.376C118.06 29.9636 117.804 29.7072 117.804 29.3909V28.4359C116.562 29.3938 115.006 30.25 113.317 30.25H113.126C109.91 30.25 107.303 27.7383 107.303 24.5223Z" fill="white"/>
<path fill-rule="evenodd" clip-rule="evenodd" d="M152.075 28.6344V29.3909C152.075 29.7072 152.332 29.9637 152.648 29.9637H154.366C154.682 29.9637 154.939 29.7072 154.939 29.3909V15.9307C154.939 15.6144 154.682 15.3579 154.366 15.3579H152.648C152.332 15.3579 152.075 15.6144 152.075 15.9307V16.5917C150.817 15.5816 149.23 14.9761 147.493 14.9761C143.338 14.9761 140.047 18.4378 140.047 22.6131C140.047 26.7883 143.338 30.25 147.493 30.25C149.23 30.25 150.817 29.6444 152.075 28.6344ZM152.075 22.6131C152.075 19.9344 149.982 17.8399 147.493 17.8399C145.004 17.8399 142.911 19.9344 142.911 22.6131C142.911 25.2917 145.004 27.3862 147.493 27.3862C149.982 27.3862 152.075 25.2917 152.075 22.6131Z" fill="white"/>
<path fill-rule="evenodd" clip-rule="evenodd" d="M56.2285 10.3938C56.2285 10.0775 56.485 9.82104 56.8013 9.82104H64.4383C69.5524 9.82104 73.6981 13.9668 73.6981 19.0809V20.6083C73.6981 25.7223 69.5524 29.8681 64.4383 29.8681H56.8013C56.485 29.8681 56.2285 29.6117 56.2285 29.2954V10.3938ZM59.0924 12.6849V27.0043H64.4383C67.9707 27.0043 70.8343 24.1406 70.8343 20.6083V19.0809C70.8343 15.5485 67.9707 12.6849 64.4383 12.6849H59.0924Z" fill="white"/>
<path d="M94.0338 22.6131C94.0338 19.9344 96.1271 17.8399 98.616 17.8399C100.598 17.8399 102.322 19.1599 102.949 21.0579L105.125 20.3386C105.425 20.2393 105.59 19.9142 105.469 19.6221C104.342 16.9112 101.716 14.9761 98.616 14.9761C94.4615 14.9761 91.1699 18.4378 91.1699 22.6131C91.1699 26.7883 94.4615 30.25 98.616 30.25C101.672 30.25 104.268 28.3685 105.421 25.7179C105.547 25.4277 105.387 25.1001 105.088 24.996L102.925 24.2419C102.276 26.1006 100.572 27.3862 98.616 27.3862C96.1271 27.3862 94.0338 25.2917 94.0338 22.6131Z" fill="white"/>
<path fill-rule="evenodd" clip-rule="evenodd" d="M78.388 23.8541H89.6418C89.6418 23.8541 89.8328 23.0904 89.8328 22.4221C89.8328 18.3138 86.9857 14.9761 82.7686 14.9761C78.6728 14.9761 75.3223 18.1879 75.3223 22.4221C75.3223 26.5398 78.5598 30.25 82.7686 30.25C83.7835 30.25 84.8634 30.2043 86.0234 29.8012C87.1507 29.4094 88.2504 28.7179 89.4509 27.5941C89.4509 27.5941 88.5406 26.4888 87.9793 25.8308C87.7738 25.5902 87.4172 25.5799 87.1789 25.7881C86.3411 26.5208 85.6698 26.8921 85.0826 27.0961C84.3914 27.3364 83.7056 27.3862 82.7686 27.3862C80.7768 27.3862 78.9768 25.8949 78.388 23.8541ZM82.7686 17.8399C80.7119 17.8399 78.9898 19.1189 78.4017 20.9902H86.7917C86.2861 19.0567 84.7427 17.8399 82.7686 17.8399Z" fill="white"/>
<path fill-rule="evenodd" clip-rule="evenodd" d="M169.556 23.8541H180.81C180.81 23.8541 181.001 23.0904 181.001 22.4221C181.001 18.3138 178.153 14.9761 173.936 14.9761C169.841 14.9761 166.49 18.1879 166.49 22.4221C166.49 26.5398 169.728 30.25 173.936 30.25C174.951 30.25 176.031 30.2043 177.191 29.8012C178.318 29.4094 179.418 28.7179 180.619 27.5941C180.619 27.5941 179.708 26.4888 179.147 25.8308C178.942 25.5902 178.585 25.5799 178.347 25.7881C177.509 26.5208 176.838 26.8921 176.25 27.0961C175.559 27.3364 174.873 27.3862 173.936 27.3862C171.945 27.3862 170.145 25.8949 169.556 23.8541ZM173.936 17.8399C171.88 17.8399 170.158 19.1189 169.569 20.9902H177.959C177.454 19.0567 175.91 17.8399 173.936 17.8399Z" fill="white"/>
</g>
</svg>
