<svg width="46" height="58" viewBox="0 0 46 58" fill="none" xmlns="http://www.w3.org/2000/svg">
<rect x="44.9362" y="1.06402" width="55.8725" height="43.8724" rx="21.9362" transform="rotate(90 44.9362 1.06402)" stroke="#333" stroke-width="2.12755"/>
<path d="M24.3699 17.0206C24.3699 16.4331 23.8937 15.9569 23.3062 15.9569C22.7186 15.9569 22.2424 16.4331 22.2424 17.0206L24.3699 17.0206ZM22.554 41.7728C22.9694 42.1883 23.6429 42.1883 24.0584 41.7728L30.8282 35.003C31.2436 34.5876 31.2436 33.914 30.8282 33.4986C30.4128 33.0832 29.7392 33.0832 29.3238 33.4986L23.3062 39.5162L17.2885 33.4986C16.8731 33.0832 16.1996 33.0832 15.7841 33.4986C15.3687 33.914 15.3687 34.5876 15.7841 35.003L22.554 41.7728ZM22.2424 17.0206L22.2424 41.0206L24.3699 41.0206L24.3699 17.0206L22.2424 17.0206Z" fill="#ebfe6499"/>
</svg>
