<svg width="160" height="42" viewBox="0 0 160 42" fill="none" xmlns="http://www.w3.org/2000/svg">
<path d="M59.2587 14.3762H53.6914V27.6258H56.5625V17.2473H57.3882L61.9735 27.6258H65.1126L59.2587 14.3762Z" fill="white" fill-opacity="0.5"/>
<path d="M109.373 27.6258H112.244V14.3762H109.373V27.6258Z" fill="white" fill-opacity="0.5"/>
<path d="M70.9667 14.3762L65.1133 27.6258H68.2519L72.8371 17.2473H73.6628V27.6258H76.5339V14.3762H70.9667Z" fill="white" fill-opacity="0.5"/>
<path d="M89.3739 14.3762H84.1214L78.2676 27.6258H81.4066L83.3138 23.3086H90.1816L92.0887 27.6258H95.2278L89.3739 14.3762ZM84.5823 20.4375L85.9919 17.2473H87.5035L88.9129 20.4375H84.5823Z" fill="white" fill-opacity="0.5"/>
<path d="M103.519 14.3762H96.8887V27.6258H99.7598V17.2473H101.648L106.234 27.6258H109.373L103.519 14.3762Z" fill="white" fill-opacity="0.5"/>
<path d="M113.838 14.3762V17.2473H120.537V27.6258H123.409V17.2473H130.107V14.3762H113.838Z" fill="white" fill-opacity="0.5"/>
<path d="M134.573 14.3762H131.701V27.6258H144.196V24.7547H134.573V14.3762Z" fill="white" fill-opacity="0.5"/>
<path d="M159.351 17.2473V14.3762H145.793V27.6258H159.351V24.7547H148.665V22.2452H157.929V19.3741H148.665V17.2473H159.351Z" fill="white" fill-opacity="0.5"/>
<path d="M9.29518 14.7271L2.92611 11.4844C2.42792 12.4631 2.00363 13.4894 1.66602 14.5346L8.46681 16.7337C8.68906 16.0462 8.96711 15.371 9.29518 14.7271Z" fill="white" fill-opacity="0.5"/>
<path d="M14.705 9.01222L18.2327 15.0905C18.7479 14.7917 19.2993 14.5619 19.8729 14.4077L18.0472 7.6208C18.5118 7.49585 18.984 7.39271 19.4588 7.31774L18.3369 0.258545C17.2517 0.430803 16.1735 0.690807 15.1314 1.03055L17.3129 7.7165C16.619 7.94301 15.9433 8.22426 15.2925 8.55711L12.0859 2.29809C11.1108 2.79787 10.1676 3.37847 9.28125 4.02554L13.4948 9.79863C13.8829 9.51573 14.2891 9.25414 14.705 9.01222Z" fill="white" fill-opacity="0.5"/>
<path d="M33.6347 14.0482L27.5586 17.5791C27.8579 18.0938 28.0876 18.6457 28.2424 19.2184L35.0288 17.3893C35.1538 17.854 35.2569 18.3256 35.3324 18.7999L42.3905 17.6759C42.2178 16.5913 41.9572 15.5125 41.6164 14.4699L34.9315 16.6556C34.7045 15.9618 34.4232 15.2865 34.0898 14.6357L40.3467 11.4249C39.8469 10.4509 39.2652 9.50764 38.6183 8.62183L32.8468 12.8382C33.1301 13.2263 33.3929 13.6319 33.6347 14.0482Z" fill="white" fill-opacity="0.5"/>
<path d="M31.1577 2.26949C30.1778 1.77184 29.1517 1.34807 28.1075 1.01099L25.9121 7.81286C26.599 8.03456 27.2743 8.31316 27.9192 8.64068L31.1577 2.26949Z" fill="white" fill-opacity="0.5"/>
<path d="M28.6189 8.88753L25.0508 15.0801C25.5676 15.3778 26.0439 15.7426 26.4677 16.1647L36.4751 6.12329C35.6989 5.34968 34.8556 4.63138 33.9687 3.98804L29.8412 9.68027C29.4478 9.39529 29.0399 9.13052 28.6189 8.88753Z" fill="white" fill-opacity="0.5"/>
<path d="M9.54278 14.0256L15.7337 17.5975C16.0314 17.0813 16.3973 16.6044 16.82 16.18L6.78281 6.16895C6.00867 6.94521 5.28983 7.78793 4.64648 8.67424L10.3366 12.8044C10.0516 13.1973 9.78577 13.6046 9.54278 14.0256Z" fill="white" fill-opacity="0.5"/>
<path d="M23.8178 7.19753L24.8977 0.248918C23.8306 0.0830309 22.7385 -0.000976562 21.6512 -0.000976562H21.6348V14.1759H21.6512C22.2489 14.1759 22.8401 14.2525 23.409 14.4035L25.2422 7.49526C24.7732 7.37086 24.2979 7.2725 23.8178 7.19753Z" fill="white" fill-opacity="0.5"/>
<path d="M15.0554 19.2387L8.14823 17.4006C8.02328 17.8696 7.92439 18.3449 7.84942 18.825L0.901878 17.742C0.734929 18.8128 0.650391 19.9091 0.650391 20.9997H14.8272C14.8272 20.401 14.904 19.8082 15.0554 19.2387Z" fill="white" fill-opacity="0.5"/>
<path d="M34.0103 27.2742L40.3794 30.517C40.8776 29.5381 41.3018 28.512 41.6394 27.4667L34.8387 25.2676C34.6164 25.955 34.3384 26.6303 34.0103 27.2742Z" fill="white" fill-opacity="0.5"/>
<path d="M28.5977 32.9876L25.0699 26.9094C24.5547 27.2082 24.0034 27.4378 23.4297 27.5921L25.2555 34.379C24.7903 34.504 24.3186 34.6072 23.8439 34.6822L24.9652 41.7407C26.0504 41.5685 27.1287 41.3085 28.1708 40.9687L25.9892 34.2828C26.6836 34.0563 27.3589 33.775 28.0097 33.4422L31.2162 39.7012C32.1913 39.2014 33.1345 38.6208 34.0208 37.9738L29.8072 32.2007C29.4191 32.4836 29.0135 32.7457 28.5977 32.9876Z" fill="white" fill-opacity="0.5"/>
<path d="M9.66791 27.9535L15.7446 24.4227C15.4452 23.9079 15.2155 23.356 15.0608 22.7834L8.27437 24.6124C8.14942 24.1477 8.04627 23.6761 7.97078 23.2018L0.912109 24.3258C1.08491 25.4105 1.34543 26.4893 1.68624 27.5319L8.37114 25.3461C8.59816 26.04 8.87943 26.7153 9.2128 27.3661L2.95591 30.5769C3.45569 31.5509 4.03736 32.4942 4.68442 33.3799L10.4559 29.1636C10.1725 28.7755 9.90983 28.3698 9.66791 27.9535Z" fill="white" fill-opacity="0.5"/>
<path d="M12.1445 39.7316C13.1244 40.2293 14.1505 40.653 15.1948 40.9901L17.3902 34.1882C16.7032 33.9665 16.028 33.6879 15.383 33.3604L12.1445 39.7316Z" fill="white" fill-opacity="0.5"/>
<path d="M14.6823 33.114L18.2505 26.9215C17.7337 26.6237 17.2573 26.259 16.8335 25.8369L6.82617 35.8783C7.60243 36.6519 8.44569 37.3701 9.33254 38.0136L13.46 32.3213C13.8535 32.6063 14.2612 32.871 14.6823 33.114Z" fill="white" fill-opacity="0.5"/>
<path d="M33.7596 27.9758L27.5686 24.4041C27.2709 24.9203 26.905 25.3972 26.4824 25.8214L36.519 35.8331C37.2932 35.0568 38.012 34.2141 38.6554 33.3278L32.9652 29.1977C33.2503 28.8048 33.5166 28.397 33.7596 27.9758Z" fill="white" fill-opacity="0.5"/>
<path d="M19.8957 27.5967L18.0625 34.505C18.5315 34.6293 19.0068 34.7277 19.4869 34.8027L18.4076 41.7512C19.4747 41.9172 20.5667 42.0011 21.6541 42.0011H21.6705V27.8243H21.6541C21.0564 27.8243 20.4646 27.7477 19.8957 27.5967Z" fill="white" fill-opacity="0.5"/>
<path d="M28.4767 21.0012C28.4767 21.5999 28.3996 22.1922 28.248 22.7621L35.1552 24.6001C35.2802 24.1312 35.3791 23.6559 35.4539 23.1758L42.4021 24.2594C42.569 23.1885 42.6535 22.0922 42.6535 21.0017L28.4767 21.0012Z" fill="white" fill-opacity="0.5"/>
</svg>
