<svg width="79" height="24" viewBox="0 0 79 24" fill="none" xmlns="http://www.w3.org/2000/svg">
<path d="M16.0117 17H14.0342V5.49512L10.3428 17H7.28418L3.59277 5.49512V17H1.60645V4.39648H5.29785L8.81348 15.4707L12.3203 4.39648H16.0117V17ZM24.7129 13.7568L26.3301 14.3896C26.0254 15.292 25.542 15.9834 24.8799 16.4639C24.2178 16.9385 23.3887 17.1758 22.3926 17.1758C21.0684 17.1758 19.999 16.7686 19.1846 15.9541C18.3701 15.1338 17.9629 14.041 17.9629 12.6758C17.9629 11.4277 18.3467 10.3848 19.1143 9.54688C19.8877 8.70898 20.8896 8.29004 22.1201 8.29004C23.251 8.29004 24.1738 8.63281 24.8887 9.31836C25.6094 9.99805 25.9697 10.9092 25.9697 12.0518C25.9697 12.3447 25.9404 12.6729 25.8818 13.0361H19.8525C19.8525 13.8623 20.1045 14.4922 20.6084 14.9258C21.1357 15.3477 21.7363 15.5586 22.4102 15.5586C23.0195 15.5586 23.5205 15.4062 23.9131 15.1016C24.3115 14.791 24.5781 14.3428 24.7129 13.7568ZM19.8525 11.7793H24.0801L24.0977 11.6211C24.0977 11.0996 23.9102 10.6836 23.5352 10.373C23.166 10.0625 22.6885 9.90723 22.1025 9.90723C21.5107 9.90723 21.0068 10.0771 20.5908 10.417C20.1748 10.7568 19.9287 11.2109 19.8525 11.7793ZM29.916 17H28.0264V8.46582H29.916V9.71387C30.4844 8.76465 31.3779 8.29004 32.5967 8.29004C33.499 8.29004 34.2227 8.57129 34.7676 9.13379C35.3125 9.69629 35.585 10.458 35.585 11.4189V17H33.6953V12.0693C33.6953 11.3896 33.5371 10.8594 33.2207 10.4785C32.9043 10.0977 32.4736 9.90723 31.9287 9.90723C31.3428 9.90723 30.8594 10.1182 30.4785 10.54C30.1035 10.9619 29.916 11.5303 29.916 12.2451V17ZM43.6445 8.46582H45.5342V17H43.6445V15.6465C43.0352 16.666 42.1533 17.1758 40.999 17.1758C40.0381 17.1758 39.2793 16.9004 38.7227 16.3496C38.166 15.7988 37.8877 14.9961 37.8877 13.9414V8.46582H39.7773V13.4932C39.7773 14.1611 39.9268 14.6738 40.2256 15.0312C40.5244 15.3828 40.9463 15.5586 41.4912 15.5586C42.1357 15.5586 42.6543 15.3213 43.0469 14.8467C43.4453 14.3721 43.6445 13.7393 43.6445 12.9482V8.46582Z" fill="#E1E1E1"/>
<path d="M65 5H75" stroke="white" stroke-width="1.5" stroke-linecap="round" stroke-linejoin="round"/>
<path d="M59 12H75" stroke="white" stroke-width="1.5" stroke-linecap="round" stroke-linejoin="round"/>
<path d="M59 19H69" stroke="white" stroke-width="1.5" stroke-linecap="round" stroke-linejoin="round"/>
</svg>
