<?xml version="1.0" encoding="utf-8"?>
<svg viewBox="-1472.0551 -892.3851 2984.8 789.9999" width="2984.8" height="789.9999" xmlns="http://www.w3.org/2000/svg">
  <g transform="matrix(1, 0, 0, 1, -1866.7550048828125, -1287.5850830078125)">
    <g>
      <g>
        <polygon class="st0" points="1497,665.6 1497,665.6 1392.3,665.6 1392.3,914.8 1446.3,914.8 1446.3,719.6 1461.8,719.6 &#10;&#9;&#9;&#9;&#9;1548.1,914.8 1607.1,914.8 1497,665.6 &#9;&#9;&#9;" style="fill: rgb(255, 255, 255);"/>
        <polygon class="st0" points="2439.5,914.8 2439.5,914.8 2493.5,914.8 2493.5,665.6 2439.5,665.6 &#9;&#9;&#9;" style="fill: rgb(255, 255, 255);"/>
        <polygon class="st0" points="1717.2,665.6 1717.2,665.6 1717.2,665.6 1607.1,914.8 1666.2,914.8 1752.4,719.6 1767.9,719.6 &#10;&#9;&#9;&#9;&#9;1767.9,914.8 1821.9,914.8 1821.9,665.6 &#9;&#9;&#9;" style="fill: rgb(255, 255, 255);"/>
        <path class="st0" d="M2063.4,665.6h-98.8l0,0l-110.1,249.2h59l35.9-81.2h129.2l35.9,81.2h59L2063.4,665.6L2063.4,665.6z M1973.3,779.6l26.5-60h28.4l26.5,60H1973.3z" style="fill: rgb(255, 255, 255);"/>
        <polygon class="st0" points="2329.4,665.6 2204.7,665.6 2204.7,914.8 2258.7,914.8 2258.7,719.6 2294.2,719.6 2380.5,914.8 &#10;&#9;&#9;&#9;&#9;2439.5,914.8 2329.4,665.6 &#9;&#9;&#9;" style="fill: rgb(255, 255, 255);"/>
        <polygon class="st0" points="2523.5,665.6 2523.5,719.6 2649.5,719.6 2649.5,914.8 2703.5,914.8 2703.5,719.6 2829.5,719.6 &#10;&#9;&#9;&#9;&#9;2829.5,665.6 &#9;&#9;&#9;" style="fill: rgb(255, 255, 255);"/>
        <polygon class="st0" points="2913.5,665.6 2859.5,665.6 2859.5,914.8 3094.5,914.8 3094.5,860.8 2913.5,860.8 &#9;&#9;&#9;" style="fill: rgb(255, 255, 255);"/>
        <polygon class="st0" points="3379.5,719.6 3379.5,665.6 3124.5,665.6 3124.5,914.8 3379.5,914.8 3379.5,860.8 3178.5,860.8 &#10;&#9;&#9;&#9;&#9;3178.5,813.6 3352.8,813.6 3352.8,759.6 3178.5,759.6 3178.5,719.6 &#9;&#9;&#9;" style="fill: rgb(255, 255, 255);"/>
      </g>
    </g>
    <g>
      <path class="st0" d="M557.3,672.2l-119.8-61c-9.4,18.4-17.3,37.7-23.7,57.4l127.9,41.4C545.9,697,551.1,684.3,557.3,672.2z" style="fill: rgb(255, 255, 255);"/>
      <path class="st0" d="M659,564.7L725.4,679c9.7-5.6,20.1-9.9,30.8-12.8l-34.3-127.6c8.7-2.3,17.6-4.3,26.6-5.7l-21.1-132.8 c-20.4,3.2-40.7,8.1-60.3,14.5l41,125.8c-13.1,4.3-25.8,9.6-38,15.8l-60.3-117.7c-18.3,9.4-36.1,20.3-52.7,32.5l79.3,108.6 C643.6,574.2,651.2,569.3,659,564.7z" style="fill: rgb(255, 255, 255);"/>
      <path class="st0" d="M1015.1,659.4l-114.3,66.4c5.6,9.7,10,20.1,12.9,30.8l127.6-34.4c2.4,8.7,4.3,17.6,5.7,26.5l132.8-21.1 c-3.2-20.4-8.1-40.7-14.6-60.3l-125.7,41.1c-4.3-13.1-9.6-25.8-15.8-38l117.7-60.4c-9.4-18.3-20.3-36.1-32.5-52.7l-108.5,79.3 C1005.6,644,1010.5,651.6,1015.1,659.4z" style="fill: rgb(255, 255, 255);"/>
      <path class="st0" d="M968.5,437.9c-18.4-9.4-37.7-17.3-57.4-23.7l-41.3,127.9c12.9,4.2,25.6,9.4,37.8,15.6L968.5,437.9z" style="fill: rgb(255, 255, 255);"/>
      <path class="st0" d="M920.7,562.4l-67.1,116.5c9.7,5.6,18.7,12.5,26.6,20.4l188.2-188.9c-14.6-14.6-30.5-28.1-47.1-40.2 l-77.6,107.1C936.3,571.9,928.7,566.9,920.7,562.4z" style="fill: rgb(255, 255, 255);"/>
      <path class="st0" d="M561.9,659l116.4,67.2c5.6-9.7,12.5-18.7,20.4-26.7L510,511.2c-14.6,14.6-28.1,30.5-40.2,47.1l107,77.7 C571.5,643.4,566.5,651.1,561.9,659z" style="fill: rgb(255, 255, 255);"/>
      <path class="st0" d="M830.4,530.6l20.3-130.7c-20.1-3.1-40.6-4.7-61.1-4.7h-0.3v266.6h0.3c11.2,0,22.4,1.4,33.1,4.3l34.5-129.9 C848.4,533.8,839.5,532,830.4,530.6z" style="fill: rgb(255, 255, 255);"/>
      <path class="st0" d="M665.6,757.1l-129.9-34.6c-2.3,8.8-4.2,17.8-5.6,26.8l-130.7-20.4c-3.1,20.1-4.7,40.8-4.7,61.3h266.6 C661.3,778.9,662.8,767.8,665.6,757.1z" style="fill: rgb(255, 255, 255);"/>
      <path class="st0" d="M1022.1,908.2l119.8,61c9.4-18.4,17.3-37.7,23.7-57.4l-127.9-41.4C1033.5,883.4,1028.3,896.1,1022.1,908.2z" style="fill: rgb(255, 255, 255);"/>
      <path class="st0" d="M920.3,1015.6L854,901.3c-9.7,5.6-20.1,9.9-30.8,12.8l34.3,127.6c-8.7,2.3-17.6,4.3-26.6,5.7l21.1,132.8 c20.4-3.2,40.7-8.1,60.3-14.5l-41-125.8c13.1-4.3,25.8-9.6,38-15.8l60.3,117.7c18.3-9.4,36.1-20.3,52.7-32.5l-79.2-108.6 C935.8,1006.2,928.2,1011.1,920.3,1015.6z" style="fill: rgb(255, 255, 255);"/>
      <path class="st0" d="M564.3,921l114.3-66.4c-5.6-9.7-10-20.1-12.9-30.8l-127.6,34.4c-2.4-8.7-4.3-17.6-5.7-26.5l-132.8,21.1 c3.2,20.4,8.1,40.7,14.6,60.3l125.7-41.1c4.3,13,9.6,25.8,15.8,38l-117.7,60.4c9.4,18.3,20.3,36.1,32.5,52.7l108.5-79.3 C573.8,936.4,568.9,928.8,564.3,921z" style="fill: rgb(255, 255, 255);"/>
      <path class="st0" d="M610.9,1142.5c18.4,9.4,37.7,17.3,57.4,23.7l41.3-127.9c-12.9-4.2-25.6-9.4-37.8-15.6L610.9,1142.5z" style="fill: rgb(255, 255, 255);"/>
      <path class="st0" d="M658.6,1018l67.1-116.5c-9.7-5.6-18.7-12.5-26.6-20.4L510.9,1070c14.6,14.6,30.5,28.1,47.1,40.2l77.6-107.1 C643,1008.4,650.7,1013.4,658.6,1018z" style="fill: rgb(255, 255, 255);"/>
      <path class="st0" d="M1017.4,921.4L901,854.2c-5.6,9.7-12.5,18.7-20.4,26.7l188.8,188.3c14.6-14.6,28.1-30.5,40.2-47.1l-107-77.7 C1007.9,936.9,1012.9,929.3,1017.4,921.4z" style="fill: rgb(255, 255, 255);"/>
      <path class="st0" d="M756.6,914.3l-34.5,129.9c8.8,2.3,17.8,4.2,26.8,5.6l-20.3,130.7c20.1,3.1,40.6,4.7,61.1,4.7h0.3V918.6h-0.3 C778.5,918.6,767.3,917.1,756.6,914.3z" style="fill: rgb(255, 255, 255);"/>
      <path class="st0" d="M918.1,790.2c0,11.3-1.4,22.4-4.3,33.1l129.9,34.6c2.3-8.8,4.2-17.8,5.6-26.8l130.7,20.4 c3.1-20.1,4.7-40.8,4.7-61.3H918.1z" style="fill: rgb(255, 255, 255);"/>
    </g>
  </g>
</svg>