<svg width="159" height="34" viewBox="0 0 159 34" fill="none" xmlns="http://www.w3.org/2000/svg">
<g opacity="0.5" clip-path="url(#clip0_1192_109496)">
<path d="M52.114 23.0025H58.2071C58.648 23.0025 59.0006 23.3562 59.0006 23.7982V27.6295C59.0006 28.0716 58.648 28.4252 58.2071 28.4252H45.7661C45.3253 28.4252 44.9727 28.0716 44.9727 27.6295V6.37092C44.9727 5.92885 45.3253 5.5752 45.7661 5.5752H51.3205C51.7613 5.5752 52.114 5.92885 52.114 6.37092V23.0025Z" fill="white"/>
<path d="M84.8063 6.7344L77.2241 21.4896V27.6295C77.2241 28.0716 76.8715 28.4252 76.4307 28.4252H70.8763C70.4355 28.4252 70.0828 28.0716 70.0828 27.6295V21.4896L62.5006 6.7344C62.2264 6.20391 62.6084 5.5752 63.206 5.5752H69.5636C69.8771 5.5752 70.1612 5.76185 70.2885 6.04673L73.7171 13.6798L77.1458 6.04673C77.2731 5.76185 77.5572 5.5752 77.8707 5.5752H84.101C84.6985 5.5752 85.0806 6.20391 84.8063 6.7344Z" fill="white"/>
<path d="M110.335 28.4252H104.408C104.144 28.4252 103.889 28.2877 103.742 28.0716L96.4148 16.9413V27.6393C96.4148 28.0814 96.0621 28.435 95.6213 28.435H90.0669C89.6261 28.435 89.2734 28.0814 89.2734 27.6393V6.37092C89.2734 5.92885 89.6261 5.5752 90.0669 5.5752H95.9838C96.258 5.5752 96.5029 5.71273 96.6499 5.93867L103.977 17.2654V6.37092C103.977 5.92885 104.33 5.5752 104.771 5.5752H110.325C110.766 5.5752 111.119 5.92885 111.119 6.37092V27.6295C111.119 28.0716 110.766 28.4252 110.325 28.4252H110.335Z" fill="white"/>
<path d="M123.743 11.2828V14.0924H130.032C130.473 14.0924 130.825 14.446 130.825 14.8881V18.6801C130.825 19.1221 130.473 19.4758 130.032 19.4758H123.743V22.7078H130.992C131.433 22.7078 131.786 23.0614 131.786 23.5035V27.6197C131.786 28.0617 131.433 28.4154 130.992 28.4154H117.385C116.944 28.4154 116.592 28.0617 116.592 27.6197V6.37092C116.592 5.92885 116.944 5.5752 117.385 5.5752H130.992C131.433 5.5752 131.786 5.92885 131.786 6.37092V10.4871C131.786 10.9291 131.433 11.2828 130.992 11.2828H123.743Z" fill="white"/>
<path d="M151.036 28.091L147.089 22.4915L143.846 28.0419C143.699 28.2875 143.444 28.4348 143.16 28.4348H136.92C136.293 28.4348 135.911 27.7374 136.254 27.2069L142.974 16.6464L136.039 6.83245C135.666 6.30197 136.039 5.57501 136.685 5.57501H143.2C143.454 5.57501 143.699 5.70272 143.846 5.90902L147.637 11.2826L150.752 5.95814C150.899 5.71254 151.154 5.56519 151.438 5.56519H157.678C158.305 5.56519 158.687 6.26267 158.344 6.79315L151.752 17.1277L158.844 27.1676C159.216 27.6981 158.844 28.425 158.197 28.425H151.683C151.428 28.425 151.183 28.2973 151.036 28.091Z" fill="white"/>
<path d="M15.6443 11.0468L7.19032 16.6464C6.94541 16.8134 6.94541 17.1768 7.19032 17.3439L15.7227 22.9925C16.1537 23.2774 16.4182 23.7686 16.4182 24.2892V33.1601C16.4182 33.5137 16.0166 33.7298 15.7227 33.5235L0.626948 22.963C0.235106 22.688 0 22.2459 0 21.7645V12.2355C0 11.7541 0.235106 11.3121 0.626948 11.037L15.7227 0.46667C16.0166 0.260371 16.4182 0.46667 16.4182 0.830148V9.61257C16.4182 10.1922 16.1243 10.7325 15.6443 11.0567V11.0468Z" fill="white"/>
<path d="M35.9514 12.2356V21.7647C35.9514 22.246 35.7163 22.6881 35.3245 22.9632L20.219 33.5335C19.9251 33.7398 19.5234 33.5335 19.5234 33.17V24.2992C19.5234 23.7785 19.7879 23.2873 20.219 23.0025L28.7513 17.3538C28.9962 17.1868 28.9962 16.8233 28.7513 16.6563L20.2973 11.0568C19.8173 10.7326 19.5234 10.1923 19.5234 9.6127V0.830281C19.5234 0.476626 19.9251 0.260504 20.219 0.466803L35.3245 11.0371C35.7163 11.3122 35.9514 11.7543 35.9514 12.2356Z" fill="white"/>
</g>
<defs>
<clipPath id="clip0_1192_109496">
<rect width="159" height="33.2239" fill="white" transform="translate(0 0.388184)"/>
</clipPath>
</defs>
</svg>
