<svg width="160" height="42" viewBox="0 0 160 42" fill="none" xmlns="http://www.w3.org/2000/svg">
<path d="M59.2587 14.376H53.6914V27.6256H56.5625V17.2471H57.3882L61.9735 27.6256H65.1126L59.2587 14.376Z" fill="white" fill-opacity="0.5"/>
<path d="M109.373 27.6256H112.244V14.376H109.373V27.6256Z" fill="white" fill-opacity="0.5"/>
<path d="M70.9667 14.376L65.1133 27.6256H68.2519L72.8371 17.2471H73.6628V27.6256H76.5339V14.376H70.9667Z" fill="white" fill-opacity="0.5"/>
<path d="M89.3739 14.376H84.1214L78.2676 27.6256H81.4066L83.3138 23.3084H90.1816L92.0887 27.6256H95.2278L89.3739 14.376ZM84.5823 20.4373L85.9919 17.2471H87.5035L88.9129 20.4373H84.5823Z" fill="white" fill-opacity="0.5"/>
<path d="M103.519 14.376H96.8887V27.6256H99.7598V17.2471H101.648L106.234 27.6256H109.373L103.519 14.376Z" fill="white" fill-opacity="0.5"/>
<path d="M113.838 14.376V17.2471H120.537V27.6256H123.409V17.2471H130.107V14.376H113.838Z" fill="white" fill-opacity="0.5"/>
<path d="M134.573 14.376H131.701V27.6256H144.196V24.7545H134.573V14.376Z" fill="white" fill-opacity="0.5"/>
<path d="M159.351 17.2471V14.376H145.793V27.6256H159.351V24.7545H148.665V22.245H157.929V19.3739H148.665V17.2471H159.351Z" fill="white" fill-opacity="0.5"/>
<path d="M9.29518 14.7271L2.92611 11.4844C2.42792 12.4631 2.00363 13.4894 1.66602 14.5346L8.46681 16.7337C8.68906 16.0462 8.96711 15.371 9.29518 14.7271Z" fill="white" fill-opacity="0.5"/>
<path d="M14.705 9.01246L18.2327 15.0907C18.7479 14.7919 19.2993 14.5622 19.8729 14.408L18.0472 7.62104C18.5118 7.4961 18.984 7.39295 19.4588 7.31798L18.3369 0.258789C17.2517 0.431048 16.1735 0.691051 15.1314 1.0308L17.3129 7.71675C16.619 7.94325 15.9433 8.2245 15.2925 8.55735L12.0859 2.29834C11.1108 2.79812 10.1676 3.37872 9.28125 4.02579L13.4948 9.79888C13.8829 9.51598 14.2891 9.25439 14.705 9.01246Z" fill="white" fill-opacity="0.5"/>
<path d="M33.6347 14.0484L27.5586 17.5794C27.8579 18.094 28.0876 18.6459 28.2424 19.2186L35.0288 17.3895C35.1538 17.8542 35.2569 18.3259 35.3324 18.8001L42.3905 17.6761C42.2178 16.5915 41.9572 15.5127 41.6164 14.4701L34.9315 16.6558C34.7045 15.962 34.4232 15.2867 34.0898 14.636L40.3467 11.4252C39.8469 10.4511 39.2652 9.50788 38.6183 8.62207L32.8468 12.8384C33.1301 13.2265 33.3929 13.6321 33.6347 14.0484Z" fill="white" fill-opacity="0.5"/>
<path d="M31.1577 2.26924C30.1778 1.77159 29.1517 1.34783 28.1075 1.01074L25.9121 7.81261C26.599 8.03432 27.2743 8.31292 27.9192 8.64044L31.1577 2.26924Z" fill="white" fill-opacity="0.5"/>
<path d="M28.6189 8.88778L25.0508 15.0803C25.5676 15.3781 26.0439 15.7429 26.4677 16.1649L36.4751 6.12353C35.6989 5.34993 34.8556 4.63163 33.9687 3.98828L29.8412 9.68052C29.4478 9.39554 29.0399 9.13076 28.6189 8.88778Z" fill="white" fill-opacity="0.5"/>
<path d="M9.54278 14.0256L15.7337 17.5975C16.0314 17.0813 16.3973 16.6044 16.82 16.18L6.78281 6.16895C6.00867 6.94521 5.28983 7.78793 4.64648 8.67424L10.3366 12.8044C10.0516 13.1973 9.78577 13.6046 9.54278 14.0256Z" fill="white" fill-opacity="0.5"/>
<path d="M23.8178 7.19753L24.8977 0.248918C23.8306 0.0830309 22.7385 -0.000976562 21.6512 -0.000976562H21.6348V14.1759H21.6512C22.2489 14.1759 22.8401 14.2525 23.409 14.4035L25.2422 7.49526C24.7732 7.37086 24.2979 7.2725 23.8178 7.19753Z" fill="white" fill-opacity="0.5"/>
<path d="M15.0554 19.2384L8.14823 17.4004C8.02328 17.8694 7.92439 18.3447 7.84942 18.8248L0.901878 17.7417C0.734929 18.8126 0.650391 19.9089 0.650391 20.9994H14.8272C14.8272 20.4007 14.904 19.8079 15.0554 19.2384Z" fill="white" fill-opacity="0.5"/>
<path d="M34.0103 27.2742L40.3794 30.517C40.8776 29.5381 41.3018 28.512 41.6394 27.4667L34.8387 25.2676C34.6164 25.955 34.3384 26.6303 34.0103 27.2742Z" fill="white" fill-opacity="0.5"/>
<path d="M28.5977 32.9874L25.0699 26.9092C24.5547 27.2079 24.0034 27.4376 23.4297 27.5918L25.2555 34.3788C24.7903 34.5038 24.3186 34.6069 23.8439 34.6819L24.9652 41.7405C26.0504 41.5682 27.1287 41.3082 28.1708 40.9685L25.9892 34.2825C26.6836 34.0561 27.3589 33.7748 28.0097 33.442L31.2162 39.701C32.1913 39.2012 33.1345 38.6205 34.0208 37.9736L29.8072 32.2004C29.4191 32.4833 29.0135 32.7454 28.5977 32.9874Z" fill="white" fill-opacity="0.5"/>
<path d="M9.66791 27.9533L15.7446 24.4224C15.4452 23.9077 15.2155 23.3558 15.0608 22.7832L8.27437 24.6122C8.14942 24.1474 8.04627 23.6758 7.97078 23.2016L0.912109 24.3256C1.08491 25.4103 1.34543 26.4891 1.68624 27.5317L8.37114 25.3459C8.59816 26.0398 8.87943 26.7151 9.2128 27.3658L2.95591 30.5766C3.45569 31.5507 4.03736 32.4939 4.68442 33.3796L10.4559 29.1634C10.1725 28.7753 9.90983 28.3696 9.66791 27.9533Z" fill="white" fill-opacity="0.5"/>
<path d="M12.1445 39.7316C13.1244 40.2293 14.1505 40.653 15.1948 40.9901L17.3902 34.1882C16.7032 33.9665 16.028 33.6879 15.383 33.3604L12.1445 39.7316Z" fill="white" fill-opacity="0.5"/>
<path d="M14.6823 33.114L18.2505 26.9215C17.7337 26.6237 17.2573 26.259 16.8335 25.8369L6.82617 35.8783C7.60243 36.6519 8.44569 37.3701 9.33254 38.0136L13.46 32.3213C13.8535 32.6063 14.2612 32.871 14.6823 33.114Z" fill="white" fill-opacity="0.5"/>
<path d="M33.7596 27.9761L27.5686 24.4043C27.2709 24.9205 26.905 25.3974 26.4824 25.8217L36.519 35.8333C37.2932 35.0571 38.012 34.2144 38.6554 33.3281L32.9652 29.198C33.2503 28.805 33.5166 28.3972 33.7596 27.9761Z" fill="white" fill-opacity="0.5"/>
<path d="M19.8957 27.5967L18.0625 34.505C18.5315 34.6293 19.0068 34.7277 19.4869 34.8027L18.4076 41.7512C19.4747 41.9172 20.5667 42.0011 21.6541 42.0011H21.6705V27.8243H21.6541C21.0564 27.8243 20.4646 27.7477 19.8957 27.5967Z" fill="white" fill-opacity="0.5"/>
<path d="M28.4767 21.001C28.4767 21.5997 28.3996 22.1919 28.248 22.7619L35.1552 24.5999C35.2802 24.1309 35.3791 23.6556 35.4539 23.1755L42.4021 24.2592C42.569 23.1883 42.6535 22.092 42.6535 21.0014L28.4767 21.001Z" fill="white" fill-opacity="0.5"/>
</svg>
