<?xml version="1.0" encoding="UTF-8" standalone="no" ?>
<!DOCTYPE svg PUBLIC "-//W3C//DTD SVG 1.1//EN" "http://www.w3.org/Graphics/SVG/1.1/DTD/svg11.dtd">
<svg xmlns="http://www.w3.org/2000/svg" xmlns:xlink="http://www.w3.org/1999/xlink" version="1.1" width="1080" height="1080" viewBox="0 0 1080 1080" xml:space="preserve">
<desc>Created with Fabric.js 5.2.4</desc>
<defs>
</defs>
<g transform="matrix(1 0 0 1 540 540)" id="2c67ead2-4633-4083-a4c7-c06ccaa63a32"  >
</g>
<g transform="matrix(1 0 0 1 540 540)" id="d4ab61e9-8892-4e81-8f69-6747f4bff70e"  >
<rect style="stroke: none; stroke-width: 1; stroke-dasharray: none; stroke-linecap: butt; stroke-dashoffset: 0; stroke-linejoin: miter; stroke-miterlimit: 4; fill: rgb(255,255,255); fill-rule: nonzero; opacity: 1; visibility: hidden;" vector-effect="non-scaling-stroke"  x="-540" y="-540" rx="0" ry="0" width="1080" height="1080" />
</g>
<g transform="matrix(1 0 0 1 540 540)"  >
<g style="" vector-effect="non-scaling-stroke"   >
		<g transform="matrix(28.74 0 0 28.74 596.42 -95.4)"  >
<path style="stroke: none; stroke-width: 1; stroke-dasharray: none; stroke-linecap: butt; stroke-dashoffset: 0; stroke-linejoin: miter; stroke-miterlimit: 4; fill: rgb(137,137,137); fill-rule: nonzero; opacity: 1;" vector-effect="non-scaling-stroke"  transform=" translate(-64.26, -14.18)" d="M 62.008 25.357 L 62.008 3 L 66.50200000000001 3 L 66.50200000000001 25.357 z" stroke-linecap="round" />
</g>
		<g transform="matrix(28.74 0 0 28.74 0.19 95.47)"  >
<path style="stroke: none; stroke-width: 1; stroke-dasharray: none; stroke-linecap: butt; stroke-dashoffset: 0; stroke-linejoin: miter; stroke-miterlimit: 4; fill: rgb(137,137,137); fill-rule: nonzero; opacity: 1;" vector-effect="non-scaling-stroke"  transform=" translate(-43.5, -20.82)" d="M 9.634 31.998 L 0 31.998 L 0 9.641 L 9.247 9.641 C 13.741 9.641 16.359 12.091000000000001 16.359 15.921 C 16.359 18.401 14.677000000000001 20.003999999999998 13.513000000000002 20.538 C 14.903000000000002 21.165 16.681 22.578 16.681 25.562 C 16.681 29.737000000000002 13.741000000000001 31.998 9.634 31.998 z M 8.891 13.535 L 4.494 13.535 L 4.494 18.685000000000002 L 8.89 18.685000000000002 C 10.797 18.685000000000002 11.864 17.649 11.864 16.109 C 11.864 14.572000000000003 10.797 13.535000000000002 8.89 13.535000000000002 z M 9.181 22.61 L 4.495 22.61 L 4.495 28.106 L 9.183 28.106 C 11.219999999999999 28.106 12.187999999999999 26.85 12.187999999999999 25.342000000000002 C 12.187999999999999 23.835 11.217999999999998 22.610000000000003 9.183 22.610000000000003 z M 30.388 22.83 L 30.388 31.997999999999998 L 25.926000000000002 31.997999999999998 L 25.926000000000002 22.83 L 19.007 9.641 L 23.889000000000003 9.641 L 28.189000000000004 18.653 L 32.42400000000001 9.640999999999998 L 37.30500000000001 9.640999999999998 z M 50.046 31.998 L 40.412 31.998 L 40.412 9.641 L 49.658 9.641 C 54.152 9.641 56.771 12.091000000000001 56.771 15.921 C 56.771 18.401 55.089 20.003999999999998 53.925 20.538 C 55.315 21.165 57.092999999999996 22.578 57.092999999999996 25.562 C 57.092999999999996 29.737000000000002 54.153 31.998 50.046 31.998 z M 49.303 13.535 L 44.906 13.535 L 44.906 18.685000000000002 L 49.303 18.685000000000002 C 51.209999999999994 18.685000000000002 52.277 17.649 52.277 16.109 C 52.277 14.572000000000003 51.21 13.535000000000002 49.303 13.535000000000002 z M 49.592999999999996 22.61 L 44.904999999999994 22.61 L 44.904999999999994 28.106 L 49.592999999999996 28.106 C 51.63099999999999 28.106 52.599 26.85 52.599 25.342000000000002 C 52.599 23.835 51.631 22.610000000000003 49.592999999999996 22.610000000000003 z M 80.986 13.536 L 80.986 32 L 76.492 32 L 76.492 13.535 L 70.48 13.535 L 70.48 9.641 L 87 9.641 L 87 13.535 z" stroke-linecap="round" />
</g>
</g>
</g>
</svg>