<svg width="260" height="108" viewBox="0 0 260 108" fill="none" xmlns="http://www.w3.org/2000/svg">
<g opacity="0.5">
<path d="M46.9512 42.7789L55.4606 37.8672L63.9701 42.7789L60.8416 44.5934L55.4606 41.4962L50.0797 44.5934L46.9512 42.7789ZM63.9701 48.9732L60.8416 47.1587L55.4606 50.2559L50.0797 47.1587L46.9512 48.9732V52.6022L52.3322 55.6993V61.8937L55.4606 63.7082L58.5891 61.8937V55.6993L63.9701 52.6022V48.9732ZM63.9701 58.7966V55.1675L60.8416 56.982V60.611L63.9701 58.7966ZM66.1912 60.0792L60.8103 63.1763V66.8053L69.3197 61.8937V52.0703L66.1912 53.8849V60.0792ZM63.0628 45.876L66.1912 47.6905V51.3195L69.3197 49.505V45.876L66.1912 44.0615L63.0628 45.876ZM52.3322 64.4904V68.1194L55.4606 69.9338L58.5891 68.1194V64.4904L55.4606 66.3048L52.3322 64.4904ZM46.9512 58.7966L50.0797 60.611V56.982L46.9512 55.1675V58.7966ZM52.3322 45.876L55.4606 47.6905L58.5891 45.876L55.4606 44.0615L52.3322 45.876ZM44.73 47.6905L47.8585 45.876L44.73 44.0615L41.6016 45.876V49.505L44.73 51.3195V47.6905ZM44.73 53.8849L41.6016 52.0703V61.8937L50.1109 66.8053V63.1763L44.73 60.0792V53.8849Z" fill="white"/>
<path d="M93.9894 57.9921V57.9411C93.9894 55.5446 92.7147 54.3464 90.6497 53.5561C91.9243 52.8423 92.9951 51.7205 92.9951 49.7065V49.6555C92.9951 46.8511 90.7516 45.041 87.1059 45.041H78.8203V62.8871H87.31C91.3381 62.8871 93.9894 61.2554 93.9894 57.9921ZM89.0945 50.3693C89.0945 51.695 87.9983 52.2559 86.2647 52.2559H82.6445V48.4827H86.5196C88.1767 48.4827 89.0945 49.1456 89.0945 50.3183V50.3693ZM90.0888 57.5078C90.0888 58.8334 89.0436 59.4453 87.31 59.4453H82.6445V55.5192H87.1825C89.1965 55.5192 90.0888 56.2585 90.0888 57.4567V57.5078Z" fill="white"/>
<path d="M113.326 62.8871V45.041H109.451V56.0291L101.089 45.041H97.4688V62.8871H101.344V51.542L109.986 62.8871H113.326Z" fill="white"/>
<path d="M133.036 57.9921V57.9411C133.036 55.5446 131.762 54.3464 129.697 53.5561C130.971 52.8423 132.042 51.7205 132.042 49.7065V49.6555C132.042 46.8511 129.799 45.041 126.153 45.041H117.867V62.8871H126.357C130.385 62.8871 133.036 61.2554 133.036 57.9921ZM128.141 50.3693C128.141 51.695 127.045 52.2559 125.312 52.2559H121.691V48.4827H125.567C127.224 48.4827 128.141 49.1456 128.141 50.3183V50.3693ZM129.136 57.5078C129.136 58.8334 128.09 59.4453 126.357 59.4453H121.691V55.5192H126.229C128.243 55.5192 129.136 56.2585 129.136 57.4567V57.5078Z" fill="white"/>
<path d="M156.699 59.734L154.685 57.6946C153.156 59.1222 151.753 60.0145 149.561 60.0145C146.145 60.0145 143.672 57.1592 143.672 53.641C143.672 50.1227 146.145 47.3184 149.561 47.3184C151.6 47.3184 153.13 48.2107 154.558 49.5364L156.572 47.2164C154.864 45.5848 152.875 44.4375 149.586 44.4375C144.182 44.4375 140.383 48.5931 140.383 53.692C140.383 58.8418 144.258 62.8954 149.459 62.8954C152.799 62.8954 154.838 61.6716 156.699 59.734Z" fill="white"/>
<path d="M171.901 55.0693V62.5901H175.037V44.7441H171.901V52.163H163.386V44.7441H160.25V62.5901H163.386V55.0693H171.901Z" fill="white"/>
<path d="M189.102 44.6152H186.196L178.344 62.5887H181.556L183.392 58.2801H191.83L193.641 62.5887H196.954L189.102 44.6152ZM190.683 55.5013H184.539L187.598 48.3629L190.683 55.5013Z" fill="white"/>
<path d="M200.445 44.7441V62.5901H203.581V44.7441H200.445Z" fill="white"/>
<path d="M221.084 57.0834L211.523 44.7441H208.617V62.5901H211.702V49.894L221.543 62.5901H224.17V44.7441H221.084V57.0834Z" fill="white"/>
</g>
</svg>
