<svg width="260" height="108" viewBox="0 0 260 108" fill="none" xmlns="http://www.w3.org/2000/svg">
<path opacity="0.5" fill-rule="evenodd" clip-rule="evenodd" d="M101.019 54.1008C101.019 63.0666 93.7188 70.3348 84.7143 70.3348C76.1712 70.3348 69.1628 63.7926 68.4668 55.4654H90.0173V52.7362H68.4668C69.1628 44.4089 76.1712 37.8667 84.7143 37.8667C93.7188 37.8667 101.019 45.1349 101.019 54.1008ZM161.464 67.3938C167.114 67.3938 170.819 64.3566 170.819 59.7828C170.819 55.5382 168.031 53.5257 163.812 52.8304L160.07 52.2084C157.209 51.7327 155.301 50.4886 155.301 47.7443C155.301 44.9633 157.429 42.8411 161.464 42.8411C165.39 42.8411 167.407 44.817 167.627 47.6345H170.452C170.232 43.9022 167.371 40.5724 161.501 40.5724C155.705 40.5724 152.513 43.829 152.513 47.854C152.513 52.1352 155.411 54.1111 159.373 54.7698L163.152 55.3552C166.307 55.9041 168.068 57.1848 168.068 59.8925C168.068 63.0759 165.463 65.125 161.501 65.125C157.393 65.125 154.824 63.1491 154.604 59.7828H151.816C152.036 64.1737 155.411 67.3938 161.464 67.3938ZM119.816 66.8814H109.544V41.1213H119.449C123.815 41.1213 126.859 43.6827 126.859 47.7809C126.859 50.7447 125.172 52.7207 122.457 53.3793V53.4891C125.685 54.1111 127.666 56.3066 127.666 59.7461C127.666 64.1737 124.401 66.8814 119.816 66.8814ZM119.082 52.4279C122.2 52.4279 124.108 50.7447 124.108 48.1102V47.7443C124.108 45.1097 122.2 43.4631 119.082 43.4631H112.295V52.4279H119.082ZM119.412 64.5396C122.824 64.5396 124.915 62.6734 124.915 59.8193V59.4534C124.915 56.4895 122.787 54.6966 119.376 54.6966H112.295V64.5396H119.412ZM149.885 66.8814H146.95L144.749 59.8925H134.477L132.276 66.8814H129.488L137.962 41.1213H141.3L149.885 66.8814ZM139.76 43.9388H139.54L135.211 57.5873H144.052L139.76 43.9388ZM174.952 66.8814V41.1213H191.533V43.4997H177.703V52.3547H190.433V54.6966H177.703V64.503H191.533V66.8814H174.952Z" fill="white"/>
</svg>
