<svg width="260" height="108" viewBox="0 0 260 108" fill="none" xmlns="http://www.w3.org/2000/svg">
<g opacity="0.5">
<path d="M102.397 66.408H97.4922V42.4282H102.397V66.408Z" fill="white"/>
<path d="M120.119 41.9578C122.827 41.9578 125.038 42.9116 126.752 44.8193C128.463 46.7269 129.322 49.1525 129.322 52.0933V66.4058H124.417V52.8439C124.417 50.9982 123.825 49.4721 122.642 48.268C121.458 47.064 119.996 46.4619 118.252 46.4619C116.29 46.4619 114.687 47.064 113.442 48.268C112.196 49.4721 111.572 50.9982 111.572 52.8439V66.4058H106.668V42.4285H111.572V48.6222C112.226 46.5585 113.308 44.9308 114.82 43.7415C116.329 42.5524 118.097 41.9578 120.121 41.9578H120.119Z" fill="white"/>
<path d="M144.609 41.9578C148.439 41.9578 151.553 43.3352 153.95 46.0877C156.347 48.8428 157.328 52.1726 156.892 56.0845H137.135C137.478 58.0245 138.366 59.5977 139.799 60.8017C141.231 62.0058 142.957 62.6079 144.982 62.6079C146.538 62.6079 147.931 62.2239 149.161 61.4582C150.392 60.6927 151.348 59.6521 152.034 58.3366L156.145 60.1675C155.087 62.2016 153.575 63.8267 151.615 65.0482C149.654 66.2696 147.396 66.879 144.841 66.879C141.261 66.879 138.255 65.6898 135.826 63.3139C133.397 60.938 132.182 57.9799 132.182 54.4444C132.182 50.909 133.373 47.9459 135.755 45.5502C138.137 43.1569 141.086 41.9602 144.607 41.9602L144.609 41.9578ZM144.609 46.229C142.802 46.229 141.239 46.784 139.914 47.8963C138.59 49.0062 137.71 50.4532 137.276 52.237H151.943C151.538 50.4532 150.673 49.0062 149.351 47.8963C148.027 46.7865 146.446 46.229 144.609 46.229Z" fill="white"/>
<path d="M170.452 41.9578C173.317 41.9578 175.652 42.7085 177.457 44.2098C179.262 45.7112 180.167 47.8716 180.167 50.6861V66.4083H175.263V60.0263C173.798 64.5947 170.856 66.879 166.435 66.879C164.378 66.879 162.667 66.2621 161.296 65.0259C159.925 63.7896 159.242 62.1718 159.242 60.17C159.242 57.8238 160.066 56.0623 161.718 54.8903C163.367 53.7185 165.471 52.9902 168.023 52.7077L172.646 52.237C174.39 52.0808 175.263 51.298 175.263 49.8908C175.263 48.7337 174.819 47.8097 173.931 47.1234C173.043 46.4346 171.884 46.0902 170.452 46.0902C169.019 46.0902 167.749 46.4669 166.738 47.2175C165.727 47.9682 165.081 49.0633 164.8 50.5027L159.942 49.3283C160.379 47.0763 161.545 45.2851 163.446 43.9546C165.345 42.6267 167.68 41.9602 170.452 41.9602V41.9578ZM168.023 62.8877C170.047 62.8877 171.759 62.2064 173.159 60.8463C174.56 59.4862 175.26 57.898 175.26 56.0821V54.769C174.888 55.3958 173.983 55.7848 172.55 55.9408L168.02 56.5032C166.837 56.6617 165.895 57.0111 165.195 57.5586C164.494 58.1062 164.144 58.8495 164.144 59.7884C164.144 60.7274 164.494 61.4781 165.195 62.0405C165.895 62.6029 166.837 62.8854 168.02 62.8854L168.023 62.8877Z" fill="white"/>
<path d="M94.1105 66.408H71.457V42.4282H76.6402V61.7627H94.1105V66.408Z" fill="white"/>
<path d="M184.79 41.9574C187.342 41.9574 189.412 39.8776 189.412 37.3121C189.412 34.7465 187.342 32.6667 184.79 32.6667C182.236 32.6667 180.166 34.7465 180.166 37.3121C180.166 39.8776 182.236 41.9574 184.79 41.9574Z" fill="white"/>
</g>
</svg>
