<svg width="203" height="34" viewBox="0 0 203 34" fill="none" xmlns="http://www.w3.org/2000/svg">
<g opacity="0.5" clip-path="url(#clip0_1192_109382)">
<mask id="mask0_1192_109382" style="mask-type:luminance" maskUnits="userSpaceOnUse" x="0" y="0" width="35" height="34">
<path d="M34.2783 0.477539H0.167969V33.6831H34.2783V0.477539Z" fill="white"/>
</mask>
<g mask="url(#mask0_1192_109382)">
<path d="M31.3463 26.1249C31.3248 26.141 31.3033 26.1585 31.2804 26.1739C31.2589 26.1903 31.2363 26.2058 31.2138 26.2222C31.1717 26.2518 31.1284 26.2806 31.0843 26.3081C31.0792 26.3112 31.0739 26.3145 31.0688 26.3185C31.0328 26.341 30.9969 26.3635 30.9601 26.385C30.9056 26.4179 30.8521 26.4487 30.7966 26.4793C30.4205 26.6884 30.0249 26.8565 29.6212 27.0051C29.2401 27.1444 28.8538 27.2665 28.4643 27.375C27.9065 27.5309 27.3413 27.6599 26.7711 27.7726C26.2174 27.8833 25.6616 27.9766 25.1037 28.0575C24.5458 28.1387 23.9859 28.2062 23.4249 28.2646C23.241 28.284 23.057 28.3015 22.8732 28.3189C22.5043 28.3528 22.1355 28.3814 21.7666 28.4061C21.5817 28.4183 21.3967 28.4297 21.2128 28.44C20.7988 28.4635 20.3847 28.481 19.9707 28.4941C19.8957 28.4964 19.8207 28.4994 19.7446 28.5014C19.6758 28.5035 19.607 28.5055 19.5371 28.5075C19.7066 28.2984 19.8762 28.0904 20.0313 27.8702C20.0539 27.8424 20.0765 27.8148 20.0981 27.786C20.4484 27.3166 20.7834 26.837 21.1039 26.3481C21.1368 26.3461 21.1697 26.345 21.2015 26.343C21.405 26.3316 21.6084 26.3185 21.8118 26.3051C21.9659 26.2947 22.1201 26.2836 22.2742 26.2712C23.3519 26.1883 24.4256 26.0695 25.4941 25.9024C25.8055 25.8541 26.1147 25.8008 26.4229 25.7444C27.1442 25.6112 27.8591 25.4514 28.5641 25.2505C28.7192 25.2065 28.8733 25.1603 29.0274 25.1122C29.1045 25.0876 29.1815 25.063 29.2586 25.0374C29.3746 25.0579 29.4806 25.106 29.5893 25.146C29.6848 25.1808 29.7804 25.2177 29.8762 25.2556C30.1463 25.3622 30.4114 25.4801 30.6681 25.6165C30.7698 25.6698 30.8696 25.7262 30.9682 25.7856C31.0987 25.8645 31.226 25.9474 31.3453 26.0427C31.3803 26.0705 31.3904 26.0816 31.377 26.0981C31.3709 26.1064 31.3608 26.1145 31.3443 26.1269L31.3463 26.1249Z" fill="#FBFBFB"/>
<path d="M21.3575 31.076C21.3358 31.0895 21.3119 31.0895 21.2891 31.0813C21.2953 31.077 21.3005 31.0749 21.3057 31.0729C21.315 31.0698 21.3233 31.0698 21.3326 31.0698C21.3409 31.0698 21.3503 31.0719 21.3586 31.076H21.3575Z" fill="#5E93FF"/>
<path d="M21.2678 31.081C21.2398 31.0932 21.2117 31.0943 21.1816 31.0861C21.2097 31.0695 21.2387 31.0715 21.2678 31.081Z" fill="#5E93FF"/>
<path d="M21.1584 31.0861C21.1304 31.0986 21.1024 31.0997 21.0723 31.0912C21.1003 31.0736 21.1283 31.0757 21.1584 31.0861Z" fill="#5E93FF"/>
<path d="M21.048 31.0913C21.0199 31.1048 20.9919 31.1048 20.9629 31.0954C20.9629 31.0954 20.965 31.0954 20.966 31.0944C20.993 31.0811 21.021 31.0811 21.048 31.0913Z" fill="#5E93FF"/>
<path d="M20.8815 31.0902C20.9002 31.0861 20.9199 31.0882 20.9396 31.0956C20.9116 31.1088 20.8826 31.1088 20.8535 31.1007C20.8629 31.0956 20.8722 31.0922 20.8815 31.0902Z" fill="#5E93FF"/>
<path d="M20.7866 31.0923C20.8011 31.0923 20.8156 31.0954 20.8312 31.0997C20.8032 31.112 20.7751 31.113 20.7461 31.1038C20.7596 31.0954 20.7731 31.0923 20.7866 31.0913V31.0923Z" fill="#5E93FF"/>
<path d="M20.7021 31.0996C20.7093 31.1006 20.7156 31.1026 20.7218 31.1047C20.6948 31.1172 20.6658 31.1182 20.6367 31.1098C20.6564 31.0975 20.6772 31.0955 20.6979 31.0996C20.6979 31.0996 20.699 31.0996 20.7 31.0996H20.701H20.7021Z" fill="#5E93FF"/>
<path d="M20.6134 31.1096C20.5802 31.1242 20.546 31.1231 20.5117 31.1137C20.5449 31.0984 20.5792 31.0994 20.6134 31.1096Z" fill="#5E93FF"/>
<path d="M20.4874 31.1141C20.4594 31.1284 20.4314 31.1264 20.4023 31.1182C20.4293 31.1026 20.4584 31.1026 20.4874 31.1141Z" fill="#5E93FF"/>
<path d="M27.6951 24.5719C27.7083 24.574 27.7237 24.574 27.7382 24.576C27.7567 24.5781 27.7752 24.5832 27.7896 24.5986C27.7516 24.5955 27.7146 24.5873 27.6816 24.5688C27.6837 24.5688 27.6867 24.5688 27.6887 24.5699C27.691 24.5699 27.693 24.5699 27.6961 24.5709L27.6951 24.5719Z" fill="#5E93FF"/>
<path d="M12.0475 33.6113C12.0506 33.6174 12.0537 33.6237 12.0557 33.6288L11.4824 33.6308C11.4855 33.6247 11.4886 33.6184 11.4917 33.6123C11.5379 33.6123 11.5842 33.6123 11.6304 33.6123C11.7691 33.6123 11.9078 33.6123 12.0465 33.6123L12.0475 33.6113Z" fill="#3180F4"/>
<path d="M29.262 25.0363C29.1849 25.0619 29.1089 25.0865 29.0309 25.1111C28.8768 25.1593 28.7227 25.2054 28.5676 25.2495C27.8618 25.4503 27.1476 25.6101 26.4263 25.7434C26.1182 25.8007 25.8079 25.8531 25.4975 25.9014C24.4291 26.0682 23.3554 26.1873 22.2776 26.2702C22.1235 26.2826 21.9694 26.2937 21.8153 26.3041C21.6119 26.3175 21.4084 26.3306 21.205 26.342C21.1721 26.344 21.1403 26.345 21.1074 26.347C21.3283 26.0098 21.543 25.6685 21.7506 25.3222C22.0506 24.8221 22.3372 24.3148 22.6095 23.8003C23.1294 23.8454 23.6482 23.8976 24.1671 23.9612C24.2051 23.9653 24.2431 23.9735 24.2822 23.9797C24.5143 23.996 24.7445 24.0309 24.9736 24.0647C25.2685 24.1078 25.5634 24.1549 25.8571 24.2041C26.2537 24.2707 26.6504 24.3445 27.0439 24.4296C27.2566 24.4757 27.4682 24.5228 27.6808 24.5689C27.7148 24.5874 27.7508 24.5946 27.7888 24.5987C28.2429 24.7145 28.6958 24.8364 29.1408 24.983C29.1819 24.9963 29.2293 25.0004 29.261 25.0353L29.262 25.0363Z" fill="#F0F0F0"/>
<path d="M14.1543 28.3733C14.3372 28.3877 14.5211 28.4021 14.704 28.4142C14.5201 28.4021 14.3372 28.3877 14.1543 28.3733Z" fill="#FBFBFB"/>
<path d="M8.28792 32.4573C8.27352 32.4573 8.2612 32.4533 8.25195 32.4419C8.25195 32.4419 8.25401 32.4419 8.25504 32.4419C8.2571 32.4419 8.25915 32.4419 8.2612 32.4419C8.26326 32.4419 8.2643 32.4432 8.26635 32.4432C8.26736 32.4432 8.26941 32.4432 8.27045 32.4442C8.27251 32.4442 8.27456 32.4462 8.27661 32.4472C8.27661 32.4472 8.27867 32.4472 8.2797 32.4482C8.28176 32.4502 8.28381 32.4523 8.28586 32.4543C8.28586 32.4543 8.28586 32.4543 8.2869 32.4543L8.28792 32.4573Z" fill="#404A5A"/>
<path d="M8.25276 32.442C8.23839 32.442 8.22503 32.4389 8.2168 32.4258C8.2168 32.4258 8.22399 32.4258 8.22709 32.4258H8.2281C8.23735 32.4278 8.24559 32.4318 8.25175 32.441C8.25175 32.441 8.25175 32.441 8.25175 32.442H8.25276Z" fill="#404A5A"/>
<path d="M8.21565 32.4257C8.20024 32.4257 8.18585 32.4244 8.17969 32.4082C8.17969 32.4082 8.17969 32.4082 8.17969 32.4072H8.18073C8.1951 32.4072 8.20845 32.4103 8.21565 32.4244V32.4257Z" fill="#404A5A"/>
<path d="M8.18141 32.4063V32.4083C8.16704 32.4083 8.15163 32.4103 8.14648 32.3908V32.3888C8.16189 32.3866 8.17525 32.3898 8.18245 32.4063H8.18141Z" fill="#404A5A"/>
<path d="M8.04018 32.3171C8.05045 32.3242 8.06277 32.3295 8.07407 32.3346C8.08231 32.3386 8.09052 32.3417 8.09873 32.3457C8.11312 32.353 8.12648 32.3621 8.13573 32.3755C8.1388 32.3796 8.14189 32.3856 8.14498 32.392C8.09667 32.3879 8.05455 32.3685 8.01758 32.3376L8.04018 32.3171Z" fill="#404A5A"/>
<path d="M11.3337 30.7725C11.2937 30.7786 11.2536 30.7847 11.2146 30.7907C11.0605 30.8115 10.9064 30.8236 10.7512 30.8276C10.6998 30.8287 10.6474 30.8299 10.5961 30.8287C10.5437 30.8287 10.4923 30.8266 10.4399 30.8246C10.4173 30.8236 10.3957 30.8206 10.3731 30.8185C10.3515 30.8165 10.3289 30.8135 10.3063 30.8115C10.2775 30.8092 10.256 30.7971 10.2344 30.7786C10.1727 30.7232 10.1142 30.6659 10.0566 30.6064C10.482 30.6679 10.9074 30.7232 11.3337 30.7735V30.7725Z" fill="#FBFBFB"/>
<path d="M18.0261 23.6079C17.7199 23.6079 17.4138 23.612 17.1076 23.6171C16.598 24.4053 16.0483 25.1657 15.4483 25.8882C15.3219 26.0399 15.1945 26.1895 15.064 26.3372C14.7353 26.7111 14.3921 27.0721 14.0325 27.4164C13.7171 27.7177 13.3914 28.0057 13.0513 28.2762C12.7862 28.4883 12.5119 28.6903 12.2273 28.8778C11.7033 29.2242 11.1537 29.5225 10.5619 29.7396C10.2619 29.8494 9.95572 29.9386 9.63926 29.9907C9.6218 29.9937 9.60535 30.001 9.58789 30.0061C9.58893 30.0112 9.59098 30.0175 9.592 30.0225C9.59304 30.0256 9.59407 30.0286 9.59613 30.0316C9.61871 30.0665 9.64131 30.1004 9.66496 30.1333C9.71222 30.2008 9.76154 30.2665 9.81188 30.3299C9.88791 30.4252 9.96908 30.5175 10.0543 30.6057C10.4797 30.6672 10.905 30.7225 11.3314 30.7729C11.4455 30.7554 11.5585 30.7327 11.6705 30.7061C11.9304 30.6447 12.1831 30.5638 12.4308 30.4685C12.554 30.4202 12.6763 30.3689 12.7965 30.3135C12.9167 30.2581 13.0359 30.1997 13.1541 30.1373C13.2054 30.1108 13.2558 30.083 13.3071 30.0554C13.6606 29.8618 13.9996 29.6443 14.3243 29.4108C14.65 29.1759 14.9623 28.9239 15.2654 28.6594C15.3086 28.6215 15.3517 28.5836 15.3949 28.5447C15.4267 28.5161 15.4575 28.4873 15.4904 28.4577C15.6846 28.2802 15.8757 28.098 16.0617 27.9114C16.1336 27.8386 16.2045 27.7658 16.2754 27.6909C16.5086 27.447 16.7356 27.198 16.9565 26.9429C17.0891 26.7902 17.2185 26.6342 17.3459 26.4775C17.3613 26.459 17.3768 26.4396 17.3922 26.4201C17.4795 26.3114 17.5658 26.2019 17.6521 26.0912C17.9223 25.7426 18.1823 25.3871 18.4329 25.0243C18.5686 24.8275 18.7011 24.6297 18.8316 24.4299C18.9045 24.3171 18.9765 24.2044 19.0473 24.0916C19.145 23.9369 19.2405 23.7801 19.335 23.6233C18.8984 23.613 18.4627 23.6079 18.0261 23.6079Z" fill="#FBFBFB"/>
<path d="M6.37353 31.6052C6.35873 31.6083 6.34709 31.6041 6.3418 31.5882C6.35766 31.5851 6.3693 31.5882 6.37353 31.6052Z" fill="#C18B00"/>
<path d="M15.432 23.6712C15.2131 23.6814 14.9943 23.6938 14.7765 23.7071C14.5371 24.0453 14.2895 24.3783 14.0306 24.7033C13.7768 25.023 13.5169 25.3366 13.2436 25.641C13.0884 25.8131 12.9323 25.9843 12.772 26.1524C12.659 26.2712 12.5439 26.3893 12.4257 26.504C11.9562 26.9621 11.4641 27.3947 10.9349 27.785C10.8466 27.8494 10.7582 27.9132 10.6678 27.9756C10.3709 28.1816 10.0637 28.3722 9.74418 28.5434C9.513 28.6685 9.27465 28.779 9.0332 28.8806C9.03526 28.8918 9.0332 28.9041 9.03832 28.9155C9.07223 29.0088 9.10819 29.0998 9.14725 29.1911C9.18526 29.2823 9.22634 29.3716 9.2695 29.4595C9.3558 29.636 9.45238 29.8082 9.55718 29.9763L9.55923 29.9783C9.56643 29.9884 9.57877 29.9978 9.58799 30.0069C9.60548 30.0018 9.6219 29.9947 9.63936 29.9914C9.95479 29.9394 10.261 29.8501 10.562 29.7404C11.1538 29.5243 11.7035 29.2249 12.2274 28.8786C12.5121 28.691 12.7864 28.489 13.0514 28.2769C13.3915 28.0054 13.7172 27.7175 14.0326 27.4172C14.3933 27.0728 14.7354 26.7121 15.0642 26.3379C15.1946 26.1903 15.322 26.0406 15.4484 25.889C16.0484 25.1665 16.5981 24.406 17.1077 23.6179C16.5488 23.6282 15.9888 23.6446 15.4309 23.6722L15.432 23.6712Z" fill="#F0F0F0"/>
<path d="M26.4819 15.2582C26.4819 15.2582 26.4743 15.2571 26.4707 15.2571C26.4743 15.2571 26.4775 15.2571 26.4819 15.2582Z" fill="#E7AA24"/>
<path d="M26.4207 15.2816C26.4381 15.2816 26.4577 15.2816 26.4462 15.2539C26.4546 15.2539 26.4627 15.256 26.4721 15.257C26.4668 15.257 26.4627 15.258 26.4597 15.2601C26.4526 15.2652 26.4526 15.2765 26.4546 15.2898C26.4432 15.2898 26.4321 15.2887 26.4207 15.2877C26.4146 15.2877 26.4072 15.2867 26.4011 15.2857C26.3877 15.2846 26.3733 15.2826 26.3601 15.2816C26.3292 15.2775 26.2972 15.2713 26.2676 15.2641C26.32 15.2611 26.3702 15.2795 26.4217 15.2826L26.4207 15.2816Z" fill="#E7AA24"/>
<path d="M10.48 25.8459C10.5026 25.85 10.5241 25.853 10.5457 25.857C10.1173 26.2701 9.66726 26.6577 9.18746 27.0121C9.01279 27.1413 8.83813 27.2705 8.64909 27.3802C8.61414 27.2295 8.59874 27.0758 8.58127 26.9221C8.52169 26.4322 8.49909 25.9402 8.49805 25.4482C8.61724 25.477 8.7364 25.5046 8.85663 25.5323C9.20698 25.6123 9.55836 25.6829 9.91076 25.7476C10.1008 25.7825 10.2909 25.8151 10.481 25.8469L10.48 25.8459Z" fill="#FBFBFB"/>
<path d="M12.4426 23.906C12.3923 23.9122 12.3409 23.9162 12.2895 23.9214C11.784 24.5629 11.2446 25.1748 10.659 25.7478C10.622 25.7845 10.584 25.8204 10.547 25.8562C10.5645 25.8593 10.5819 25.8626 10.5984 25.8656C10.5809 25.8626 10.5645 25.8593 10.547 25.8573C10.1186 26.2703 9.66856 26.6576 9.18876 27.0123C9.01409 27.1415 8.83943 27.2707 8.65039 27.3804C8.65244 27.4009 8.65346 27.4224 8.65553 27.4428C8.65553 27.4489 8.65554 27.454 8.65759 27.4603C8.66169 27.4838 8.66684 27.5073 8.67094 27.5308C8.67401 27.5505 8.6771 27.5687 8.68121 27.5885C8.69046 27.6355 8.69971 27.6838 8.70896 27.7318C8.7634 28.0023 8.82812 28.2698 8.9093 28.5332C8.94627 28.6512 8.97608 28.7721 9.03566 28.8828C9.27711 28.7812 9.51548 28.6707 9.74664 28.5456C10.0662 28.3734 10.3734 28.1828 10.6703 27.9778C10.7607 27.9163 10.8491 27.8526 10.9374 27.7872C11.4665 27.3976 11.9587 26.9643 12.4282 26.506C12.5464 26.3912 12.6604 26.2734 12.7745 26.1546C12.9347 25.9864 13.0909 25.8153 13.246 25.6431C13.5183 25.3387 13.7793 25.0251 14.033 24.7054C14.2909 24.3795 14.5396 24.0474 14.7789 23.7092C14.0002 23.7564 13.2224 23.822 12.4457 23.908L12.4426 23.906Z" fill="#9E9E9E"/>
<path d="M10.5988 25.8656C10.5811 25.8625 10.5645 25.8592 10.5469 25.8572C10.5645 25.8605 10.5822 25.8636 10.5988 25.8656Z" fill="#FBFBFB"/>
<path d="M10.5469 25.8562C10.5251 25.8531 10.5023 25.8491 10.4805 25.845L10.5469 25.8552V25.8562Z" fill="#FF1100"/>
<path d="M9.91016 25.7466C10.1002 25.7812 10.2903 25.8141 10.4804 25.8459C10.2903 25.8141 10.0992 25.7812 9.91016 25.7466Z" fill="#FF1100"/>
<path d="M11.9553 23.9695C12.0652 23.9459 12.1772 23.9336 12.2892 23.9224C11.7837 24.5639 11.2443 25.1758 10.6587 25.7488C10.6217 25.7857 10.5837 25.8213 10.5467 25.8572L10.481 25.8471C10.2909 25.8153 10.1008 25.7824 9.91076 25.7478C9.55836 25.6831 9.20594 25.6123 8.85663 25.5324C8.73744 25.5048 8.61724 25.4771 8.49805 25.4484C8.49805 25.2629 8.5001 25.0764 8.50524 24.8898C8.50831 24.7792 8.51346 24.6695 8.51961 24.5598C8.92546 24.4635 9.33438 24.3784 9.74431 24.3006C10.445 24.1683 11.1498 24.0607 11.8567 23.9736C11.868 23.9726 11.8793 23.9705 11.8906 23.9695C11.9039 23.9675 11.9173 23.9664 11.9306 23.9675C11.9389 23.9675 11.9471 23.9695 11.9553 23.9716V23.9695Z" fill="#F0F0F0"/>
<path d="M24.4531 15.0122C24.862 15.0624 25.272 15.1116 25.6809 15.1618C25.6789 15.1659 25.6758 15.17 25.6718 15.1741C25.4178 15.1434 25.1631 15.1137 24.9093 15.0809C24.8353 15.0717 24.7613 15.0655 24.6874 15.0573C24.6134 15.0491 24.5394 15.0409 24.4665 15.0266C24.4623 15.0214 24.4582 15.0173 24.4531 15.0132V15.0122Z" fill="#007FFF"/>
<path d="M22.4492 16.2799C22.4646 16.2226 22.479 16.1631 22.4944 16.1057C22.48 16.1641 22.4646 16.2226 22.4492 16.2799Z" fill="#FBFBFB"/>
<path d="M34.203 24.4779C34.203 23.9162 34.203 23.3556 34.203 22.794C34.167 22.6372 34.1178 22.4845 34.0304 22.3472C33.8897 22.1258 33.7222 21.928 33.5126 21.7661C33.2936 21.597 33.0699 21.4381 32.8283 21.3029C32.4963 21.1173 32.1512 20.9605 31.805 20.8058C31.7434 20.7781 31.6795 20.7648 31.6179 20.7402C30.8351 20.4348 30.0297 20.2052 29.2139 20.0074C28.6918 19.8803 28.1659 19.7717 27.6378 19.6733C27.045 19.5626 26.4489 19.4673 25.8521 19.3853C25.44 19.329 25.0281 19.2777 24.6151 19.2316C24.4312 19.2111 24.2473 19.1916 24.0633 19.1732C23.5435 19.123 23.0226 19.0758 22.5017 19.0389C22.1945 19.0164 21.8863 18.9969 21.579 18.9795C21.3181 18.9651 21.0561 18.9518 20.7941 18.9395C20.3821 18.9211 19.9711 18.9067 19.5592 18.8975C19.5293 18.8975 19.4995 18.8954 19.4698 18.8954C18.8194 18.8811 18.168 18.877 17.5176 18.8831C17.5074 18.8831 17.4971 18.8831 17.4858 18.8831C16.8159 18.8893 16.146 18.9047 15.4772 18.9323C15.4371 18.9334 15.397 18.9364 15.357 18.9375C14.5648 18.9713 13.7748 19.0205 12.9847 19.0871C11.8247 19.1844 10.6689 19.3167 9.51919 19.497C9.49147 19.5011 9.46476 19.5063 9.43701 19.5104C9.39283 19.6661 9.35276 19.824 9.29729 19.9767C9.25823 20.1325 9.21918 20.2882 9.17911 20.443C9.0733 20.856 8.97776 21.2711 8.89453 21.6892C8.9531 21.679 9.01164 21.6697 9.07021 21.6595C9.14728 21.6462 9.22432 21.6339 9.30035 21.6206C9.4144 21.6021 9.52844 21.5837 9.64249 21.5652C10.0545 21.5017 10.4685 21.4443 10.8815 21.392C11.2956 21.3397 11.7096 21.2936 12.1247 21.2526C12.4011 21.225 12.6785 21.1993 12.9559 21.1758C13.3751 21.1409 13.7953 21.1112 14.2155 21.0846C14.6111 21.06 15.0066 21.0405 15.4022 21.0241C15.5039 21.02 15.6056 21.0149 15.7073 21.0108C15.8584 21.0046 16.0104 21.0005 16.1614 20.9954C16.2591 20.9923 16.3567 20.9903 16.4553 20.9882C16.8118 20.979 17.1683 20.9739 17.5248 20.9708C17.6594 20.9708 17.793 20.9688 17.9276 20.9688C18.1577 20.9688 18.3879 20.9688 18.617 20.9708C18.7002 20.9708 18.7834 20.9718 18.8666 20.9739C18.956 20.9749 19.0454 20.9759 19.1348 20.9769C19.3783 20.981 19.6208 20.9872 19.8643 20.9944C20.1078 21.0015 20.3502 21.0108 20.5937 21.02C20.6338 21.021 20.6739 21.0241 20.714 21.0251C20.9749 21.0364 21.2359 21.0497 21.4958 21.063C21.6962 21.0743 21.8965 21.0866 22.0969 21.0989C22.3969 21.1184 22.6979 21.1399 22.9979 21.1645C23.2743 21.187 23.5507 21.2127 23.8281 21.2403C23.8373 21.2403 23.8476 21.2424 23.8568 21.2434C24.0551 21.2629 24.2534 21.2824 24.4517 21.3029C24.7692 21.3346 25.0867 21.3725 25.4043 21.4145C25.7205 21.4566 26.0371 21.5017 26.3534 21.5488C26.4849 21.5683 26.6164 21.5888 26.747 21.6093C27.1405 21.6728 27.5328 21.7425 27.9234 21.8194C28.1535 21.8645 28.3826 21.9116 28.6117 21.9608C28.8408 22.01 29.0689 22.0633 29.297 22.1186C29.6432 22.2037 29.9873 22.2949 30.3275 22.3943C30.7816 22.5276 31.2317 22.6772 31.6724 22.8524C31.7834 22.8955 31.8924 22.9416 32.0021 22.9877C32.1686 23.0595 32.3321 23.1384 32.4943 23.2183C32.5343 23.2378 32.5744 23.2573 32.6147 23.2777C32.6454 23.2931 32.6773 23.3085 32.7082 23.3239C32.7493 23.3444 32.7903 23.3649 32.8304 23.3874C32.8818 23.4151 32.932 23.4448 32.9794 23.4776C33.1621 23.6037 33.3502 23.7225 33.5197 23.866C33.5587 23.8998 33.5967 23.9337 33.6337 23.9695C33.6781 24.0064 33.7202 24.0464 33.7602 24.0864C33.8269 24.153 33.8887 24.2247 33.9429 24.2995C33.9698 24.3364 33.9944 24.3743 34.018 24.4133C34.0385 24.4471 34.057 24.481 34.0745 24.5158C34.0919 24.5506 34.1084 24.5865 34.1229 24.6244C34.1383 24.6613 34.1515 24.6993 34.1639 24.7372C34.172 24.7638 34.1814 24.7915 34.1895 24.8181C34.1895 24.8181 34.1895 24.8202 34.1905 24.8212V24.8181C34.2123 24.7044 34.1989 24.5896 34.1999 24.4748L34.203 24.4779Z" fill="#FBFBFB"/>
<path d="M34.2107 22.5716C34.2119 22.1463 34.2119 21.722 34.2107 21.2967C34.2107 21.1009 34.2086 20.9042 34.2076 20.7084C34.1739 20.5977 34.1501 20.484 34.0999 20.3784C33.9714 20.113 33.7793 19.8998 33.5573 19.7092C33.3148 19.5001 33.0467 19.3269 32.7651 19.1742C32.3573 18.9508 31.9341 18.7602 31.4974 18.5993C30.9918 18.4127 30.4791 18.2477 29.9593 18.1063C29.5617 17.9987 29.162 17.8993 28.7614 17.8081C28.3042 17.7045 27.8449 17.6133 27.3837 17.5324C26.9047 17.4494 26.4239 17.3694 25.9422 17.3028C25.7141 17.271 25.485 17.2413 25.2558 17.2126C24.7441 17.147 24.2314 17.0896 23.7177 17.0446C23.6222 17.0353 23.5277 17.022 23.4321 17.0148C23.0437 16.9851 22.6554 16.9564 22.268 16.9287C22.2126 16.9246 22.1571 16.9205 22.1016 16.9164C21.8427 16.898 21.5838 16.8795 21.3249 16.8662C20.9879 16.8498 20.6509 16.8375 20.3139 16.8252C20.3108 16.8252 20.3077 16.8252 20.3046 16.8252C19.9522 16.8129 19.6009 16.7996 19.2485 16.7934C18.9382 16.7883 18.6279 16.7853 18.3166 16.7842C18.1799 16.7842 18.0433 16.7832 17.9056 16.7832C17.3611 16.7832 16.8176 16.7914 16.2741 16.8068C16.2659 16.8068 16.2587 16.8068 16.2504 16.8068C15.6124 16.8252 14.9733 16.8509 14.3363 16.8918C13.8463 16.9226 13.3562 16.9503 12.8671 16.9913C12.6688 17.0076 12.4716 17.0322 12.2743 17.0517C11.5849 17.1204 10.8976 17.2003 10.2123 17.2966C10.2041 17.2977 10.1969 17.2987 10.1886 17.2997C9.91431 18.0079 9.66774 18.7253 9.45096 19.454C9.44581 19.4724 9.44069 19.4899 9.43555 19.5083C9.46226 19.5042 9.48998 19.4991 9.51773 19.495C10.6674 19.3146 11.8233 19.1814 12.9832 19.085C13.7733 19.0194 14.5634 18.9692 15.3555 18.9354C15.3956 18.9334 15.4357 18.9313 15.4757 18.9303C16.1446 18.9026 16.8145 18.8872 17.4844 18.8811C17.4946 18.8811 17.5059 18.8811 17.5162 18.8811C18.1676 18.876 18.818 18.8801 19.4683 18.8934C19.4981 18.8934 19.5279 18.8954 19.5577 18.8954C19.9697 18.9047 20.3807 18.919 20.7927 18.9375C21.0546 18.9498 21.3156 18.9631 21.5776 18.9774C21.8848 18.9948 22.193 19.0143 22.5002 19.0369C23.0211 19.0748 23.542 19.1209 24.0619 19.1711C24.2458 19.1896 24.4297 19.209 24.6136 19.2295C25.0267 19.2757 25.4386 19.3269 25.8507 19.3833C26.4475 19.4653 27.0436 19.5606 27.6364 19.6713C28.1645 19.7697 28.6904 19.8783 29.2125 20.0054C30.0283 20.2032 30.8337 20.4327 31.6165 20.7381C31.6781 20.7627 31.742 20.7761 31.8036 20.8037C32.1498 20.9595 32.4949 21.1153 32.8269 21.3008C33.0682 21.4361 33.2922 21.5949 33.5112 21.764C33.7208 21.926 33.8883 22.1237 34.029 22.3451C34.1161 22.4825 34.1645 22.6352 34.2015 22.792C34.216 22.7182 34.2076 22.6434 34.2076 22.5696L34.2107 22.5716Z" fill="#F0F0F0"/>
<path d="M22.1327 6.50486C22.4163 6.94658 22.6218 7.42418 22.7769 7.92429C22.8252 8.07906 22.8683 8.23484 22.9074 8.39165C22.9721 8.65297 23.0224 8.91841 23.0625 9.18489C23.0738 9.26278 23.0851 9.34067 23.0954 9.41957C23.1149 9.57638 23.1324 9.73319 23.1468 9.88998C23.1529 9.96891 23.1591 10.0468 23.1653 10.1257C23.194 10.5541 23.2064 10.9825 23.1951 11.4119C23.1827 11.8608 23.156 12.3097 23.1108 12.7575C23.0656 13.2023 23.004 13.6451 22.93 14.0847C22.8858 14.3492 22.8365 14.6125 22.7831 14.8739C22.3577 14.84 21.9324 14.8114 21.506 14.7909C21.3015 14.7817 21.096 14.7704 20.8906 14.7601C21.0293 14.1657 21.1464 13.5672 21.2378 12.9625C21.3385 12.2933 21.4104 11.622 21.4371 10.9466C21.4587 10.3727 21.4556 9.79776 21.4094 9.22382C21.3704 8.74522 21.3056 8.27172 21.2029 7.80234C21.0868 7.27454 20.9234 6.76211 20.6892 6.27324C20.5967 6.07955 20.4878 5.89404 20.3789 5.70957C20.4683 5.68088 20.5618 5.67779 20.6532 5.66859C20.7015 5.66346 20.7498 5.65937 20.7971 5.65628C20.8382 5.65423 20.8793 5.65219 20.9203 5.65115C20.9871 5.65014 21.0539 5.65014 21.1207 5.65115C21.1669 5.65219 21.2142 5.65423 21.2604 5.65628C21.2964 5.65833 21.3323 5.66038 21.3683 5.66346C21.3745 5.66346 21.3806 5.66447 21.3858 5.66551C21.3971 5.66756 21.4073 5.67064 21.4176 5.67474C21.4279 5.67883 21.4371 5.68396 21.4464 5.69011C21.4597 5.6983 21.4731 5.70957 21.4854 5.72085C21.5173 5.74954 21.5481 5.77927 21.5779 5.80897C21.6385 5.86843 21.6971 5.93095 21.7526 5.99448C21.8933 6.15334 22.0197 6.32244 22.1358 6.50281L22.1327 6.50486Z" fill="#FBFBFB"/>
<path d="M21.1978 7.80209C21.3006 8.27046 21.3653 8.74497 21.4044 9.22357C21.4516 9.79751 21.4547 10.3725 21.4321 10.9464C21.4064 11.6218 21.3345 12.2931 21.2328 12.9623C21.1413 13.567 21.0242 14.1665 20.8855 14.7599C20.7304 14.7527 20.5742 14.7445 20.4191 14.7384C20.0636 14.7251 19.7091 14.7169 19.3536 14.7097C19.2211 14.7066 19.0885 14.7046 18.957 14.7025C19.0865 14.2157 19.2005 13.7248 19.2981 13.2308C19.3721 12.8608 19.4358 12.4888 19.4923 12.1158C19.5293 11.8657 19.5622 11.6156 19.5909 11.3646C19.6207 11.1022 19.6444 10.8388 19.6608 10.5743C19.6783 10.2925 19.6896 10.0097 19.6957 9.72781C19.7029 9.34965 19.6906 8.97249 19.6629 8.59534C19.6444 8.3463 19.6207 8.09828 19.5889 7.85028C19.5458 7.51104 19.4841 7.1759 19.4029 6.84385C19.3382 6.57841 19.2642 6.314 19.1656 6.05779C19.2334 6.01473 19.3115 5.99322 19.3865 5.96554C19.5386 5.90919 19.6916 5.85999 19.8478 5.81694C20.004 5.77493 20.1612 5.73905 20.3214 5.71241C20.3327 5.71036 20.343 5.70728 20.3543 5.70728C20.3615 5.70728 20.3677 5.70728 20.3738 5.70932C20.4827 5.89382 20.5917 6.07829 20.6841 6.273C20.9184 6.76186 21.0817 7.27429 21.1978 7.80209Z" fill="#F0F0F0"/>
<path d="M25.6665 6.93403C25.6665 6.93403 25.6621 6.9307 25.6621 6.92849C25.6621 6.92737 25.6621 6.92628 25.6621 6.92407L25.6676 6.92737L25.6654 6.93291L25.6665 6.93403Z" fill="#3180F4"/>
<path d="M34.2022 26.841C34.2032 26.8144 34.2052 26.7876 34.2052 26.7611C34.2052 26.3225 34.2063 25.8829 34.2063 25.4441C34.2063 25.2546 34.2032 25.065 34.2022 24.8754C34.2022 24.8641 34.2073 24.8518 34.2063 24.8405C34.2032 24.8333 34.1992 24.8282 34.1961 24.8221C34.1961 24.8221 34.1961 24.8231 34.1961 24.8241C34.1961 24.8231 34.1961 24.8221 34.1951 24.821C34.1867 24.7933 34.1776 24.7667 34.1693 24.739C34.1571 24.7001 34.1426 24.6622 34.1282 24.6263C34.1138 24.5894 34.0973 24.5535 34.08 24.5177C34.0626 24.4828 34.043 24.448 34.0235 24.4152C33.9997 24.3762 33.9751 24.3383 33.9485 24.3014C33.894 24.2256 33.8335 24.1549 33.7655 24.0883C33.7255 24.0483 33.6834 24.0093 33.6391 23.9714C33.6021 23.9345 33.5641 23.9007 33.525 23.8679C33.3555 23.7244 33.1677 23.6055 32.9847 23.4795C32.9363 23.4467 32.8861 23.417 32.8357 23.3893C32.7957 23.3678 32.7546 23.3463 32.7135 23.3258C32.6826 23.3104 32.6507 23.295 32.62 23.2796C32.58 23.2591 32.5399 23.2397 32.4996 23.2202C32.3374 23.1402 32.174 23.0613 32.0077 22.9896C31.8977 22.9435 31.7888 22.8974 31.6778 22.8543C31.236 22.6801 30.7869 22.5294 30.333 22.3962C29.9919 22.2958 29.6478 22.2046 29.3023 22.1205C29.0742 22.0652 28.8461 22.0119 28.617 21.9627C28.3879 21.9135 28.1588 21.8664 27.9287 21.8213C27.5374 21.7444 27.1448 21.6737 26.7523 21.6111C26.6208 21.5907 26.4905 21.5702 26.359 21.5507C26.0424 21.5036 25.7269 21.4585 25.4096 21.4164C25.0931 21.3744 24.7756 21.3365 24.4571 21.3047C24.2588 21.2853 24.0605 21.2648 23.8622 21.2453C23.853 21.2453 23.8427 21.2432 23.8335 21.2422C23.5571 21.2145 23.2807 21.1889 23.0033 21.1664C22.7033 21.1418 22.4023 21.1213 22.1022 21.1008C21.9019 21.0874 21.7016 21.0752 21.5012 21.0649C21.2402 21.0506 20.9793 21.0372 20.7193 21.027C20.6793 21.0249 20.6392 21.0229 20.5991 21.0219C20.3556 21.0116 20.1132 21.0034 19.8697 20.9962C19.6262 20.9891 19.3837 20.9829 19.1402 20.9788C19.0508 20.9778 18.9614 20.9768 18.872 20.9757C18.7888 20.9747 18.7056 20.9737 18.6224 20.9727C18.3922 20.9706 18.1621 20.9696 17.933 20.9706C17.7984 20.9706 17.6638 20.9716 17.5302 20.9727C17.1737 20.9757 16.8172 20.9809 16.4607 20.9901C16.3631 20.9921 16.2655 20.9952 16.1668 20.9973C16.0158 21.0014 15.8637 21.0065 15.7127 21.0126C15.611 21.0167 15.5093 21.0219 15.4076 21.026C15.012 21.0424 14.6165 21.0628 14.2209 21.0864C13.8007 21.1131 13.3805 21.1418 12.9613 21.1776C12.6839 21.2012 12.4065 21.2268 12.1301 21.2545C11.715 21.2955 11.301 21.3416 10.8869 21.3939C10.4729 21.4461 10.0598 21.5036 9.64784 21.5671C9.5338 21.5845 9.41975 21.603 9.30573 21.6224C9.22866 21.6347 9.15263 21.6481 9.07559 21.6614C9.01702 21.6716 8.95845 21.6808 8.89991 21.6911C8.98311 21.273 9.07866 20.8579 9.18449 20.4449C9.22456 20.2891 9.26359 20.1343 9.30264 19.9786C9.35812 19.8258 9.39819 19.668 9.44236 19.5122C9.4475 19.4938 9.45265 19.4764 9.45777 19.4579C9.67456 18.7293 9.92115 18.0108 10.1955 17.3037C10.3691 16.8548 10.554 16.41 10.7503 15.9693C10.8818 15.6741 11.0184 15.38 11.1592 15.09C11.6246 14.1297 12.1414 13.196 12.7147 12.2931C13.25 11.4466 13.8325 10.6349 14.4706 9.86213C14.4839 9.84676 14.4942 9.82833 14.5065 9.81192C14.6986 9.59259 14.8877 9.37124 15.0839 9.15499C15.723 8.44886 16.4114 7.79499 17.1737 7.22209C17.3617 7.08065 17.5559 6.94742 17.748 6.81111C17.7655 6.79882 17.7871 6.79677 17.8076 6.79574C17.8169 6.76808 17.8426 6.75577 17.8641 6.74245C18.2576 6.49136 18.6665 6.26794 19.0971 6.08756C19.1125 6.08142 19.1268 6.0732 19.1433 6.0681C19.1474 6.06706 19.1525 6.06605 19.1576 6.06501C19.1628 6.06501 19.1679 6.06297 19.1731 6.06297C19.2409 6.01991 19.319 5.9984 19.394 5.97072C19.546 5.91437 19.6991 5.86517 19.8553 5.82212C20.0114 5.78011 20.1686 5.74423 20.3289 5.71759C20.3402 5.71554 20.3505 5.71246 20.3618 5.71246C20.369 5.71246 20.3752 5.71246 20.3813 5.7145C20.4707 5.68581 20.5642 5.68275 20.6556 5.67352C20.7039 5.66839 20.7522 5.6643 20.7995 5.66121C20.8406 5.65917 20.8817 5.65712 20.9228 5.65611C20.9895 5.65507 21.0563 5.65507 21.1231 5.65611C21.1693 5.65712 21.2166 5.65917 21.2628 5.66121C21.2988 5.66326 21.3348 5.66533 21.3707 5.66839C21.3769 5.66839 21.383 5.66943 21.3882 5.67044C21.3995 5.67249 21.4098 5.67557 21.42 5.67967C21.4303 5.68376 21.4396 5.6889 21.4488 5.69504C21.4622 5.70325 21.4755 5.7145 21.4878 5.72578C21.5197 5.7545 21.5505 5.7842 21.5803 5.81393C21.6409 5.87337 21.6995 5.93588 21.755 5.99944C21.8957 6.15827 22.0221 6.32737 22.1382 6.50777C22.4218 6.94947 22.6273 7.42706 22.7824 7.9272C22.8307 8.08194 22.8738 8.23772 22.9129 8.39453C22.9776 8.65588 23.028 8.92132 23.068 9.18778C23.0793 9.26567 23.0906 9.34355 23.1009 9.42248C23.1204 9.57927 23.1379 9.73608 23.1523 9.89289C23.1584 9.97179 23.1646 10.0497 23.1708 10.1286C23.1995 10.557 23.2119 10.9854 23.2006 11.4148C23.1882 11.8637 23.1615 12.3126 23.1163 12.7604C23.0711 13.2052 23.0095 13.648 22.9355 14.0876C22.8913 14.3521 22.842 14.6154 22.7886 14.8768C22.8574 14.8819 22.9263 14.887 22.9951 14.8932C23.4893 14.9342 23.9824 14.9834 24.4756 15.0285C24.4715 15.0233 24.4674 15.0192 24.4622 15.0151C24.8711 15.0654 25.2811 15.1146 25.6899 15.1648C25.6879 15.1689 25.6848 15.173 25.6808 15.1771C25.7053 15.1801 25.7302 15.1842 25.7548 15.1873C25.8369 14.7835 25.9109 14.3797 25.9735 13.9729C26.029 13.608 26.0784 13.2421 26.1164 12.8752C26.1524 12.5319 26.1841 12.1886 26.2006 11.8432C26.2089 11.6772 26.218 11.5101 26.2284 11.3441C26.2294 11.3226 26.218 11.2939 26.252 11.2846C26.252 10.9751 26.25 10.6646 26.249 10.3551C26.2325 10.3479 26.2315 10.3336 26.2294 10.3182C26.2254 10.2557 26.218 10.1942 26.216 10.1317C26.2036 9.68175 26.1625 9.23492 26.102 8.79012C26.0353 8.29718 25.9365 7.8114 25.7999 7.33277C25.7659 7.21286 25.7373 7.09192 25.6838 6.97816L25.6727 6.93718C25.6727 6.93718 25.6683 6.9341 25.6683 6.93205C25.6683 6.93104 25.6683 6.93 25.6683 6.92795C25.6653 6.91359 25.6633 6.89926 25.6582 6.8849C25.4598 6.31405 25.2009 5.77293 24.8444 5.281C24.5013 4.80649 24.0872 4.40987 23.5766 4.1147C23.3855 4.00402 23.178 3.92613 22.9817 3.82673C22.9643 3.8175 22.9417 3.81955 22.9211 3.81546C22.9036 3.79291 22.8759 3.78674 22.8523 3.77549C22.3889 3.57052 21.9266 3.36552 21.4622 3.16262C21.4026 3.13595 21.3481 3.09702 21.2813 3.08883C21.27 3.08471 21.2587 3.08165 21.2474 3.07755C21.1683 3.05192 21.0872 3.03346 21.0111 2.99762C21.0039 2.99554 20.9978 2.9935 20.9906 2.99044C20.9875 2.9894 20.9834 2.98839 20.9803 2.98735C20.9803 2.98735 20.9793 2.98735 20.9783 2.98735C20.97 2.99248 20.9649 2.98839 20.9598 2.98121C20.8108 2.94329 20.6618 2.9146 20.5108 2.89409C20.4019 2.87872 20.293 2.86745 20.183 2.8613C20.146 2.85926 20.1101 2.85822 20.0731 2.85721C19.9632 2.85413 19.8543 2.85514 19.7453 2.86027C19.6005 2.86641 19.4566 2.87973 19.3128 2.89922C19.0621 2.93406 18.8135 2.98634 18.5669 3.05397C18.5319 3.06423 18.496 3.07346 18.4611 3.08471C17.9977 3.22205 17.5559 3.40756 17.1295 3.62687C16.9878 3.69965 16.847 3.7765 16.7073 3.85747C16.5799 3.93023 16.4545 4.00506 16.3302 4.08396C16.2891 4.10959 16.248 4.13624 16.2069 4.16288C16.1658 4.18953 16.1247 4.21617 16.0846 4.24383C16.0035 4.29816 15.9233 4.35349 15.8442 4.41088C15.8052 4.4396 15.7651 4.46829 15.7261 4.49698C15.7261 4.50004 15.7261 4.50209 15.7261 4.50518C15.7261 4.50722 15.724 4.50927 15.723 4.51132C15.7199 4.5144 15.7158 4.51544 15.7096 4.51544H15.7086C15.7086 4.51544 15.7086 4.51953 15.7086 4.52055C15.7086 4.52464 15.7065 4.52669 15.7045 4.52773C15.7024 4.52876 15.7004 4.52876 15.6963 4.52773C15.6952 4.52773 15.6932 4.52772 15.6922 4.52568C15.5175 4.64763 15.348 4.77471 15.1826 4.90693C15.1086 4.96535 15.0356 5.0258 14.9637 5.08627C14.9524 5.09549 14.9411 5.10576 14.9298 5.11496C14.8558 5.17748 14.7819 5.24103 14.7089 5.3056C14.7089 5.30764 14.7089 5.30868 14.7089 5.31073C14.7089 5.31584 14.7069 5.31892 14.7038 5.322C14.7038 5.322 14.7017 5.32301 14.7007 5.32405C14.6986 5.32506 14.6956 5.3261 14.6925 5.3261C14.6904 5.33019 14.6873 5.33429 14.6843 5.33737C14.6802 5.34147 14.6771 5.34557 14.6719 5.34865C14.6658 5.35274 14.6586 5.35684 14.6504 5.35785C14.6504 5.36708 14.6483 5.37221 14.6442 5.37426C14.638 5.37835 14.6267 5.37529 14.6185 5.37631C14.5908 5.405 14.562 5.43369 14.5343 5.46137C14.5322 5.46342 14.5312 5.46547 14.5291 5.46651C14.5291 5.46752 14.5291 5.46956 14.5291 5.4706C14.5291 5.4747 14.5271 5.47674 14.525 5.47983H14.524C14.524 5.47983 14.5178 5.48289 14.5117 5.48289C14.487 5.50339 14.4603 5.52184 14.4367 5.54336C14.4346 5.5454 14.4325 5.54644 14.4305 5.54849C14.3401 5.63356 14.2486 5.71863 14.1593 5.80574C14.1531 5.81188 14.1469 5.81699 14.1418 5.82212C14.114 5.8498 14.0853 5.87541 14.0565 5.90206C13.9846 5.96867 13.9106 6.03324 13.8418 6.10293C13.8048 6.14086 13.7668 6.17878 13.7298 6.21568C13.5161 6.43193 13.3044 6.65023 13.1 6.87567C12.839 7.16367 12.5852 7.45679 12.3387 7.75603C12.3037 7.79908 12.2678 7.8411 12.2328 7.88415C12.2277 7.8903 12.2215 7.89747 12.2174 7.90465C12.2102 7.91489 12.203 7.92516 12.1958 7.93641C12.1866 7.95077 12.1774 7.96512 12.1681 7.97845C12.1609 7.98869 12.1537 7.99791 12.1455 8.00815C12.1424 8.01124 12.1404 8.01429 12.1383 8.01637C12.127 8.02865 12.1157 8.03993 12.1023 8.04916C12.1023 8.05222 12.1013 8.05325 12.1003 8.0553C12.1003 8.05735 12.1003 8.05939 12.0982 8.06144C12.0982 8.06248 12.0962 8.06349 12.0952 8.06453C12.0931 8.06556 12.09 8.06657 12.088 8.06761C12.0818 8.0963 12.0582 8.11064 12.0387 8.12909C12.0376 8.12909 12.0366 8.13114 12.0356 8.13218C12.0294 8.13728 12.0253 8.14345 12.0212 8.14959C12.0191 8.15265 12.0171 8.15574 12.0161 8.15983C12.015 8.16393 12.013 8.16701 12.0119 8.17111C12.0119 8.17316 12.0119 8.17419 12.0119 8.17624C12.0119 8.18137 12.0099 8.18443 12.0058 8.18751C12.0058 8.18751 12.0037 8.18751 12.0037 8.18853C12.0027 8.18853 12.0006 8.18853 11.9996 8.18853C11.9986 8.18853 11.9976 8.18853 11.9955 8.18853C11.9503 8.2449 11.9041 8.30128 11.8588 8.35763C11.8568 8.36071 11.8537 8.36379 11.8517 8.36685C11.8527 8.37403 11.8527 8.38018 11.8517 8.38634C11.8517 8.39145 11.8486 8.39453 11.8465 8.39863C11.8465 8.39967 11.8445 8.40171 11.8445 8.40272C11.8414 8.40581 11.8373 8.4099 11.8332 8.41195C11.828 8.41504 11.8219 8.41708 11.8157 8.41913C11.8085 8.42732 11.8013 8.4345 11.7941 8.44269C11.7911 8.44578 11.789 8.44886 11.7869 8.45091C11.7808 8.45705 11.7756 8.46423 11.7705 8.47037C11.6544 8.62615 11.5383 8.78296 11.4222 8.93874C11.4222 8.94385 11.4202 8.94693 11.4171 8.95002C11.4171 8.95002 11.416 8.95103 11.415 8.95206C11.413 8.95411 11.4099 8.95512 11.4068 8.95512C11.3267 9.06787 11.2444 9.17959 11.1654 9.29335C11.1499 9.31587 11.1345 9.33842 11.1191 9.36097C11.0009 9.53419 10.89 9.71252 10.7708 9.88468C10.7112 9.97078 10.6547 10.0589 10.5982 10.146C10.5407 10.2331 10.4831 10.3203 10.4205 10.4053C10.3208 10.5416 10.2355 10.6902 10.1482 10.8347C10.1102 10.8972 10.0722 10.9598 10.0352 11.0223C9.61292 11.7212 9.20297 12.4274 8.85366 13.1663C8.83311 13.2093 8.80949 13.2493 8.78584 13.2903C8.76222 13.3303 8.73756 13.3713 8.71701 13.4122C8.59784 13.651 8.48175 13.8909 8.36872 14.1327C8.32659 14.2229 8.28551 14.3131 8.24337 14.4043C8.18893 14.5222 8.13548 14.6411 8.0831 14.76C8.01632 14.9106 7.94954 15.0623 7.88377 15.215C7.85605 15.2785 7.82931 15.3431 7.8026 15.4077C7.76869 15.4876 7.7348 15.5675 7.70191 15.6485C7.5848 15.9324 7.47176 16.2194 7.36185 16.5063C7.32999 16.5904 7.29814 16.6744 7.26732 16.7594C7.19233 16.9644 7.11937 17.1694 7.04643 17.3754C7.02897 17.4246 7.01148 17.4738 6.99402 17.523C6.98066 17.5609 6.96731 17.5998 6.95499 17.6388C6.92108 17.7361 6.88922 17.8345 6.85841 17.9329C6.82039 18.0528 6.78339 18.1727 6.74641 18.2926C6.7197 18.3787 6.69299 18.4638 6.66526 18.5499C6.60259 18.7415 6.52963 18.9311 6.50497 19.133C6.50395 19.1433 6.49161 19.1525 6.48545 19.1617C6.45464 19.2458 6.43614 19.3319 6.41558 19.418C6.40532 19.4589 6.39298 19.4999 6.38066 19.5409C6.36832 19.5819 6.356 19.6229 6.3447 19.6639C6.29743 19.8402 6.25121 20.0175 6.20805 20.1948C6.16798 20.3547 6.12996 20.5166 6.09299 20.6775C6.05188 20.8589 6.01283 21.0403 5.97481 21.2217C5.94194 21.3806 5.91011 21.5404 5.88031 21.7003C5.85669 21.8274 5.83304 21.9535 5.81147 22.0806C5.79193 22.1923 5.77447 22.304 5.75597 22.4157C5.73336 22.5581 5.7118 22.6996 5.69228 22.842C5.67482 22.9701 5.65837 23.0972 5.64193 23.2253C5.59879 23.5768 5.56384 23.9284 5.53612 24.282C5.52892 24.3834 5.52172 24.4838 5.5166 24.5853C5.51042 24.6868 5.5053 24.7872 5.50117 24.8887C5.49296 25.0906 5.4868 25.2935 5.48064 25.4954C5.4796 25.5415 5.4796 25.5876 5.47859 25.6339C5.47859 25.648 5.47859 25.6614 5.47859 25.6758C5.47755 25.9349 5.48781 26.1933 5.49605 26.4507C5.49605 26.4618 5.4981 26.4742 5.4981 26.4853C5.50016 26.5316 5.50221 26.5776 5.5053 26.6238C5.51452 26.8104 5.52996 26.9967 5.54947 27.1833C5.56283 27.3094 5.5772 27.4366 5.59365 27.5625C5.5957 27.5809 5.59879 27.5984 5.60084 27.6168C5.63579 27.8732 5.67586 28.1283 5.72619 28.3813C5.81968 28.8548 5.94402 29.3202 6.11455 29.7722C6.11765 29.7793 6.12071 29.7874 6.1238 29.7957C6.2512 30.1297 6.39913 30.4548 6.581 30.7642C6.87997 31.2736 7.24471 31.7246 7.71014 32.0841C7.76562 32.1273 7.82214 32.1683 7.87967 32.2092C7.93514 32.2472 7.99475 32.282 8.05228 32.3169C8.06254 32.324 8.07488 32.3291 8.08619 32.3344C8.0944 32.3384 8.10261 32.3415 8.11082 32.3455C8.12522 32.3528 8.13857 32.3619 8.14782 32.3753C8.15089 32.3794 8.15398 32.3854 8.15707 32.3918V32.3897C8.17248 32.3875 8.18584 32.3908 8.19304 32.4072H8.19405C8.20844 32.4072 8.2218 32.4112 8.229 32.4244C8.2331 32.4244 8.23617 32.4244 8.23926 32.4254H8.2403C8.24955 32.4277 8.25776 32.4317 8.26392 32.4408C8.26392 32.4408 8.26392 32.4408 8.26392 32.4418C8.26392 32.4418 8.26597 32.4418 8.26699 32.4418C8.26907 32.4418 8.27112 32.4418 8.27317 32.4418C8.27522 32.4418 8.27624 32.4428 8.27933 32.4428C8.28034 32.4428 8.28242 32.4428 8.28344 32.4438C8.28551 32.4438 8.28754 32.4461 8.28959 32.4471C8.28959 32.4471 8.29165 32.4471 8.29269 32.4481C8.29474 32.4502 8.29679 32.4522 8.29884 32.4542C8.29884 32.4542 8.29884 32.4542 8.29988 32.4542C8.3194 32.4747 8.34611 32.4797 8.37077 32.4911C8.88346 32.7176 9.39717 32.9441 9.90987 33.1706C10.1636 33.2824 10.4153 33.4002 10.6835 33.474C10.9516 33.5478 11.2239 33.5979 11.5023 33.6093C11.5486 33.6093 11.5948 33.6093 11.641 33.6093C11.7797 33.6093 11.9185 33.6093 12.0572 33.6093C12.1917 33.6052 12.3253 33.5878 12.4578 33.5673C12.9972 33.4861 13.5151 33.3274 14.0154 33.1133C14.9319 32.7207 15.759 32.1847 16.5346 31.5646C16.7052 31.4283 16.8717 31.288 17.0371 31.1455C17.6135 31.1558 18.1888 31.1588 18.7652 31.1525C19.3138 31.1465 19.8635 31.1374 20.4121 31.1156C20.4389 31.1005 20.4676 31.1005 20.4964 31.1116C20.5046 31.1116 20.5128 31.1116 20.521 31.1116C20.5539 31.0962 20.5878 31.0972 20.6217 31.1075H20.6464C20.6659 31.0951 20.6865 31.0931 20.707 31.0972C20.707 31.0972 20.708 31.0972 20.7091 31.0972H20.7101C20.7173 31.0994 20.7235 31.1015 20.7296 31.1035H20.7543C20.7676 31.0951 20.781 31.0921 20.7943 31.0911C20.8087 31.0911 20.8231 31.0941 20.8385 31.0984C20.8467 31.0984 20.855 31.0984 20.8632 31.0984C20.8724 31.0931 20.8817 31.0901 20.8909 31.0881C20.9094 31.084 20.9289 31.086 20.9485 31.0931C20.9567 31.0931 20.9639 31.0931 20.9721 31.0931C20.9721 31.0931 20.9741 31.0931 20.9752 31.0921C21.0019 31.079 21.0296 31.079 21.0563 31.0891C21.0646 31.0891 21.0728 31.0891 21.08 31.0891C21.1077 31.0716 21.1354 31.0737 21.1652 31.084C21.1735 31.084 21.1817 31.084 21.1889 31.084C21.2166 31.0676 21.2454 31.0696 21.2741 31.079C21.2824 31.079 21.2906 31.079 21.2978 31.079C21.3039 31.0747 21.3091 31.0726 21.3142 31.0706C21.3235 31.0676 21.3317 31.0676 21.3409 31.0676C21.3492 31.0676 21.3584 31.0696 21.3666 31.0737C21.492 31.0676 21.6163 31.0635 21.7416 31.0562C22.7012 30.9998 23.6578 30.924 24.6133 30.8186C26.064 30.6575 27.5055 30.4414 28.9295 30.1176C29.8994 29.8971 30.8559 29.6327 31.7807 29.2608C32.2769 29.0608 32.7586 28.8323 33.2047 28.533C33.4728 28.3527 33.7214 28.1497 33.9206 27.8904C34.0461 27.7255 34.1477 27.5481 34.1867 27.3413C34.2022 27.3249 34.2083 27.3054 34.2093 27.2849C34.2187 27.1363 34.2237 26.9886 34.2103 26.84L34.2022 26.841ZM21.3235 23.706C21.0563 23.6896 20.7902 23.6752 20.5231 23.664C20.7902 23.6763 21.0563 23.6906 21.3235 23.706ZM15.3983 28.5444C15.3552 28.5823 15.312 28.6212 15.2689 28.6591C14.9658 28.9246 14.6535 29.1756 14.3277 29.4105C14.0021 29.6441 13.664 29.8612 13.3106 30.0551C13.2603 30.0827 13.2089 30.1102 13.1575 30.137C13.0394 30.1985 12.9202 30.2569 12.8 30.3132C12.6798 30.3686 12.5575 30.4199 12.4342 30.4679C12.1876 30.5643 11.9349 30.6444 11.6739 30.7058C11.5609 30.7324 11.4479 30.7549 11.3349 30.7723C11.2948 30.7786 11.2547 30.7847 11.2157 30.7908C11.0616 30.8112 10.9075 30.8236 10.7523 30.8277C10.701 30.8287 10.6486 30.8297 10.5972 30.8287C10.5448 30.8287 10.4934 30.8267 10.441 30.8246C10.4184 30.8236 10.3968 30.8206 10.3742 30.8186C10.3527 30.8166 10.3301 30.8135 10.3075 30.8112C10.2787 30.8092 10.2571 30.7971 10.2356 30.7786C10.1739 30.7233 10.1153 30.6659 10.0578 30.6065C9.97252 30.5182 9.89134 30.426 9.81531 30.3307C9.76498 30.2672 9.71566 30.2015 9.6684 30.134C9.64478 30.1001 9.62217 30.0662 9.59956 30.0324C9.59751 30.0293 9.59647 30.0263 9.59546 30.0233C9.59442 30.0182 9.59237 30.0119 9.59135 30.0068C9.5821 29.9977 9.56976 29.9884 9.56259 29.9783L9.56051 29.976C9.4547 29.8091 9.35916 29.637 9.27284 29.4595C9.2297 29.3703 9.1886 29.2823 9.15058 29.191C9.11153 29.1008 9.07559 29.0085 9.04168 28.9152C9.03758 28.9041 9.03859 28.8927 9.03654 28.8806C8.97696 28.7699 8.94715 28.6488 8.91018 28.531C8.82796 28.2676 8.76324 28.0001 8.70981 27.7296C8.70056 27.6813 8.69134 27.6343 8.68209 27.586C8.67795 27.5665 8.6759 27.5481 8.6718 27.5286C8.66769 27.5051 8.66255 27.4816 8.65844 27.4581C8.65844 27.4518 8.65844 27.4467 8.65639 27.4406C8.65434 27.4202 8.65332 27.3987 8.65127 27.3779C8.61632 27.2275 8.60091 27.0736 8.58345 26.9199C8.52384 26.4302 8.50126 25.9382 8.50022 25.4462C8.50022 25.2607 8.50228 25.0742 8.50742 24.8876C8.51049 24.777 8.51563 24.6673 8.52179 24.5576C8.92764 24.4613 9.33655 24.3762 9.74648 24.2984C10.4472 24.1661 11.152 24.0585 11.8588 23.9714C11.8701 23.9704 11.8815 23.9684 11.8928 23.9673C11.9061 23.9653 11.9195 23.9643 11.9328 23.9653C11.9411 23.9653 11.9493 23.9673 11.9575 23.9694C12.0674 23.9458 12.1794 23.9335 12.2914 23.9222C12.3428 23.9171 12.3941 23.912 12.4445 23.9068C13.2212 23.8208 13.999 23.7552 14.7778 23.708C14.9966 23.6947 15.2154 23.6824 15.4332 23.6722C15.9922 23.6455 16.5511 23.6281 17.11 23.6178C17.4162 23.6117 17.7224 23.6086 18.0285 23.6086C18.4652 23.6086 18.9018 23.6137 19.3375 23.624C19.2429 23.7808 19.1474 23.9376 19.0498 24.0924C18.9789 24.2061 18.907 24.3188 18.834 24.4305C18.7035 24.6304 18.571 24.8282 18.4354 25.025C18.1847 25.3878 17.9247 25.7433 17.6545 26.0919C17.5693 26.2027 17.483 26.3121 17.3946 26.4208C17.3792 26.4403 17.3638 26.4598 17.3484 26.4782C17.221 26.636 17.0915 26.7909 16.959 26.9436C16.7381 27.1987 16.511 27.4477 16.2778 27.6917C16.2069 27.7655 16.136 27.8393 16.0641 27.9121C15.8792 28.0984 15.688 28.281 15.4929 28.4582C15.461 28.487 15.4291 28.5166 15.3973 28.5454L15.3983 28.5444ZM16.4381 28.4951C16.6641 28.5024 16.8912 28.5085 17.1172 28.5125C16.8901 28.5085 16.6641 28.5024 16.4381 28.4951ZM31.379 26.095C31.3726 26.1031 31.3625 26.1114 31.346 26.1235C31.3245 26.14 31.3029 26.1574 31.2801 26.1728C31.2586 26.1893 31.236 26.2047 31.2135 26.2209C31.1714 26.2507 31.1281 26.2795 31.084 26.3071C31.0789 26.3101 31.0736 26.3131 31.0685 26.3174C31.0325 26.3399 30.9965 26.3624 30.9595 26.3839C30.9053 26.4168 30.8518 26.4474 30.7963 26.4782C30.4202 26.6873 30.0246 26.8554 29.6209 27.004C29.2397 27.1433 28.8535 27.2654 28.464 27.3739C27.9062 27.5296 27.341 27.6588 26.7708 27.7716C26.217 27.8823 25.6613 27.9756 25.1033 28.0565C24.5455 28.1374 23.9855 28.2051 23.4246 28.2635C23.2406 28.283 23.0567 28.3004 22.8728 28.3179C22.504 28.3517 22.1351 28.3803 21.7663 28.4051C21.5814 28.4172 21.3964 28.4286 21.2125 28.4387C20.7984 28.4625 20.3844 28.4799 19.9704 28.4931C19.8953 28.4951 19.8203 28.4984 19.7443 28.5004C19.6755 28.5024 19.6066 28.5044 19.5368 28.5065C19.7063 28.2974 19.8758 28.0893 20.031 27.8689C20.0536 27.8413 20.0762 27.8135 20.0978 27.785C20.4296 27.339 20.7481 26.885 21.0543 26.4229C21.0707 26.3973 21.156 26.2681 21.1817 26.2282C21.3759 25.9299 21.5639 25.6286 21.7478 25.3232C22.0478 24.8231 22.3344 24.3158 22.6067 23.8013C23.1266 23.8464 23.6454 23.8987 24.1643 23.9622C24.2023 23.9663 24.2403 23.9745 24.2794 23.9806C24.5116 23.997 24.7417 24.0319 24.9708 24.0657C25.2657 24.1088 25.5606 24.1559 25.8544 24.2051C26.251 24.2717 26.6476 24.3455 27.0409 24.4305C27.2538 24.4767 27.4654 24.5238 27.6781 24.5699C27.6801 24.5699 27.6831 24.5699 27.6852 24.571C27.6872 24.571 27.6895 24.571 27.6925 24.572C27.7057 24.574 27.7212 24.574 27.7356 24.5761C27.7541 24.5781 27.7726 24.5833 27.7871 24.5986C28.2412 24.7144 28.6941 24.8364 29.1391 24.9829C29.1802 24.9963 29.2273 25.0004 29.2592 25.0352C29.3753 25.0557 29.4813 25.1039 29.59 25.1439C29.6858 25.1787 29.7813 25.2156 29.8758 25.2535C30.146 25.3601 30.4111 25.478 30.6678 25.6144C30.7695 25.6675 30.8693 25.7239 30.9679 25.7833C31.0984 25.8624 31.2256 25.9453 31.345 26.0406C31.38 26.0682 31.3901 26.0796 31.3767 26.096L31.379 26.095Z" fill="#C4C4C4"/>
<path d="M34.2113 18.7089C34.1991 18.4639 34.1056 18.2477 33.9627 18.0509C33.7614 17.7711 33.5014 17.5528 33.2198 17.3602C32.7401 17.0322 32.215 16.7914 31.6777 16.5761C31.3786 16.4562 31.0758 16.3497 30.7694 16.2513C30.3031 16.1016 29.8294 15.9735 29.3537 15.8567C28.7589 15.7112 28.1608 15.5851 27.5589 15.4754C27.1919 15.4088 26.8242 15.3443 26.4555 15.291C26.4441 15.291 26.4326 15.29 26.4215 15.2889C26.4154 15.2889 26.4081 15.2879 26.402 15.2869C26.3885 15.2858 26.3741 15.2838 26.3609 15.2828C26.33 15.2787 26.2981 15.2725 26.2684 15.2654C26.1584 15.2479 26.0495 15.2305 25.9397 15.2121C25.8759 15.2028 25.8122 15.1936 25.7486 15.1854C25.7238 15.1813 25.6992 15.1782 25.6746 15.1752C25.4207 15.1444 25.166 15.1147 24.9122 15.0819C24.8382 15.0727 24.7642 15.0665 24.6903 15.0583C24.6163 15.0512 24.5423 15.0419 24.4694 15.0276C23.9762 14.9815 23.483 14.9323 22.9888 14.8923C22.92 14.8872 22.8512 14.881 22.7823 14.8759C22.357 14.8421 21.9316 14.8134 21.5052 14.7929C21.3008 14.7837 21.0953 14.7724 20.8898 14.7621C20.7347 14.755 20.5785 14.7468 20.4234 14.7406C20.0679 14.7273 19.7134 14.7191 19.3579 14.7119C19.2254 14.7088 19.0929 14.7068 18.9614 14.7048C18.9614 14.7048 19.2049 13.727 19.3025 13.2331C19.3764 12.8631 19.4401 12.491 19.4966 12.118C19.5336 11.8679 19.5665 11.6179 19.5953 11.3668C19.6251 11.1044 19.6487 10.841 19.6651 10.5766C19.6826 10.2948 19.6939 10.0119 19.7001 9.73009C19.7073 9.35192 19.695 8.97476 19.6672 8.59761C19.6487 8.34857 19.6251 8.10055 19.5932 7.85255C19.5501 7.51332 19.4884 7.17818 19.4073 6.84612C19.3425 6.58068 19.2685 6.31627 19.1699 6.06006C19.1648 6.06006 19.1596 6.06006 19.1545 6.06211C19.1494 6.06211 19.1442 6.06415 19.1401 6.06519C19.1237 6.0703 19.1093 6.07851 19.0939 6.08466C18.6624 6.26503 18.2545 6.48947 17.861 6.73954C17.8384 6.7539 17.8137 6.76517 17.8045 6.79283C17.899 7.38828 17.9432 7.98679 17.9483 8.58942C17.9566 9.45132 17.8928 10.3081 17.7747 11.1618C17.6853 11.8044 17.5671 12.4419 17.4233 13.0752C17.299 13.6246 17.1551 14.1688 16.9949 14.7078C16.6076 14.7119 16.2192 14.7242 15.8318 14.7365C15.3161 14.7539 14.8003 14.7775 14.2856 14.8103C13.8314 14.839 13.3763 14.8687 12.9222 14.9077C12.3324 14.9589 11.7437 15.0163 11.1571 15.088C11.0163 15.3791 10.8797 15.6722 10.7481 15.9674C10.5519 16.4081 10.367 16.8529 10.1934 17.3018C10.2016 17.3007 10.2088 17.2997 10.217 17.2987C10.9023 17.2023 11.5906 17.1224 12.279 17.0537C12.4763 17.0343 12.6735 17.0107 12.8718 16.9933C13.3609 16.9523 13.851 16.9246 14.341 16.8939C14.9781 16.8529 15.6161 16.8272 16.2551 16.8088C16.2634 16.8088 16.2705 16.8088 16.2788 16.8088C16.8223 16.7934 17.3658 16.7862 17.9103 16.7852C18.0469 16.7852 18.1836 16.7852 18.3213 16.7862C18.6316 16.7873 18.9429 16.7903 19.2531 16.7955C19.6056 16.8016 19.9569 16.8149 20.3093 16.8272C20.3124 16.8272 20.3155 16.8272 20.3186 16.8272C20.6556 16.8395 20.9926 16.8518 21.3296 16.8682C21.5885 16.8805 21.8474 16.899 22.1063 16.9185C22.1618 16.9226 22.2173 16.9267 22.2727 16.9307C22.6611 16.9584 23.0485 16.9871 23.4368 17.0169C23.5324 17.024 23.6269 17.0373 23.7224 17.0466C24.2361 17.0917 24.7488 17.149 25.2605 17.2146C25.4896 17.2433 25.7177 17.2741 25.9468 17.3048C26.4286 17.3715 26.9096 17.4514 27.3883 17.5344C27.8496 17.6154 28.3098 17.7066 28.766 17.8101C29.1677 17.9013 29.5674 18.0007 29.964 18.1083C30.485 18.2497 30.9965 18.4147 31.5021 18.6013C31.9387 18.7632 32.361 18.9538 32.77 19.1762C33.0513 19.33 33.3184 19.5021 33.562 19.7112C33.783 19.9008 33.9761 20.114 34.1046 20.3804C34.1558 20.486 34.1796 20.5998 34.2123 20.7104C34.2136 20.4901 34.2156 20.2698 34.2166 20.0494C34.2166 19.7225 34.2166 19.3945 34.2166 19.0676C34.2166 18.9487 34.2207 18.8288 34.2146 18.711L34.2113 18.7089Z" fill="#ABABAB"/>
<path d="M21.2422 3.07454C21.1631 3.04893 21.0819 3.03048 21.0059 2.99461C21.0059 2.98437 21.0069 2.97411 21.0079 2.96387C21.1024 2.99256 21.1918 3.03253 21.2751 3.08582C21.2638 3.08172 21.2524 3.07864 21.2411 3.07454H21.2422Z" fill="#404A5A"/>
<path d="M20.9667 2.97826C20.9667 2.97826 20.9741 2.98144 20.9762 2.98459C20.9762 2.98459 20.9752 2.98459 20.9741 2.98459C20.9656 2.98987 20.9603 2.98566 20.9551 2.97826C20.9593 2.97722 20.9625 2.97616 20.9667 2.97826Z" fill="#404A5A"/>
<path d="M11.414 8.93994C11.414 8.93994 11.4119 8.94824 11.4088 8.95133C11.4088 8.95133 11.4078 8.95237 11.4067 8.9534C11.4047 8.95549 11.4015 8.95651 11.3984 8.95651C11.3984 8.95549 11.3984 8.95444 11.3984 8.9534V8.95031C11.3984 8.95031 11.4047 8.9441 11.4078 8.94203C11.4099 8.94203 11.4119 8.93994 11.414 8.93994Z" fill="#404A5A"/>
<path d="M11.8376 8.40226C11.8376 8.40226 11.8304 8.40951 11.8262 8.41158C11.8211 8.41467 11.8159 8.41674 11.8086 8.41881C11.8086 8.41467 11.8086 8.41158 11.8086 8.40847C11.8086 8.40535 11.8086 8.40226 11.8096 8.40019C11.8117 8.39501 11.8138 8.38983 11.8169 8.38569C11.82 8.38156 11.8252 8.37844 11.8293 8.37431C11.8345 8.37122 11.8397 8.3681 11.8449 8.36499C11.846 8.37224 11.846 8.37844 11.8449 8.38465C11.8449 8.38983 11.8418 8.39294 11.8397 8.39708C11.8397 8.39813 11.8376 8.40019 11.8376 8.40122V8.40226Z" fill="#404A5A"/>
<path d="M11.9986 8.1856C11.9986 8.1856 11.9966 8.1856 11.9966 8.18665C11.9955 8.18665 11.9935 8.18665 11.9924 8.18665C11.9914 8.18665 11.9904 8.18665 11.9883 8.18665C11.9935 8.18045 11.9986 8.1732 12.0038 8.16699C12.0038 8.16906 12.0038 8.17008 12.0038 8.17215C12.0038 8.17733 12.0018 8.18045 11.9976 8.18354L11.9986 8.1856Z" fill="#215CB5"/>
<path d="M12.082 8.0596C12.082 8.05441 12.0862 8.05028 12.0903 8.04821C12.0924 8.04821 12.0945 8.04716 12.0965 8.04614C12.0965 8.04923 12.0955 8.05028 12.0945 8.05235C12.0945 8.05441 12.0945 8.05648 12.0924 8.05855C12.0924 8.0596 12.0903 8.06062 12.0893 8.06166C12.0872 8.06271 12.0841 8.06373 12.082 8.06478C12.082 8.06271 12.082 8.06166 12.082 8.0596Z" fill="#215CB5"/>
<path d="M19.375 2.25372C19.3945 2.24553 19.4069 2.25372 19.4182 2.2691C19.4007 2.2732 19.3822 2.2773 19.375 2.25475V2.25372Z" fill="#FEC35E"/>
<path d="M19.373 2.25366H19.3747L19.373 2.25532V2.25366Z" fill="#FDBF41"/>
<path d="M14.5059 5.47919C14.5121 5.47403 14.5173 5.46885 14.5235 5.46265C14.5235 5.46367 14.5235 5.46574 14.5235 5.46678C14.5235 5.47092 14.5214 5.47299 14.5193 5.4761H14.5183C14.5183 5.4761 14.5121 5.47919 14.5059 5.47919Z" fill="#404A5A"/>
<path d="M14.627 5.35807C14.6323 5.35489 14.6387 5.35278 14.6461 5.35278C14.6461 5.36228 14.644 5.36757 14.6397 5.36967C14.6334 5.37389 14.6217 5.37074 14.6133 5.37178C14.6175 5.36546 14.6217 5.36124 14.627 5.35807Z" fill="#404A5A"/>
<path d="M14.7041 5.30665C14.7041 5.30665 14.702 5.31492 14.6989 5.31804C14.6989 5.31804 14.6968 5.31906 14.6958 5.32011C14.6937 5.32113 14.6906 5.32217 14.6875 5.32217C14.6927 5.31594 14.6989 5.30872 14.7041 5.30249C14.7041 5.30458 14.7041 5.3056 14.7041 5.30767V5.30665Z" fill="#404A5A"/>
<path d="M15.7217 4.50115C15.7217 4.50115 15.7196 4.50528 15.7186 4.50735C15.7154 4.51046 15.7113 4.51149 15.7051 4.51149C15.7102 4.50528 15.7165 4.5001 15.7227 4.4939C15.7227 4.49701 15.7227 4.49908 15.7227 4.50219L15.7217 4.50115Z" fill="#404A5A"/>
<path d="M15.7041 4.51245C15.7041 4.51245 15.7041 4.51557 15.7041 4.51659C15.7041 4.52072 15.702 4.52282 15.6999 4.52384C15.6979 4.52488 15.6958 4.52488 15.6916 4.52384C15.6906 4.52384 15.6885 4.52384 15.6875 4.52177C15.6937 4.51865 15.6989 4.51557 15.7051 4.51245H15.7041Z" fill="#404A5A"/>
<path d="M21.0004 2.95879C20.4929 2.73331 19.9843 2.50887 19.4768 2.28237C19.4562 2.27315 19.4357 2.28032 19.4172 2.26905C19.3997 2.27315 19.3812 2.27725 19.374 2.2547C19.3535 2.26392 19.334 2.2547 19.3144 2.24753C18.8696 2.11429 18.4144 2.0733 17.9511 2.09687C17.3377 2.12864 16.75 2.27827 16.1788 2.49862C15.9989 2.56728 15.8222 2.64312 15.6496 2.72409C15.6065 2.74458 15.5633 2.76508 15.5202 2.7866C15.4698 2.8112 15.4195 2.8358 15.3702 2.86245C15.3034 2.89627 15.2376 2.93111 15.1708 2.96698C14.8246 3.15555 14.4886 3.36565 14.1629 3.59112C14.0951 3.63827 14.0273 3.68542 13.9606 3.73358L13.9205 3.76227C13.7602 3.87911 13.603 3.99798 13.4489 4.12097C13.0626 4.42742 12.6917 4.7533 12.3331 5.09459C11.3375 6.04259 10.4529 7.08897 9.64334 8.19788C9.62279 8.22658 9.60223 8.25631 9.58171 8.285C9.58171 8.285 9.57966 8.29215 9.57758 8.29423C9.57552 8.29627 9.57246 8.29729 9.56835 8.29832C9.49539 8.40182 9.42346 8.50431 9.35053 8.60783C9.22928 8.78001 9.11012 8.95217 8.99298 9.12744C8.88203 9.29345 8.77209 9.46154 8.6642 9.6296C8.57791 9.76285 8.49367 9.89709 8.41044 10.0324C8.33646 10.1533 8.26249 10.2732 8.18955 10.3942C8.08681 10.5653 7.98508 10.7375 7.88439 10.9117C7.83406 10.9988 7.78474 11.0849 7.73542 11.173C7.73028 11.1833 7.7231 11.1925 7.71692 11.2028C7.71692 11.214 7.71282 11.2232 7.70871 11.2325C7.7046 11.2386 7.7005 11.2458 7.69741 11.252C7.65118 11.3339 7.60597 11.417 7.56076 11.5C7.39022 11.8105 7.22377 12.1241 7.06349 12.4398C6.99568 12.573 6.9289 12.7073 6.86313 12.8415C6.50766 13.5671 6.17785 14.304 5.87477 15.0511C5.71346 15.4477 5.56038 15.8474 5.41448 16.2492C5.33741 16.4624 5.26138 16.6765 5.18844 16.8918C5.05384 17.2894 4.93055 17.6901 4.81035 18.0919C4.76103 18.2569 4.71275 18.4229 4.66652 18.5889C4.66548 18.5931 4.66447 18.5971 4.66343 18.6012C4.59049 18.8616 4.52267 19.1229 4.45899 19.3853C4.40042 19.621 4.3439 19.8577 4.29152 20.0955C4.24631 20.2984 4.2052 20.5024 4.16412 20.7063C4.15487 20.7545 4.14562 20.8026 4.13637 20.8518C4.13226 20.8713 4.12917 20.8908 4.12506 20.9103C4.12402 20.9174 4.12197 20.9246 4.12096 20.9328C4.11376 20.9717 4.10555 21.0097 4.09835 21.0486C4.03978 21.3674 3.9874 21.6871 3.94219 22.0089C3.89801 22.3194 3.85896 22.629 3.82609 22.9405C3.81889 23.0102 3.81273 23.0799 3.80553 23.1496C3.80553 23.1547 3.80449 23.1598 3.80449 23.165C3.79938 23.2182 3.79628 23.2562 3.79218 23.2941C3.77778 23.4673 3.76547 23.6415 3.7552 23.8147C3.74491 23.9889 3.7367 24.1632 3.73156 24.3374C3.73156 24.3599 3.73156 24.3825 3.7295 24.405C3.71924 24.7402 3.71719 25.0743 3.72745 25.4084C3.73772 25.7239 3.7552 26.0387 3.78498 26.3534C3.81375 26.6669 3.85381 26.9796 3.90828 27.292C3.93499 27.4447 3.96375 27.5964 3.99662 27.7471C4.10555 28.2555 4.25246 28.7535 4.45384 29.2353C4.46821 29.269 4.48157 29.3018 4.497 29.3357C4.51137 29.3686 4.52678 29.4022 4.54117 29.435C4.5761 29.5129 4.6131 29.5898 4.65111 29.6656C4.7148 29.7928 4.78262 29.9166 4.85454 30.0377C5.05179 30.3697 5.28399 30.6783 5.55934 30.9569C5.63127 31.0307 5.70626 31.1005 5.78333 31.167C5.92819 31.2931 6.0823 31.4089 6.24668 31.5126C6.27752 31.532 6.31346 31.5432 6.33606 31.573C6.33916 31.577 6.34225 31.5821 6.3443 31.5872C6.35971 31.5841 6.37101 31.5872 6.37512 31.6036C6.43881 31.619 6.49018 31.662 6.54875 31.6878C6.86108 31.826 7.17239 31.9643 7.48473 32.1029C7.66248 32.1817 7.84126 32.2586 8.02003 32.3365L8.04263 32.316C7.98508 32.2801 7.9255 32.2462 7.87002 32.2083C7.81145 32.1683 7.75597 32.1264 7.7005 32.0834C7.23507 31.7227 6.87033 31.2727 6.57135 30.7633C6.38949 30.4538 6.24156 30.129 6.11416 29.7948C6.11107 29.7867 6.10797 29.7794 6.10491 29.7713C5.93435 29.3193 5.81004 28.8539 5.71655 28.3804C5.66619 28.1273 5.62612 27.8722 5.5912 27.6159C5.58915 27.5974 5.58605 27.58 5.584 27.5615C5.56755 27.4356 5.55318 27.3085 5.53983 27.1823C5.52029 26.996 5.50592 26.8105 5.49565 26.6229C5.49358 26.5766 5.49051 26.5306 5.48846 26.4846C5.48846 26.4732 5.48742 26.4608 5.4864 26.4497C5.47715 26.1913 5.4679 25.933 5.46892 25.6749C5.46892 25.6605 5.46892 25.6461 5.46892 25.6329C5.46892 25.5867 5.46892 25.5406 5.471 25.4945C5.47715 25.2915 5.48331 25.0896 5.49152 24.8877C5.49565 24.7863 5.50077 24.6859 5.50693 24.5844C5.51312 24.4829 5.51927 24.3825 5.52647 24.281C5.55318 23.9275 5.58915 23.5759 5.63228 23.2244C5.64769 23.0963 5.66414 22.9692 5.68264 22.8411C5.70215 22.6986 5.72372 22.5562 5.74633 22.4148C5.76381 22.303 5.78229 22.1913 5.8018 22.0796C5.82339 21.9525 5.84701 21.8265 5.87066 21.6994C5.90044 21.5395 5.93229 21.3807 5.96516 21.2208C6.00318 21.0394 6.04223 20.857 6.08332 20.6766C6.12032 20.5157 6.15833 20.3548 6.1984 20.1939C6.24257 20.0166 6.28779 19.8393 6.33505 19.663C6.34635 19.622 6.35867 19.581 6.37101 19.54C6.38333 19.499 6.39567 19.458 6.40594 19.417C6.4275 19.3309 6.44499 19.2449 6.47581 19.1608C6.483 19.1516 6.49431 19.1424 6.49532 19.1321C6.51998 18.9292 6.59292 18.7396 6.65559 18.549C6.68334 18.4639 6.71006 18.3778 6.73677 18.2917C6.77374 18.1718 6.81074 18.0519 6.84876 17.932C6.87958 17.8336 6.91143 17.7352 6.94534 17.6379C6.9587 17.5999 6.97102 17.561 6.98437 17.5221C7.00183 17.4729 7.01932 17.4237 7.03678 17.3745C7.11076 17.1695 7.18266 16.9635 7.25767 16.7585C7.28849 16.6745 7.32035 16.5894 7.35221 16.5054C7.46212 16.2174 7.57515 15.9315 7.69226 15.6476C7.72516 15.5666 7.75904 15.4867 7.79295 15.4067C7.8207 15.3422 7.84741 15.2786 7.87413 15.2141C7.93989 15.0624 8.00667 14.9107 8.07345 14.759C8.12583 14.6401 8.17926 14.5223 8.23372 14.4034C8.27483 14.3122 8.31695 14.223 8.35907 14.1318C8.47208 13.8899 8.58716 13.6501 8.70736 13.4113C8.72792 13.3693 8.75258 13.3293 8.7762 13.2894C8.79984 13.2494 8.82346 13.2084 8.84401 13.1654C9.19332 12.4265 9.60327 11.7203 10.0255 11.0214C10.0636 10.9588 10.1005 10.8963 10.1386 10.8338C10.2269 10.6883 10.3112 10.5407 10.4108 10.4044C10.4735 10.3193 10.531 10.2332 10.5885 10.1451C10.6461 10.058 10.7026 9.96987 10.7612 9.88377C10.8803 9.71161 10.9913 9.53328 11.1095 9.36006C11.1249 9.33751 11.1403 9.31499 11.1557 9.29244C11.2348 9.17868 11.317 9.06697 11.3971 8.95422C11.3971 8.95321 11.3971 8.95217 11.3971 8.95116V8.94807C11.3971 8.94807 11.4033 8.94193 11.4064 8.93988C11.4084 8.93988 11.4105 8.93783 11.4125 8.93783C11.5286 8.78206 11.6447 8.62525 11.7608 8.46947C11.766 8.46229 11.7721 8.45615 11.7773 8.45C11.7804 8.44692 11.7824 8.44384 11.7845 8.44179C11.7917 8.4336 11.7988 8.42642 11.806 8.41823C11.806 8.41413 11.806 8.41105 11.806 8.40799C11.806 8.4049 11.806 8.40182 11.8071 8.39977C11.8091 8.39363 11.8112 8.38953 11.8143 8.38544C11.8173 8.38132 11.8225 8.37826 11.8266 8.37416C11.8317 8.37108 11.8369 8.36799 11.842 8.36493C11.8451 8.36185 11.8471 8.35879 11.8492 8.35571C11.8944 8.29933 11.9406 8.24298 11.9859 8.18661C11.991 8.18047 11.9961 8.17329 12.0013 8.16714C12.0013 8.16302 12.0033 8.15996 12.0054 8.15587C12.0064 8.15278 12.0085 8.14869 12.0105 8.1456C12.0146 8.13946 12.0198 8.13332 12.0249 8.12819C12.0249 8.12717 12.0269 8.12614 12.028 8.1251C12.0475 8.10667 12.0721 8.0913 12.0773 8.06362C12.0773 8.06157 12.0773 8.06054 12.0773 8.05849C12.0773 8.05338 12.0814 8.04926 12.0855 8.04721C12.0876 8.04721 12.0896 8.0462 12.0917 8.04517C12.105 8.03493 12.1174 8.02469 12.1276 8.01238C12.1307 8.00929 12.1328 8.00623 12.1348 8.00419C12.143 7.99496 12.1502 7.9847 12.1574 7.97446C12.1667 7.96113 12.1759 7.94678 12.1852 7.93244C12.1923 7.92218 12.1995 7.91093 12.2067 7.90066C12.2119 7.89349 12.217 7.88633 12.2222 7.88016C12.2571 7.83714 12.293 7.79408 12.328 7.75207C12.5746 7.45179 12.8283 7.15867 13.0893 6.87171C13.2937 6.64624 13.5054 6.42794 13.7191 6.21169C13.7561 6.17377 13.7941 6.13585 13.8311 6.09897C13.901 6.02927 13.9739 5.96471 14.0458 5.89809C14.0746 5.87145 14.1034 5.84581 14.1311 5.81816C14.1373 5.81303 14.1424 5.80688 14.1486 5.80175C14.238 5.71567 14.3294 5.62957 14.4198 5.5445C14.4219 5.54245 14.4239 5.54144 14.426 5.53939C14.4496 5.51785 14.4763 5.49839 14.501 5.47892C14.5071 5.47379 14.5123 5.46866 14.5184 5.46252C14.5205 5.46047 14.5215 5.45946 14.5236 5.45738C14.5513 5.42869 14.5801 5.40103 14.6078 5.37234C14.6119 5.36617 14.616 5.36208 14.6212 5.35902C14.6263 5.35593 14.6325 5.35389 14.6397 5.35389C14.6479 5.35285 14.6551 5.34875 14.6612 5.34466C14.6653 5.34157 14.6695 5.33748 14.6736 5.33338C14.6767 5.3303 14.6787 5.3262 14.6818 5.32211C14.6869 5.31597 14.6931 5.30879 14.6982 5.30264C14.7712 5.23808 14.8441 5.17452 14.9191 5.11201C14.9304 5.1028 14.9417 5.09358 14.953 5.08331C15.0249 5.02284 15.0979 4.96341 15.1719 4.90397C15.3373 4.77176 15.5078 4.64366 15.6815 4.52272C15.6876 4.51964 15.6928 4.51658 15.699 4.5135H15.7C15.7051 4.50632 15.7113 4.50017 15.7174 4.49504C15.7565 4.46635 15.7965 4.43662 15.8356 4.40896C15.9147 4.35158 15.9959 4.29624 16.076 4.24191C16.1161 4.21527 16.1572 4.18758 16.1983 4.16198C16.2394 4.13533 16.2805 4.10868 16.3216 4.08305C16.4459 4.00516 16.5712 3.92932 16.6986 3.85657C16.8373 3.77663 16.9791 3.69975 17.1209 3.62596C17.5483 3.40665 17.9901 3.22115 18.4524 3.08383C18.4874 3.07356 18.5233 3.06332 18.5583 3.05306C18.8049 2.9844 19.0525 2.93214 19.3042 2.89832C19.447 2.87883 19.5918 2.86551 19.7367 2.85936C19.8456 2.85426 19.9545 2.85322 20.0645 2.8563C20.1014 2.85731 20.1374 2.85835 20.1744 2.8604C20.2843 2.86654 20.3932 2.87782 20.5021 2.89319C20.6532 2.91369 20.8022 2.94238 20.9511 2.9803C20.9552 2.97927 20.9583 2.97826 20.9624 2.9803C20.9665 2.9803 20.9696 2.98339 20.9717 2.98645C20.9747 2.98748 20.9789 2.98849 20.9819 2.98953C20.9891 2.99158 20.9953 2.99363 21.0025 2.99671C21.0025 2.98645 21.0035 2.97621 21.0045 2.96594C21.0025 2.9639 21.0004 2.96185 20.9974 2.96084L21.0004 2.95879Z" fill="#FBFBFB"/>
<path d="M19.3754 2.25381C19.3682 2.22203 19.3374 2.21896 19.3148 2.20871C18.8771 2.01501 18.4395 1.82029 17.9997 1.62864C17.8826 1.5774 17.7696 1.51796 17.6483 1.47696C17.635 1.48515 17.6206 1.48413 17.6062 1.479C17.3052 1.38062 16.9928 1.33143 16.6785 1.31195C16.3898 1.29453 16.1 1.31195 15.8134 1.34987C15.5771 1.38164 15.3449 1.43084 15.1147 1.49233C14.6678 1.61224 14.2383 1.77519 13.8243 1.97914C13.665 2.05806 13.5109 2.14722 13.3537 2.23023C13.3013 2.2579 13.2469 2.2825 13.1965 2.31222C12.7465 2.57971 12.3099 2.86769 11.8958 3.18847C11.792 3.26843 11.6862 3.34632 11.5896 3.43341C11.527 3.48979 11.4664 3.54717 11.3985 3.59637C11.3862 3.60559 11.3729 3.61482 11.3575 3.62405C11.3462 3.63429 11.3348 3.64351 11.3235 3.65274V3.65479C11.3184 3.66811 11.3133 3.68042 11.305 3.68758C11.2999 3.6917 11.2948 3.69375 11.2886 3.69476C11.2855 3.69476 11.2814 3.69476 11.2783 3.69476H11.2763C11.2763 3.69476 11.2701 3.69271 11.266 3.6917C11.2629 3.69375 11.2599 3.69579 11.2578 3.69784C11.2218 3.72345 11.2023 3.76754 11.1694 3.79315C11.1643 3.79724 11.1592 3.80033 11.154 3.80339C11.0677 3.84849 11.0153 3.92946 10.9382 3.9848C10.8643 4.03809 10.8026 4.1088 10.7348 4.17131C10.3988 4.47981 10.0814 4.80673 9.76698 5.13674C9.6704 5.23821 9.58411 5.34682 9.49163 5.45239C9.4382 5.51286 9.37862 5.56615 9.32621 5.62561C9.1834 5.78857 9.0447 5.95562 8.90394 6.11958C8.79915 6.24154 8.70051 6.36761 8.60702 6.49775C8.53304 6.60127 8.44469 6.69352 8.36557 6.79292C8.12618 7.09937 7.89913 7.41499 7.67208 7.72963C7.44809 8.04017 7.24261 8.36302 7.02993 8.68173C6.83884 8.96768 6.66314 9.26386 6.4813 9.55698C6.41449 9.66561 6.35491 9.77834 6.28709 9.88699C6.17099 10.0735 6.06313 10.2652 5.9614 10.4599C5.89772 10.5357 5.8597 10.628 5.8114 10.713C5.71071 10.8913 5.61415 11.0717 5.52682 11.2572C5.49907 11.3167 5.459 11.3669 5.43023 11.4263C5.34906 11.5913 5.26687 11.7563 5.18159 11.9203C4.96893 12.3323 4.78193 12.7556 4.58774 13.1768C4.37712 13.6318 4.19013 14.0981 4.0052 14.5645C3.87986 14.8811 3.75349 15.1978 3.65382 15.5237C3.63737 15.577 3.60655 15.6252 3.58808 15.6775C3.49149 15.9583 3.39491 16.2381 3.30347 16.5199C3.21819 16.7792 3.13806 17.0405 3.06099 17.3019C2.98704 17.554 2.91612 17.8061 2.84833 18.0592C2.71579 18.5502 2.59454 19.0441 2.49078 19.5412C2.46407 19.6734 2.43735 19.8056 2.41167 19.9378C2.32331 20.3877 2.24523 20.8407 2.18153 21.2958C2.12194 21.7283 2.07262 22.1618 2.03358 22.5963C2.03049 22.6363 2.02741 22.6762 2.02433 22.7162C2.00584 22.954 1.99145 23.1928 1.98221 23.4326C1.97091 23.7062 1.96885 23.9799 1.9668 24.2535C1.9668 24.3837 1.98015 24.5148 1.97912 24.6461C1.97707 24.8459 1.99454 25.0447 2.00584 25.2435C2.00995 25.3163 2.01303 25.3901 2.02022 25.4639C2.02125 25.4762 2.0233 25.4895 2.02433 25.5018C2.04796 25.6935 2.06337 25.8861 2.09009 26.0767C2.11577 26.2623 2.14146 26.4478 2.17536 26.6311C2.22468 26.8875 2.27091 27.1436 2.35002 27.3926C2.37468 27.4707 2.38804 27.5526 2.41064 27.6325C2.4579 27.8067 2.51441 27.9788 2.57607 28.1479C2.66545 28.3909 2.7682 28.6288 2.87915 28.8624C3.05072 29.2211 3.2634 29.555 3.51306 29.8647C3.74936 30.1587 4.01957 30.4181 4.32884 30.6353C4.34118 30.6446 4.35454 30.6527 4.36789 30.661C4.39047 30.6752 4.41308 30.6896 4.43568 30.704C4.44803 30.7121 4.46138 30.7205 4.47474 30.7285C4.51787 30.7553 4.56002 30.7829 4.6011 30.8127C4.6011 30.8127 4.60214 30.8127 4.60315 30.8137C4.6155 30.8228 4.62781 30.8322 4.64016 30.8423C4.64016 30.8443 4.64221 30.8464 4.64322 30.8486C4.65042 30.8587 4.66481 30.8598 4.67612 30.8648C5.21035 31.1007 5.7436 31.3363 6.27787 31.5721C6.29943 31.5812 6.31999 31.5957 6.34566 31.5896C6.34259 31.5843 6.34054 31.5802 6.33745 31.5752C6.31484 31.5453 6.27888 31.5342 6.24806 31.5148C6.0847 31.4111 5.92957 31.2953 5.78468 31.1692C5.70764 31.1027 5.63263 31.0319 5.56073 30.9591C5.28537 30.6805 5.05318 30.3708 4.8559 30.0399C4.78398 29.9191 4.71618 29.7949 4.65247 29.6678C4.61446 29.5919 4.57748 29.5151 4.54253 29.4372C4.52712 29.4034 4.51275 29.3707 4.49836 29.3369C4.48399 29.303 4.46959 29.2701 4.4552 29.2365C4.25385 28.7547 4.10795 28.2566 3.99801 27.7483C3.96514 27.5976 3.93637 27.4459 3.90966 27.2932C3.85624 26.9818 3.81614 26.6691 3.78636 26.3546C3.75656 26.0408 3.7391 25.7253 3.72883 25.4096C3.71855 25.0755 3.7206 24.7403 3.73089 24.4062C3.7319 24.3837 3.7319 24.3611 3.73294 24.3386C3.7391 24.1644 3.74731 23.9901 3.75656 23.8159C3.76685 23.6427 3.77917 23.4685 3.79356 23.2953C3.79663 23.2574 3.80073 23.2194 3.80588 23.1662C3.80588 23.161 3.80692 23.1559 3.80692 23.1508C3.81308 23.0811 3.81923 23.0114 3.82745 22.9417C3.8593 22.6301 3.89937 22.3196 3.94354 22.0101C3.98979 21.6883 4.04218 21.3685 4.09973 21.0498C4.10691 21.0109 4.11514 20.9729 4.12231 20.934C4.12335 20.9268 4.12541 20.9197 4.12645 20.9114C4.13055 20.892 4.13362 20.8725 4.13775 20.853C4.14697 20.8038 4.15622 20.7557 4.16547 20.7075C4.20554 20.5035 4.24766 20.2996 4.29288 20.0967C4.34529 19.8589 4.40178 19.6222 4.46034 19.3865C4.52507 19.1241 4.59289 18.8628 4.66481 18.6024C4.66481 18.5983 4.66687 18.5942 4.66788 18.5901C4.71413 18.4241 4.76241 18.2581 4.81173 18.0931C4.93193 17.6913 5.05624 17.2906 5.18983 16.8929C5.26276 16.6777 5.33879 16.4635 5.41584 16.2504C5.56174 15.8476 5.71484 15.4479 5.87612 15.0523C6.17923 14.3052 6.50801 13.5683 6.86451 12.8427C6.93028 12.7084 6.99706 12.5742 7.06485 12.4409C7.22515 12.1253 7.39158 11.8117 7.56214 11.5012C7.60735 11.4181 7.65358 11.3351 7.69879 11.2531C7.7029 11.247 7.707 11.2398 7.71009 11.2337C7.71521 11.2244 7.71932 11.2152 7.7183 11.2039C7.72446 11.1937 7.73166 11.1834 7.7368 11.1742C7.78612 11.0871 7.83542 11 7.88577 10.9129C7.98646 10.7397 8.08715 10.5675 8.19091 10.3953C8.26387 10.2744 8.33785 10.1534 8.4118 10.0335C8.49503 9.89827 8.57929 9.764 8.66559 9.63078C8.77347 9.46269 8.88339 9.2946 8.99437 9.12859C9.11148 8.95334 9.23067 8.78116 9.35191 8.60898C9.42383 8.50548 9.49677 8.40299 9.56971 8.29947C9.56971 8.29742 9.56971 8.29535 9.56971 8.2933C9.56971 8.29229 9.57075 8.29024 9.57176 8.28923C9.57382 8.28615 9.57795 8.28511 9.58205 8.28511C9.60258 8.25642 9.62212 8.22671 9.64369 8.19802C10.4533 7.08911 11.3379 6.04374 12.3335 5.09472C12.6921 4.75344 13.0619 4.42753 13.4493 4.12111C13.6034 3.99812 13.7606 3.87923 13.9209 3.76241L13.9609 3.73371C14.0277 3.68553 14.0955 3.63838 14.1633 3.59126C14.4901 3.36579 14.825 3.15568 15.1712 2.96712C15.237 2.93124 15.3038 2.89638 15.3706 2.86258C15.4209 2.83695 15.4702 2.81133 15.5206 2.78673C15.5637 2.76521 15.6069 2.74471 15.65 2.72422C15.8237 2.64325 15.9993 2.56741 16.1791 2.49875C16.7504 2.27943 17.3381 2.1298 17.9514 2.097C18.4138 2.07241 18.8689 2.1134 19.3148 2.24766C19.3343 2.25381 19.3539 2.26303 19.3744 2.25483L19.3754 2.25381Z" fill="#F0F0F0"/>
<path d="M9.57143 8.28803C9.57143 8.28803 9.57758 8.28394 9.58172 8.28394C9.58172 8.28803 9.57964 8.29112 9.57758 8.29316C9.57553 8.29521 9.57246 8.29625 9.56836 8.29726C9.56836 8.29521 9.56836 8.29316 9.56836 8.29112L9.57041 8.28702L9.57143 8.28803Z" fill="#C18B00"/>
<path d="M11.2751 3.66304C11.2813 3.65582 11.2886 3.65166 11.299 3.65063C11.3052 3.65063 11.3135 3.65063 11.3218 3.6527V3.65477C11.3166 3.66822 11.3114 3.68066 11.3031 3.68788C11.2979 3.69204 11.2927 3.69411 11.2865 3.69513C11.2834 3.69513 11.2793 3.69513 11.2761 3.69513H11.2741C11.2741 3.69513 11.2678 3.69306 11.2637 3.69204C11.2657 3.67961 11.2699 3.66927 11.2761 3.66304H11.2751Z" fill="#C18B00"/>
<path d="M17.5518 1.4348C17.1542 1.2575 16.7556 1.08532 16.36 0.90597C15.9069 0.699972 15.4364 0.572888 14.9381 0.549316C14.8127 0.549316 14.6864 0.549317 14.561 0.550342C14.5117 0.550342 14.4624 0.550342 14.4141 0.550342C14.1634 0.563665 13.9158 0.60056 13.6702 0.652829C12.9459 0.806558 12.2719 1.08942 11.6257 1.44402C10.9753 1.80067 10.3712 2.22702 9.79687 2.69435C9.72393 2.7538 9.64481 2.80811 9.58112 2.87986C9.57598 2.88191 9.57083 2.886 9.56776 2.89113V2.89728C9.56776 2.89728 9.56571 2.89728 9.56467 2.89728C9.56262 2.89728 9.56161 2.89728 9.56161 2.89728C9.54516 2.9106 9.52871 2.92291 9.51229 2.93623C8.8763 3.4794 8.28554 4.06868 7.72662 4.69078C7.06291 5.43073 6.45056 6.21169 5.87828 7.02338C5.02553 8.23271 4.27038 9.5015 3.59741 10.8184C3.14328 11.706 2.73026 12.613 2.35834 13.5384C1.97101 14.5038 1.61552 15.4815 1.32989 16.4828C1.29804 16.5935 1.259 16.7032 1.22715 16.8139C0.992898 17.6389 0.790496 18.4711 0.631247 19.3135C0.495627 20.0278 0.387748 20.7452 0.316855 21.4688C0.264458 21.9935 0.228498 22.5193 0.230552 23.0471C0.230552 23.2869 0.231579 23.5267 0.232607 23.7665C0.235689 23.7993 0.236717 23.8321 0.237744 23.8649C0.238772 23.9162 0.237745 23.9664 0.23569 24.0176C0.237745 24.3097 0.262402 24.5997 0.290143 24.8908C0.336377 25.3653 0.408296 25.8346 0.51412 26.299C0.645631 26.881 0.82543 27.4457 1.08126 27.986C1.35558 28.5639 1.70387 29.0897 2.17443 29.5293C2.44876 29.7857 2.75082 30.0018 3.0909 30.1606C3.39296 30.3021 3.69914 30.4344 4.00531 30.5686C4.2149 30.6609 4.42244 30.7602 4.63613 30.8421C4.62381 30.833 4.61147 30.8227 4.59915 30.8136C4.59915 30.8136 4.59812 30.8136 4.5971 30.8126C4.55599 30.7827 4.51387 30.7552 4.47071 30.7284C4.45736 30.7203 4.44504 30.7119 4.43169 30.7039C4.40908 30.6894 4.38647 30.676 4.36387 30.6609C4.35051 30.6525 4.33819 30.6434 4.32484 30.6351C4.01557 30.4169 3.7464 30.1586 3.50906 29.8645C3.25938 29.5549 3.04672 29.2209 2.87512 28.8622C2.76316 28.6286 2.66042 28.3907 2.57204 28.1478C2.5104 27.9786 2.45389 27.8065 2.40663 27.6323C2.38506 27.5534 2.37067 27.4715 2.34601 27.3924C2.2669 27.1434 2.21964 26.8873 2.17135 26.631C2.13642 26.4477 2.11176 26.2621 2.08608 26.0766C2.05936 25.886 2.04293 25.6933 2.02032 25.5016C2.0193 25.4893 2.01724 25.476 2.01621 25.4637C2.00902 25.3909 2.00594 25.3171 2.00183 25.2434C1.99155 25.0445 1.97409 24.8457 1.97511 24.6459C1.97511 24.5157 1.96176 24.3845 1.96279 24.2533C1.96484 23.9797 1.96792 23.7061 1.9782 23.4324C1.98744 23.1936 2.00183 22.9548 2.02032 22.716C2.0234 22.6761 2.02649 22.6361 2.02957 22.5961C2.06861 22.1616 2.11793 21.7281 2.17752 21.2956C2.24122 20.8406 2.3193 20.3876 2.40766 19.9376C2.43334 19.8054 2.46006 19.6732 2.48677 19.541C2.5895 19.0429 2.71179 18.55 2.84431 18.0591C2.91213 17.8059 2.98301 17.5528 3.05699 17.3017C3.13406 17.0393 3.21419 16.779 3.29947 16.5197C3.39193 16.2379 3.48851 15.9571 3.58405 15.6773C3.60151 15.624 3.63337 15.5758 3.64982 15.5236C3.75051 15.1977 3.87586 14.881 4.00118 14.5643C4.18613 14.098 4.37312 13.6327 4.58375 13.1766C4.77793 12.7564 4.96491 12.3321 5.17759 11.9202C5.26183 11.7562 5.34506 11.5912 5.42623 11.4262C5.455 11.3677 5.49608 11.3165 5.52279 11.2571C5.61013 11.0716 5.70671 10.8912 5.8074 10.7129C5.85568 10.6278 5.89369 10.5356 5.9574 10.4597C6.05911 10.265 6.16699 10.0734 6.28309 9.88685C6.35091 9.77923 6.41049 9.66547 6.47727 9.55684C6.6581 9.26371 6.8338 8.96857 7.02593 8.68161C7.23859 8.36288 7.44407 8.04003 7.66805 7.72951C7.89513 7.41487 8.12218 7.09922 8.36157 6.79278C8.43966 6.69234 8.528 6.60113 8.60302 6.49763C8.69651 6.36746 8.79515 6.24139 8.89994 6.11944C9.0407 5.95444 9.1794 5.78738 9.32221 5.62546C9.3746 5.56603 9.4342 5.51271 9.48763 5.45227C9.58008 5.34771 9.6664 5.23807 9.76298 5.1366C10.0774 4.80659 10.3948 4.47966 10.7308 4.17117C10.7986 4.10865 10.8602 4.03794 10.9342 3.98465C11.0113 3.92932 11.0626 3.84834 11.15 3.80327C11.1551 3.80018 11.1613 3.7971 11.1654 3.793C11.1983 3.7674 11.2178 3.72331 11.2537 3.6977C11.2568 3.69565 11.2599 3.6936 11.262 3.69155C11.264 3.67924 11.2681 3.669 11.2743 3.66286C11.2804 3.65568 11.2876 3.65159 11.2979 3.65055C11.3041 3.65055 11.3123 3.65055 11.3205 3.6526C11.3318 3.64337 11.3431 3.63313 11.3544 3.6239C11.3698 3.61367 11.3822 3.60545 11.3955 3.59622C11.4633 3.54703 11.5239 3.49068 11.5866 3.43329C11.6832 3.34514 11.79 3.26829 11.8928 3.18833C12.3068 2.86755 12.7435 2.57957 13.1935 2.31208C13.2449 2.28236 13.2983 2.25776 13.3507 2.23009C13.5079 2.14605 13.662 2.05689 13.8213 1.979C14.2353 1.77505 14.6658 1.6121 15.1117 1.49219C15.3419 1.4307 15.5741 1.38253 15.8104 1.34973C16.097 1.31079 16.3867 1.29439 16.6755 1.31182C16.9909 1.33129 17.3022 1.38048 17.6032 1.47887C17.6186 1.48399 17.632 1.48502 17.6453 1.47682C17.6196 1.44915 17.5806 1.44915 17.5488 1.4348H17.5518Z" fill="#ABABAB"/>
<path d="M11.2871 3.54848C11.2871 3.54848 11.2815 3.54406 11.2793 3.54297C11.2826 3.54518 11.2848 3.54627 11.2871 3.54848Z" fill="#FF1100"/>
<path d="M14.9374 0.548233H14.5604C14.511 0.550283 14.4617 0.550282 14.4134 0.550282C14.4114 0.544133 14.4083 0.537984 14.4062 0.531835C14.585 0.531835 14.7648 0.531835 14.9436 0.529785C14.9415 0.535934 14.9395 0.542083 14.9374 0.548233Z" fill="#FEC35E"/>
<path d="M9.56388 2.89872H9.56055V2.89209H9.56831V2.89984C9.56831 2.89984 9.5661 2.89984 9.56498 2.89984L9.56388 2.89872Z" fill="#C18B00"/>
<path opacity="0.48" d="M31.3617 26.1097C31.4129 26.0697 31.4129 26.0654 31.3617 26.0255C31.2424 25.9302 31.1151 25.8472 30.9846 25.7684C30.549 25.5049 30.0837 25.304 29.6067 25.1298C29.498 25.0899 29.392 25.0417 29.276 25.0212C29.244 24.9853 29.1969 24.9823 29.1558 24.9689C28.7108 24.8213 28.2579 24.7004 27.8038 24.5846C27.7658 24.5815 27.7288 24.5733 27.6958 24.5549C27.4832 24.5088 27.2706 24.4616 27.0589 24.4155C26.6654 24.3304 26.2697 24.2566 25.8731 24.19C25.5794 24.1408 25.2844 24.0947 24.9896 24.0507C24.7594 24.0168 24.5293 23.982 24.2971 23.9656C24.2591 23.9594 24.2211 23.9523 24.182 23.9471C23.3694 23.8477 22.5556 23.7729 21.7388 23.7166C21.2056 23.6807 20.6724 23.652 20.1381 23.6315C19.4405 23.6048 18.7418 23.5925 18.0432 23.5925C17.1771 23.5925 16.312 23.6141 15.4479 23.6561C14.4493 23.7042 13.4527 23.7801 12.4592 23.8908C12.2968 23.9092 12.1324 23.9195 11.9722 23.9543C11.9393 23.9451 11.9074 23.9543 11.8746 23.9574C11.1666 24.0445 10.4618 24.1521 9.76115 24.2843C9.34712 24.3622 8.93511 24.4483 8.5262 24.5457L8.51799 24.559C8.51799 24.559 8.41215 26.0778 8.6464 27.5607C9.0502 27.656 9.45602 27.7412 9.86288 27.8171C10.2266 27.8846 10.5913 27.9493 10.9581 28.0016C11.4718 28.0752 11.9865 28.15 12.5033 28.2034C13.0057 28.2557 13.5071 28.31 14.0105 28.347C14.3085 28.3684 14.6054 28.394 14.9034 28.4114C15.3442 28.4369 15.7859 28.4587 16.2267 28.4739C16.6294 28.4883 17.0322 28.4996 17.435 28.5047C18.0791 28.5128 18.7244 28.5098 19.3686 28.4966C19.9891 28.4832 20.6097 28.4597 21.2292 28.4248C21.9679 28.3839 22.7056 28.3255 23.4423 28.2496C24.5653 28.1336 25.682 27.9779 26.7885 27.7577C27.7554 27.565 28.7108 27.3292 29.6376 26.9889C30.0413 26.8413 30.4369 26.6721 30.813 26.4631C31.0041 26.3577 31.1891 26.2429 31.3617 26.1086V26.1097Z" fill="url(#paint0_linear_1192_109382)"/>
</g>
<path d="M46.3582 12.4263L51.2535 24.9006L56.1182 12.4263H59.1287L52.5473 28.9553H49.7712L43.1543 12.4263H46.3582Z" fill="white"/>
<path d="M65.4448 25.7593C66.3719 26.3538 67.4976 26.7146 68.6845 26.7146C72.026 26.7146 74.6391 24.0419 74.6391 20.6781H77.4816C77.4816 25.4951 73.5798 29.2906 68.6183 29.2906C63.723 29.2906 59.918 25.5307 59.918 20.7798C59.918 15.9272 63.8198 12.1011 68.7813 12.1011C71.2315 12.1011 74.0076 13.0258 75.8262 15.4343L65.4448 25.7593ZM63.6569 23.9098L71.9241 15.6274C70.9666 15.0024 69.8713 14.6722 68.6845 14.6722C65.3787 14.6722 62.7655 17.3449 62.7655 20.6781C62.7655 21.8671 63.0965 22.985 63.6569 23.9098Z" fill="white"/>
<path d="M80.6602 4.87036H83.7672V28.9603H80.6602V4.87036Z" fill="white"/>
<path d="M87.2773 20.6781C87.2773 15.7951 91.0469 12.1011 96.0441 12.1011C101.072 12.1011 104.841 15.7951 104.841 20.6781C104.841 25.5967 101.072 29.2906 96.0441 29.2906C91.0469 29.2906 87.2773 25.5916 87.2773 20.6781ZM96.0441 26.5164C99.3499 26.5164 101.831 24.0063 101.831 20.6781C101.831 17.3804 99.3499 14.8399 96.0441 14.8399C92.7687 14.8399 90.2879 17.3804 90.2879 20.6781C90.2879 24.0114 92.7687 26.5164 96.0441 26.5164Z" fill="white"/>
<path d="M116.221 28.9602C110.862 28.9602 107.291 25.6627 107.291 20.678C107.291 15.7289 110.862 12.4312 116.221 12.4312H118.997V4.87549H122.104V28.9653H116.221V28.9602ZM116.221 26.186H118.997V15.1649H116.221C112.716 15.1649 110.398 17.3752 110.398 20.6729C110.398 24.0112 112.711 26.186 116.221 26.186Z" fill="white"/>
<path d="M126.674 12.426H129.781V17.2125L134.911 12.0957L136.862 14.0418L129.781 21.0691V28.955H126.674V12.426Z" fill="white"/>
<path d="M137.061 20.6781C137.061 15.7951 140.83 12.1011 145.827 12.1011C150.855 12.1011 154.624 15.7951 154.624 20.6781C154.624 25.5967 150.855 29.2906 145.827 29.2906C140.83 29.2906 137.061 25.5916 137.061 20.6781ZM145.827 26.5164C149.133 26.5164 151.614 24.0063 151.614 20.6781C151.614 17.3804 149.133 14.8399 145.827 14.8399C142.552 14.8399 140.071 17.3804 140.071 20.6781C140.071 24.0114 142.552 26.5164 145.827 26.5164Z" fill="white"/>
<path d="M158.129 12.426H161.17V14.4077C163.849 12.3955 165.006 12.0957 166.529 12.0957C168.515 12.0957 170.232 13.117 171.062 14.7684C174.103 12.426 175.331 12.0957 176.915 12.0957C179.757 12.0957 182.009 14.1434 182.009 17.2429V28.955H178.902V17.5732C178.902 16.054 177.812 14.931 176.421 14.931C175.361 14.931 174.567 15.1597 171.622 17.6037V28.955H168.515V17.5732C168.515 16.054 167.425 14.931 166.035 14.931C164.975 14.931 164.18 15.1597 161.236 17.6037V28.955H158.129V12.426Z" fill="white"/>
<path d="M190.876 25.7593C191.804 26.3538 192.929 26.7146 194.116 26.7146C197.458 26.7146 200.071 24.0419 200.071 20.6781H202.913C202.913 25.4951 199.011 29.2906 194.05 29.2906C189.155 29.2906 185.35 25.5307 185.35 20.7798C185.35 15.9272 189.251 12.1011 194.213 12.1011C196.663 12.1011 199.439 13.0258 201.258 15.4343L190.876 25.7593ZM189.094 23.9098L197.361 15.6274C196.403 15.0024 195.308 14.6722 194.121 14.6722C190.815 14.6722 188.202 17.3449 188.202 20.6781C188.197 21.8671 188.528 22.985 189.094 23.9098Z" fill="white"/>
</g>
<defs>
<linearGradient id="paint0_linear_1192_109382" x1="19.9977" y1="24.1571" x2="19.8557" y2="27.8335" gradientUnits="userSpaceOnUse">
<stop offset="0.16" stop-color="#191919"/>
<stop offset="0.97" stop-color="#191919" stop-opacity="0"/>
</linearGradient>
<clipPath id="clip0_1192_109382">
<rect width="203" height="33.3699" fill="white" transform="translate(0 0.315186)"/>
</clipPath>
</defs>
</svg>
