<svg width="189" height="27" viewBox="0 0 189 27" fill="none" xmlns="http://www.w3.org/2000/svg">
<path opacity="0.5" d="M10.2478 26.3612C8.75876 26.3612 7.37605 26.1603 6.0997 25.7585C4.82336 25.3566 3.74792 24.7539 2.87338 23.9503C1.99885 23.1467 1.37249 22.1421 0.994314 20.9367C0.639773 19.7313 0.592501 18.3249 0.852498 16.7177C1.04159 15.7013 1.24249 14.685 1.45522 13.6686C1.69158 12.6523 1.92794 11.6241 2.1643 10.5841C2.94429 7.39324 4.35064 4.97054 6.38334 3.31602C8.41604 1.66149 11.1578 0.834229 14.6087 0.834229C16.0978 0.834229 17.4686 1.04695 18.7214 1.4724C19.9977 1.87422 21.0731 2.48875 21.9477 3.31602C22.8459 4.14328 23.4722 5.15963 23.8267 6.36507C24.2049 7.57051 24.2522 8.97685 23.9686 10.5841C23.8031 11.6241 23.6022 12.6523 23.3658 13.6686C23.1531 14.685 22.9286 15.7013 22.6922 16.7177C21.8886 19.9558 20.4704 22.3785 18.4377 23.9858C16.405 25.5694 13.6751 26.3612 10.2478 26.3612ZM10.7087 21.2558C11.9851 21.2558 13.1078 20.8776 14.0769 20.1213C15.046 19.3649 15.7314 18.1595 16.1332 16.5049C16.3932 15.465 16.6178 14.4841 16.8068 13.5622C17.0196 12.6404 17.2087 11.6832 17.3741 10.6905C17.6814 9.03594 17.5396 7.8305 16.9487 7.07415C16.3578 6.3178 15.4241 5.93962 14.1478 5.93962C12.8714 5.93962 11.7487 6.3178 10.7796 7.07415C9.8342 7.8305 9.16057 9.03594 8.75876 10.6905C8.49876 11.6832 8.2624 12.6404 8.04968 13.5622C7.86059 14.4841 7.6715 15.465 7.48241 16.5049C7.19878 18.1595 7.3406 19.3649 7.90786 20.1213C8.47513 20.8776 9.40875 21.2558 10.7087 21.2558ZM27.7237 26.0066C27.4873 26.0066 27.2982 25.9239 27.1564 25.7585C27.0146 25.593 26.9673 25.3803 27.0146 25.1203L31.9073 2.07512C31.9545 1.81513 32.0845 1.6024 32.2973 1.43695C32.51 1.2715 32.7345 1.18877 32.9709 1.18877H42.4017C43.8435 1.18877 45.1435 1.35422 46.3016 1.68513C47.4834 2.01603 48.4643 2.52421 49.2443 3.20965C50.0243 3.8951 50.5679 4.75782 50.8752 5.7978C51.1825 6.81415 51.1943 8.00777 50.9107 9.37867C50.3197 12.0968 49.1143 14.1059 47.2943 15.4059C45.498 16.7058 43.0753 17.3558 40.0262 17.3558H35.2399L33.6091 25.1203C33.5618 25.3803 33.4318 25.593 33.2191 25.7585C33.03 25.9239 32.8054 26.0066 32.5454 26.0066H27.7237ZM36.1617 12.4632H40.239C41.208 12.4632 42.0708 12.2032 42.8271 11.6832C43.6071 11.1632 44.1153 10.3714 44.3516 9.30776C44.4698 8.69322 44.4935 8.14959 44.4226 7.67687C44.3516 7.20415 44.1035 6.82597 43.678 6.54234C43.2762 6.25871 42.6498 6.11689 41.799 6.11689H37.5445L36.1617 12.4632ZM57.4619 26.0066C57.2019 26.0066 57.001 25.9239 56.8592 25.7585C56.7174 25.593 56.6701 25.3803 56.7174 25.1203L60.6528 6.75506H54.3419C54.1056 6.75506 53.9165 6.67234 53.7747 6.50688C53.6329 6.3178 53.5856 6.10507 53.6329 5.86871L54.4483 2.07512C54.4956 1.81513 54.6138 1.6024 54.8028 1.43695C55.0156 1.2715 55.2519 1.18877 55.5119 1.18877H74.5859C74.8459 1.18877 75.035 1.2715 75.1532 1.43695C75.295 1.6024 75.3423 1.81513 75.295 2.07512L74.4796 5.86871C74.4323 6.10507 74.3023 6.3178 74.0896 6.50688C73.9008 6.67234 73.6762 6.75506 73.4162 6.75506H67.1054L63.2055 25.1203C63.1582 25.3803 63.0282 25.593 62.8155 25.7585C62.6264 25.9239 62.4018 26.0066 62.1418 26.0066H57.4619ZM76.0381 26.0066C75.7781 26.0066 75.5772 25.9239 75.4354 25.7585C75.2935 25.593 75.2463 25.3803 75.2935 25.1203L80.2217 2.07512C80.2689 1.81513 80.3989 1.6024 80.6116 1.43695C80.8244 1.2715 81.0489 1.18877 81.2853 1.18877H86.0716C86.3079 1.18877 86.497 1.2715 86.6388 1.43695C86.7807 1.6024 86.8279 1.81513 86.7807 2.07512L81.8525 25.1203C81.8053 25.3803 81.6753 25.593 81.4625 25.7585C81.2735 25.9239 81.0607 26.0066 80.8244 26.0066H76.0381ZM90.5824 26.0066C90.3224 26.0066 90.1215 25.9239 89.9797 25.7585C89.8378 25.593 89.7906 25.3803 89.8378 25.1203L94.7305 2.07512C94.7778 1.81513 94.9078 1.6024 95.1205 1.43695C95.3332 1.2715 95.5696 1.18877 95.8296 1.18877H99.6586C100.037 1.18877 100.297 1.29513 100.439 1.50786C100.604 1.69695 100.71 1.85058 100.758 1.96876L104.587 13.1723L113.238 1.96876C113.308 1.85058 113.45 1.69695 113.663 1.50786C113.899 1.29513 114.207 1.18877 114.585 1.18877H118.414C118.674 1.18877 118.875 1.2715 119.017 1.43695C119.158 1.6024 119.206 1.81513 119.158 2.07512L114.266 25.1203C114.218 25.3803 114.088 25.593 113.876 25.7585C113.663 25.9239 113.427 26.0066 113.167 26.0066H108.912C108.676 26.0066 108.487 25.9239 108.345 25.7585C108.203 25.593 108.156 25.3803 108.203 25.1203L110.968 12.0377L105.544 19.2349C105.379 19.424 105.178 19.6131 104.941 19.8022C104.729 19.9676 104.457 20.0503 104.126 20.0503H102.282C101.951 20.0503 101.715 19.9676 101.573 19.8022C101.431 19.6367 101.325 19.4476 101.254 19.2349L98.7368 11.7186L95.865 25.1203C95.8178 25.3803 95.6878 25.593 95.475 25.7585C95.286 25.9239 95.0732 26.0066 94.8369 26.0066H90.5824ZM121.857 26.0066C121.597 26.0066 121.396 25.9239 121.255 25.7585C121.113 25.593 121.066 25.3803 121.113 25.1203L126.041 2.07512C126.088 1.81513 126.218 1.6024 126.431 1.43695C126.644 1.2715 126.868 1.18877 127.105 1.18877H131.891C132.127 1.18877 132.316 1.2715 132.458 1.43695C132.6 1.6024 132.647 1.81513 132.6 2.07512L127.672 25.1203C127.625 25.3803 127.495 25.593 127.282 25.7585C127.093 25.9239 126.88 26.0066 126.644 26.0066H121.857ZM144.272 26.3612C141.908 26.3612 139.97 26.0303 138.457 25.3685C136.968 24.7067 135.893 23.8321 135.231 22.7449C134.593 21.634 134.368 20.464 134.557 19.2349C134.605 19.0458 134.699 18.8804 134.841 18.7385C135.006 18.5731 135.195 18.4904 135.408 18.4904H139.946C140.277 18.4904 140.514 18.5495 140.655 18.6676C140.797 18.7858 140.939 18.9395 141.081 19.1285C141.175 19.4831 141.364 19.8258 141.648 20.1567C141.932 20.4876 142.322 20.7594 142.818 20.9722C143.338 21.1612 143.976 21.2558 144.733 21.2558C146.103 21.2558 147.203 21.0431 148.03 20.6176C148.857 20.1922 149.342 19.6131 149.483 18.8804C149.625 18.3604 149.531 17.9349 149.2 17.604C148.893 17.2495 148.337 16.9422 147.533 16.6822C146.753 16.3986 145.702 16.1149 144.378 15.8313C142.653 15.4531 141.234 14.9331 140.124 14.2713C139.013 13.5859 138.233 12.7232 137.784 11.6832C137.358 10.6196 137.299 9.35503 137.606 7.88959C138.079 5.71508 139.249 4.00146 141.116 2.74875C142.984 1.4724 145.406 0.834229 148.384 0.834229C149.921 0.834229 151.28 1.04695 152.462 1.4724C153.667 1.89785 154.672 2.46512 155.475 3.1742C156.279 3.88328 156.858 4.63964 157.212 5.44326C157.567 6.22325 157.685 6.99142 157.567 7.74778C157.543 7.93687 157.449 8.11414 157.283 8.27959C157.118 8.42141 156.929 8.49231 156.716 8.49231H151.965C151.729 8.49231 151.516 8.44504 151.327 8.3505C151.162 8.25595 151.02 8.10232 150.902 7.88959C150.902 7.3696 150.63 6.92052 150.086 6.54234C149.543 6.14053 148.822 5.93962 147.923 5.93962C146.907 5.93962 146.056 6.12871 145.371 6.50688C144.685 6.86143 144.26 7.41687 144.094 8.17323C143.976 8.64595 144.035 9.05958 144.272 9.41412C144.532 9.76866 145.004 10.0759 145.69 10.3359C146.399 10.5959 147.368 10.8677 148.597 11.1514C150.677 11.5532 152.308 12.0968 153.49 12.7823C154.672 13.4441 155.463 14.2831 155.865 15.2995C156.291 16.3158 156.35 17.5567 156.042 19.0222C155.522 21.4331 154.258 23.2649 152.249 24.5176C150.263 25.7466 147.604 26.3612 144.272 26.3612ZM160.407 26.0066C160.147 26.0066 159.946 25.9239 159.804 25.7585C159.662 25.593 159.615 25.3803 159.662 25.1203L164.555 2.07512C164.602 1.81513 164.732 1.6024 164.945 1.43695C165.158 1.2715 165.394 1.18877 165.654 1.18877H169.483C169.861 1.18877 170.121 1.29513 170.263 1.50786C170.429 1.69695 170.535 1.85058 170.582 1.96876L174.411 13.1723L183.062 1.96876C183.133 1.85058 183.275 1.69695 183.488 1.50786C183.724 1.29513 184.031 1.18877 184.409 1.18877H188.238C188.498 1.18877 188.699 1.2715 188.841 1.43695C188.983 1.6024 189.03 1.81513 188.983 2.07512L184.09 25.1203C184.043 25.3803 183.913 25.593 183.7 25.7585C183.488 25.9239 183.251 26.0066 182.991 26.0066H178.737C178.5 26.0066 178.311 25.9239 178.17 25.7585C178.028 25.593 177.98 25.3803 178.028 25.1203L180.793 12.0377L175.369 19.2349C175.203 19.424 175.002 19.6131 174.766 19.8022C174.553 19.9676 174.281 20.0503 173.95 20.0503H172.107C171.776 20.0503 171.54 19.9676 171.398 19.8022C171.256 19.6367 171.15 19.4476 171.079 19.2349L168.561 11.7186L165.69 25.1203C165.642 25.3803 165.512 25.593 165.3 25.7585C165.111 25.9239 164.898 26.0066 164.661 26.0066H160.407Z" fill="white"/>
</svg>
