<svg width="376" height="229" viewBox="0 0 376 229" fill="none" xmlns="http://www.w3.org/2000/svg">
<g filter="url(#filter0_b_147_91924)">
<g clip-path="url(#clip0_147_91924)">
<line opacity="0.7" x1="220.5" y1="-2.68882e-08" x2="220.5" y2="230" stroke="#424242" stroke-opacity="0.2"/>
<line opacity="0.7" x1="284.5" y1="-2.68882e-08" x2="284.5" y2="230" stroke="#424242" stroke-opacity="0.2"/>
<line opacity="0.7" x1="92.5" y1="-2.68882e-08" x2="92.5" y2="230" stroke="#424242" stroke-opacity="0.2"/>
<line opacity="0.7" x1="28.5" y1="-2.68882e-08" x2="28.5" y2="230" stroke="#424242" stroke-opacity="0.2"/>
<line opacity="0.7" x1="348.5" y1="-2.68882e-08" x2="348.5" y2="230" stroke="#424242" stroke-opacity="0.2"/>
<line opacity="0.7" x1="156.5" y1="-2.68882e-08" x2="156.5" y2="230" stroke="#424242" stroke-opacity="0.2"/>
<line opacity="0.7" x1="-99" y1="138.5" x2="476" y2="138.5" stroke="#424242" stroke-opacity="0.2"/>
<line opacity="0.7" x1="-99" y1="90.5" x2="476" y2="90.5001" stroke="#424242" stroke-opacity="0.2"/>
<line opacity="0.7" x1="-99" y1="42.5" x2="476" y2="42.5" stroke="#424242" stroke-opacity="0.2"/>
<line opacity="0.7" x1="-99" y1="186.5" x2="476" y2="186.5" stroke="#424242" stroke-opacity="0.2"/>
<path d="M285 0V64C285 78.9117 272.912 91 258 91H225" stroke="white"/>
<path d="M28 0V64C28 78.9117 40.0883 91 55 91H149" stroke="url(#paint0_linear_147_91924)"/>
<path d="M-30 230V166C-30 151.088 -17.9117 139 -3 139H149" stroke="white"/>
<path d="M348 230V166C348 151.088 335.912 139 321 139H225" stroke="url(#paint1_linear_147_91924)"/>
<g filter="url(#filter1_b_147_91924)">
<rect x="148" y="75" width="80" height="80" rx="16" fill="url(#paint2_linear_147_91924)" fill-opacity="0.1"/>
<rect x="149" y="76" width="78" height="78" rx="15" stroke="url(#paint3_linear_147_91924)" stroke-opacity="0.6" stroke-width="2"/>
<rect x="149" y="76" width="78" height="78" rx="15" stroke="url(#paint4_linear_147_91924)" stroke-width="2"/>
<path d="M200.43 109.861L197.242 123.152C196.668 125.548 196.38 126.746 195.542 126.967C194.704 127.189 193.904 126.279 192.302 124.458L187.98 119.544L185.415 123.109C184.643 124.182 184.257 124.719 183.813 124.631C183.37 124.542 183.201 123.895 182.862 122.601L182.211 120.113C181.863 118.783 181.689 118.118 181.281 117.611C181.235 117.554 181.187 117.499 181.138 117.446C180.695 116.972 180.078 116.725 178.843 116.23C176.119 115.138 174.757 114.592 174.673 113.661C174.664 113.565 174.665 113.47 174.673 113.374C174.76 112.444 176.124 111.902 178.852 110.819L194.675 104.537C198.085 103.183 199.791 102.506 200.774 103.416C201.758 104.326 201.316 106.171 200.43 109.861Z" fill="#262626"/>
<path d="M187.98 119.544L192.302 124.458C193.904 126.279 194.704 127.189 195.542 126.967C196.38 126.746 196.668 125.548 197.242 123.152L200.43 109.861C201.316 106.171 201.758 104.326 200.774 103.416C199.791 102.506 198.085 103.183 194.675 104.537L178.852 110.819C176.124 111.902 174.76 112.444 174.673 113.374C174.665 113.47 174.664 113.565 174.673 113.661C174.757 114.592 176.119 115.138 178.843 116.23C180.078 116.725 180.695 116.972 181.138 117.446C181.187 117.499 181.235 117.554 181.281 117.611C181.689 118.118 181.863 118.783 182.211 120.113L182.862 122.601C183.201 123.895 183.37 124.542 183.813 124.631C184.257 124.719 184.643 124.182 185.415 123.109L187.98 119.544ZM187.98 119.544L187.557 119.103C187.074 118.6 186.833 118.349 186.833 118.037C186.833 117.724 187.074 117.473 187.557 116.97L192.321 112.005" stroke="url(#paint5_linear_147_91924)" stroke-width="1.5" stroke-linecap="round" stroke-linejoin="round"/>
</g>
</g>
<rect x="0.5" y="0.5" width="375" height="228" rx="15.5" stroke="#1F1F1F"/>
</g>
<defs>
<filter id="filter0_b_147_91924" x="-144" y="-144" width="664" height="517" filterUnits="userSpaceOnUse" color-interpolation-filters="sRGB">
<feFlood flood-opacity="0" result="BackgroundImageFix"/>
<feGaussianBlur in="BackgroundImageFix" stdDeviation="72"/>
<feComposite in2="SourceAlpha" operator="in" result="effect1_backgroundBlur_147_91924"/>
<feBlend mode="normal" in="SourceGraphic" in2="effect1_backgroundBlur_147_91924" result="shape"/>
</filter>
<filter id="filter1_b_147_91924" x="105" y="32" width="166" height="166" filterUnits="userSpaceOnUse" color-interpolation-filters="sRGB">
<feFlood flood-opacity="0" result="BackgroundImageFix"/>
<feGaussianBlur in="BackgroundImageFix" stdDeviation="21.5"/>
<feComposite in2="SourceAlpha" operator="in" result="effect1_backgroundBlur_147_91924"/>
<feBlend mode="normal" in="SourceGraphic" in2="effect1_backgroundBlur_147_91924" result="shape"/>
</filter>
<linearGradient id="paint0_linear_147_91924" x1="88.5" y1="0" x2="88.5" y2="91" gradientUnits="userSpaceOnUse">
<stop stop-color="#EBFE64"/>
<stop offset="1" stop-color="#8CEA69"/>
</linearGradient>
<linearGradient id="paint1_linear_147_91924" x1="286.5" y1="230" x2="286.5" y2="139" gradientUnits="userSpaceOnUse">
<stop stop-color="#EBFE64"/>
<stop offset="1" stop-color="#8CEA69"/>
</linearGradient>
<linearGradient id="paint2_linear_147_91924" x1="188" y1="75" x2="188" y2="155" gradientUnits="userSpaceOnUse">
<stop stop-color="#EBFE64"/>
<stop offset="1" stop-color="#8CEA69"/>
</linearGradient>
<linearGradient id="paint3_linear_147_91924" x1="243.341" y1="106.981" x2="216.022" y2="107.848" gradientUnits="userSpaceOnUse">
<stop stop-color="white"/>
<stop offset="1" stop-color="#EFEFEF" stop-opacity="0"/>
</linearGradient>
<linearGradient id="paint4_linear_147_91924" x1="148" y1="75" x2="180.374" y2="92.2083" gradientUnits="userSpaceOnUse">
<stop stop-color="white" stop-opacity="0.5"/>
<stop offset="1" stop-color="white" stop-opacity="0"/>
</linearGradient>
<linearGradient id="paint5_linear_147_91924" x1="188" y1="103" x2="188" y2="127" gradientUnits="userSpaceOnUse">
<stop stop-color="#EBFE64"/>
<stop offset="1" stop-color="#8CEA69"/>
</linearGradient>
<clipPath id="clip0_147_91924">
<rect width="376" height="229" rx="16" fill="white"/>
</clipPath>
</defs>
</svg>
