<svg width="575" height="242" viewBox="0 0 575 242" fill="none" xmlns="http://www.w3.org/2000/svg">
<line x1="319.5" y1="49" x2="319.5" y2="193" stroke="#424242" stroke-opacity="0.2"/>
<line x1="63.5" y1="49" x2="63.5" y2="193" stroke="#424242" stroke-opacity="0.2"/>
<line x1="383.5" y1="49" x2="383.5" y2="193" stroke="#424242" stroke-opacity="0.2"/>
<line x1="191.5" y1="49" x2="191.5" y2="193" stroke="#424242" stroke-opacity="0.2"/>
<line x1="511.5" y1="49" x2="511.5" y2="193" stroke="#424242" stroke-opacity="0.2"/>
<line x1="127.5" y1="49" x2="127.5" y2="193" stroke="#424242" stroke-opacity="0.2"/>
<line x1="447.5" y1="49" x2="447.5" y2="193" stroke="#424242" stroke-opacity="0.2"/>
<line x1="255.5" y1="49" x2="255.5" y2="193" stroke="#424242" stroke-opacity="0.2"/>
<line x1="4.37114e-08" y1="144.5" x2="575" y2="144.5" stroke="#424242" stroke-opacity="0.2"/>
<line x1="4.37114e-08" y1="96.5" x2="575" y2="96.5001" stroke="#424242" stroke-opacity="0.2"/>
<g filter="url(#filter0_f_269_120321)">
<ellipse cx="288" cy="121" rx="180" ry="21" fill="url(#paint0_linear_269_120321)" fill-opacity="0.5"/>
</g>
<g filter="url(#filter1_b_269_120321)">
<g clip-path="url(#clip0_269_120321)">
<rect x="213.528" y="46.5276" width="148.945" height="148.945" rx="29.0251" fill="url(#paint1_linear_269_120321)"/>
<path d="M331.35 92.3497L314.747 111.215C315.552 107.896 315.763 103.008 315.89 98.7226C316.006 94.8117 316.342 91.5451 317.994 87.8988C318.908 85.8825 320.033 83.8326 321.133 82.1076C322.03 80.6999 323.169 79.2855 324.368 78.1372L325.587 79.2246L327.085 80.9696L328.38 82.6134L331.35 87.4183V92.3497Z" fill="url(#paint2_linear_269_120321)"/>
<path fill-rule="evenodd" clip-rule="evenodd" d="M236.507 112.341C236.509 112.347 236.511 112.354 236.513 112.361C236.767 113.207 237.357 113.849 237.963 114.507C238.155 114.715 238.348 114.925 238.533 115.144C238.947 115.634 239.407 116.155 239.846 116.652C240.061 116.895 240.271 117.132 240.468 117.357C241.065 118.04 241.59 118.749 242.116 119.459C242.643 120.169 243.169 120.88 243.767 121.564L253.354 132.535L265.209 146.096L280.257 163.313L296.597 149.212L292.123 144.094L283.932 134.723L275.407 124.97L269.919 118.692L264.393 112.366C263.951 111.861 263.558 111.419 263.191 111.01L251.617 97.4816C249.687 95.2253 248.088 93.3135 247.341 90.3644C246.3 86.2525 247.958 80.3779 251.087 77.5066C251.201 77.4016 251.301 77.3034 251.398 77.2077C251.488 77.1189 251.576 77.0323 251.671 76.9448L250.305 78.0929L241.178 85.7605C238.099 88.3476 235.612 90.5604 234.106 94.423C232.878 97.5716 232.216 101.578 233.317 105.924C233.566 106.904 233.904 107.902 234.346 108.911C234.921 110.224 235.659 111.289 236.507 112.341ZM252.023 76.6495C251.888 76.7518 251.775 76.8489 251.671 76.9448L252.023 76.6495Z" fill="url(#paint3_linear_269_120321)"/>
<path fill-rule="evenodd" clip-rule="evenodd" d="M337.878 114.747C337.73 114.993 337.554 115.241 337.349 115.492L337.339 115.503L337.221 115.639C335.235 117.917 333.249 120.195 331.263 122.472L322.139 132.941L310.855 145.882L297.143 161.61C295.146 164.53 291.781 166.447 287.967 166.447C284.997 166.447 282.299 165.284 280.307 163.39L280.294 163.413L280.077 163.165C279.741 162.826 279.427 162.466 279.136 162.086L259.407 139.464C261.273 140.766 263.086 141.959 264.743 142.876C267.075 144.166 269.2 145.1 271.121 145.753C273.366 146.516 276.379 146.718 278.066 146.83C281.623 147.064 284.605 144.103 285.75 142.967L285.841 142.876L289.772 138.705L298.22 129.081L301.148 125.722L306.371 119.731L311.631 113.695C312.114 113.141 312.537 112.667 312.93 112.227L324.742 98.4201C326.622 96.2234 328.179 94.3621 328.906 91.4909C329.919 87.4876 328.305 81.7682 325.259 78.9728C325.148 78.8706 325.05 78.7749 324.956 78.6818L324.956 78.6818L324.956 78.6818C324.868 78.5952 324.783 78.5109 324.69 78.4258L326.02 79.5436L334.906 87.0086C337.904 89.5274 340.324 91.6817 341.791 95.4423C342.987 98.5078 343.632 102.409 342.559 106.639C342.317 107.594 341.988 108.565 341.557 109.547C340.771 111.342 339.673 112.661 338.403 114.137L337.878 114.747ZM324.348 78.1382L324.69 78.4258C324.589 78.3324 324.479 78.2379 324.348 78.1382Z" fill="url(#paint4_linear_269_120321)"/>
<path opacity="0.5" d="M259.74 107.036L249.404 94.8286L233.994 105.911L237.215 113.837L262.429 141.944L276.902 126.635L259.74 107.036Z" fill="url(#paint5_linear_269_120321)"/>
<path fill-rule="evenodd" clip-rule="evenodd" d="M252.35 76.317V77.3833C252.35 77.4394 252.359 77.582 252.373 77.8015C252.526 80.1872 253.258 91.6699 249.214 100.336C248.75 101.329 248.174 102.252 247.584 103.161C247.499 103.304 247.472 103.462 247.445 103.622C247.441 103.644 247.438 103.666 247.434 103.688C247.305 104.412 247.219 105.138 247.171 105.865C246.927 109.609 247.719 113.386 249.163 117.071C252.43 125.408 259.037 133.272 264.542 139.204C268.817 143.326 273.582 146.618 278.009 146.798C275.633 147.678 269.454 148.425 263.751 144.371C259.538 139.689 246.328 124.482 240.25 117.463L238.609 115.492C238.527 115.398 238.454 115.313 238.39 115.238C237 113.612 234.646 110.626 233.817 108.627C230.202 98.2193 235.627 90.4102 238.791 87.8066L243.097 84.1278L252.35 76.317Z" fill="url(#paint6_linear_269_120321)"/>
<rect x="213.528" y="46.5276" width="148.945" height="148.945" rx="29.0251" stroke="#1E1E1E" stroke-width="3.05528"/>
</g>
<rect x="210.472" y="43.4724" width="155.055" height="155.055" rx="32.0804" stroke="url(#paint7_linear_269_120321)" stroke-opacity="0.6" stroke-width="3.05528"/>
<rect x="210.472" y="43.4724" width="155.055" height="155.055" rx="32.0804" stroke="url(#paint8_linear_269_120321)" stroke-width="3.05528"/>
</g>
<defs>
<filter id="filter0_f_269_120321" x="8" y="0" width="560" height="242" filterUnits="userSpaceOnUse" color-interpolation-filters="sRGB">
<feFlood flood-opacity="0" result="BackgroundImageFix"/>
<feBlend mode="normal" in="SourceGraphic" in2="BackgroundImageFix" result="shape"/>
<feGaussianBlur stdDeviation="50" result="effect1_foregroundBlur_269_120321"/>
</filter>
<filter id="filter1_b_269_120321" x="176.1" y="9.10048" width="223.799" height="223.799" filterUnits="userSpaceOnUse" color-interpolation-filters="sRGB">
<feFlood flood-opacity="0" result="BackgroundImageFix"/>
<feGaussianBlur in="BackgroundImageFix" stdDeviation="16.4221"/>
<feComposite in2="SourceAlpha" operator="in" result="effect1_backgroundBlur_269_120321"/>
<feBlend mode="normal" in="SourceGraphic" in2="effect1_backgroundBlur_269_120321" result="shape"/>
</filter>
<linearGradient id="paint0_linear_269_120321" x1="108" y1="121" x2="468" y2="121" gradientUnits="userSpaceOnUse">
<stop stop-color="#EBFE64"/>
<stop offset="1" stop-color="#8CEA69"/>
</linearGradient>
<linearGradient id="paint1_linear_269_120321" x1="288" y1="45" x2="288" y2="197" gradientUnits="userSpaceOnUse">
<stop stop-color="#2B2F30"/>
<stop offset="1" stop-color="#010101"/>
</linearGradient>
<linearGradient id="paint2_linear_269_120321" x1="324.318" y1="78.3395" x2="316.916" y2="109.757" gradientUnits="userSpaceOnUse">
<stop stop-color="#E8FE65"/>
<stop offset="1" stop-color="#667220"/>
</linearGradient>
<linearGradient id="paint3_linear_269_120321" x1="236.99" y1="88.9111" x2="269.324" y2="164.436" gradientUnits="userSpaceOnUse">
<stop offset="0.00430546" stop-color="#419721"/>
<stop offset="1" stop-color="#8CEA69"/>
</linearGradient>
<linearGradient id="paint4_linear_269_120321" x1="335.224" y1="85.5478" x2="282.358" y2="166.707" gradientUnits="userSpaceOnUse">
<stop stop-color="#B5C739"/>
<stop offset="0.182425" stop-color="#EBFE64"/>
<stop offset="1" stop-color="#8CEA69"/>
</linearGradient>
<linearGradient id="paint5_linear_269_120321" x1="228.431" y1="84.6318" x2="267.693" y2="128.626" gradientUnits="userSpaceOnUse">
<stop/>
<stop offset="1" stop-opacity="0"/>
</linearGradient>
<linearGradient id="paint6_linear_269_120321" x1="271.919" y1="157.86" x2="219.513" y2="81.2824" gradientUnits="userSpaceOnUse">
<stop stop-color="#8CEA69"/>
<stop offset="1" stop-color="#EBFE64"/>
</linearGradient>
<linearGradient id="paint7_linear_269_120321" x1="393.148" y1="105.765" x2="341.241" y2="107.412" gradientUnits="userSpaceOnUse">
<stop stop-color="white"/>
<stop offset="1" stop-color="#EFEFEF" stop-opacity="0"/>
</linearGradient>
<linearGradient id="paint8_linear_269_120321" x1="212" y1="45" x2="273.51" y2="77.6959" gradientUnits="userSpaceOnUse">
<stop stop-color="white" stop-opacity="0.5"/>
<stop offset="1" stop-color="white" stop-opacity="0"/>
</linearGradient>
<clipPath id="clip0_269_120321">
<rect x="212" y="45" width="152" height="152" rx="30.5528" fill="white"/>
</clipPath>
</defs>
</svg>
