<svg width="50" height="40" viewBox="0 0 50 40" fill="none" xmlns="http://www.w3.org/2000/svg">
<g id="Logo Icon">
<path id="Vector 34" d="M44.6772 7.11556L37.1636 15.4883C37.5279 14.0149 37.6235 11.8456 37.6809 9.94388C37.7333 8.20818 37.8853 6.75844 38.6332 5.14022C39.0468 4.24538 39.5556 3.3356 40.0534 2.57004C40.4597 1.9453 40.9748 1.31759 41.5178 0.807953L42.0692 1.29056L42.7471 2.06498L43.333 2.79451L44.6772 4.92698V7.11556Z" fill="url(#paint0_linear_721_229783)"/>
<path id="Union" fill-rule="evenodd" clip-rule="evenodd" d="M1.75894 15.9874C1.75986 15.9904 1.76077 15.9934 1.7617 15.9965C1.87648 16.3721 2.1438 16.6569 2.41781 16.9489C2.50469 17.0414 2.59224 17.1347 2.67582 17.2318C2.86302 17.4494 3.07129 17.6803 3.27007 17.9008C3.36727 18.0086 3.46219 18.1138 3.55127 18.2138C3.8215 18.517 4.05939 18.8318 4.29726 19.1466C4.53555 19.462 4.77383 19.7774 5.04461 20.081L9.38279 24.9499L14.7477 30.9684L21.5577 38.6093L28.9521 32.3513L26.9275 30.0798L23.2209 25.9212L19.3628 21.5926L16.8794 18.8064L14.3784 15.9989C14.1795 15.7757 14.0022 15.5803 13.8368 15.3992L8.59714 9.39311C7.72356 8.39174 6.99999 7.54329 6.66206 6.23444C6.19088 4.40956 6.9413 1.80236 8.35711 0.528083C8.40887 0.481493 8.45401 0.437869 8.49792 0.395431C8.53874 0.355986 8.5785 0.317565 8.62153 0.278739L8.0031 0.788283L3.87298 4.1912C2.47944 5.33938 1.35435 6.32142 0.67251 8.03568C0.116714 9.43306 -0.182835 11.2113 0.315702 13.1397C0.428196 13.5749 0.581327 14.0176 0.781321 14.4654C1.04152 15.048 1.37527 15.5206 1.75894 15.9874ZM8.7806 0.147675C8.71983 0.193106 8.66871 0.236166 8.62153 0.278739L8.7806 0.147675Z" fill="url(#paint1_linear_721_229783)"/>
<path id="Union_2" fill-rule="evenodd" clip-rule="evenodd" d="M47.6403 17.044C47.5719 17.1567 47.4898 17.2708 47.3935 17.3862L47.3893 17.3914L47.3355 17.4516C46.437 18.4626 45.5384 19.4735 44.6395 20.4841L40.5103 25.1303L35.4039 30.8735L29.1887 37.865C28.2842 39.1545 26.7654 40.0005 25.0443 40.0005C23.7011 40.0005 22.4811 39.4852 21.5801 38.6459L21.5754 38.6539L21.5033 38.5728C21.3301 38.4044 21.1694 38.2238 21.0227 38.0323L12.1233 28.0252C12.968 28.6032 13.7882 29.1327 14.5381 29.5395C15.5935 30.112 16.5553 30.5266 17.4242 30.8163C18.4403 31.155 19.8039 31.2447 20.5673 31.2941C22.1769 31.3983 23.5266 30.0841 24.0445 29.5798L24.0859 29.5395L25.865 27.6886L29.4474 23.6855L31.0112 21.9266L33.3749 19.2677L35.7554 16.5887C35.9446 16.3758 36.1133 16.1895 36.2707 16.0167L41.6857 9.80955C42.5362 8.83463 43.2406 8.00859 43.5697 6.73431C44.0284 4.95763 43.2978 2.41929 41.9194 1.17868C41.869 1.13333 41.8251 1.09088 41.7823 1.04957L41.7823 1.04954L41.7822 1.04949L41.7822 1.04945C41.7425 1.01108 41.7038 0.973698 41.6619 0.935923L42.264 1.43201L46.2851 4.74504C47.6418 5.86289 48.7372 6.81899 49.401 8.48798C49.9421 9.84844 50.2338 11.5797 49.7484 13.4572C49.6389 13.8808 49.4898 14.3119 49.2951 14.7479C48.9393 15.5445 48.4423 16.1299 47.8677 16.7849L47.6403 17.044ZM41.5071 0.808319L41.6619 0.935923C41.616 0.894474 41.5662 0.852551 41.5071 0.808319Z" fill="url(#paint2_linear_721_229783)"/>
<path id="Vector 37" opacity="0.5" d="M12.2711 13.6333L7.59373 8.21561L0.620117 13.1341L2.078 16.6517L13.4882 29.1259L20.0378 22.3314L12.2711 13.6333Z" fill="url(#paint3_linear_721_229783)"/>
<path id="Union_3" fill-rule="evenodd" clip-rule="evenodd" d="M8.92907 0V0.473242C8.92907 0.498169 8.93318 0.561416 8.93953 0.658861C9.00842 1.71764 9.34001 6.81372 7.50966 10.6598C7.29808 11.1043 7.03467 11.5168 6.76531 11.9238C6.73167 11.9843 6.72011 12.0509 6.70841 12.1183C6.70671 12.1281 6.70501 12.1379 6.70324 12.1476C6.64516 12.4689 6.60603 12.791 6.58458 13.1138C6.47416 14.7753 6.83243 16.4516 7.48588 18.0868C8.96172 21.7801 11.9433 25.2641 14.4317 27.8952C16.37 29.7314 18.5328 31.1997 20.5415 31.2797C19.4661 31.6704 16.6701 32.002 14.0891 30.2028C12.1826 28.1248 6.20466 21.3758 3.45402 18.261L2.734 17.4131C2.68759 17.3602 2.64655 17.3134 2.61162 17.2733C1.98229 16.5516 0.917279 15.2265 0.542088 14.3392C-1.09416 9.72038 1.36102 6.25468 2.79314 5.09918L4.74163 3.4665L8.92907 0Z" fill="url(#paint4_linear_721_229783)"/>
</g>
<defs>
<linearGradient id="paint0_linear_721_229783" x1="41.4948" y1="0.897741" x2="38.2668" y2="14.8692" gradientUnits="userSpaceOnUse">
<stop stop-color="#E8FE65"/>
<stop offset="1" stop-color="#667220"/>
</linearGradient>
<linearGradient id="paint1_linear_721_229783" x1="1.97763" y1="5.58944" x2="16.1348" y2="39.3075" gradientUnits="userSpaceOnUse">
<stop offset="0.00430546" stop-color="#419721"/>
<stop offset="1" stop-color="#8CEA69"/>
</linearGradient>
<linearGradient id="paint2_linear_721_229783" x1="46.4295" y1="4.09676" x2="23.1536" y2="40.5282" gradientUnits="userSpaceOnUse">
<stop stop-color="#B5C739"/>
<stop offset="0.182425" stop-color="#EBFE64"/>
<stop offset="1" stop-color="#8CEA69"/>
</linearGradient>
<linearGradient id="paint3_linear_721_229783" x1="-1.89706" y1="3.69024" x2="15.4856" y2="23.5517" gradientUnits="userSpaceOnUse">
<stop/>
<stop offset="1" stop-opacity="0"/>
</linearGradient>
<linearGradient id="paint4_linear_721_229783" x1="17.7852" y1="36.1895" x2="-5.30526" y2="1.78351" gradientUnits="userSpaceOnUse">
<stop stop-color="#8CEA69"/>
<stop offset="1" stop-color="#EBFE64"/>
</linearGradient>
</defs>
</svg>
