<svg width="435" height="848" viewBox="0 0 435 848" fill="none" xmlns="http://www.w3.org/2000/svg">
<g opacity="0.7">
<g clip-path="url(#clip0_269_120628)">
<g opacity="0.5">
<mask id="mask0_269_120628" style="mask-type:alpha" maskUnits="userSpaceOnUse" x="-382" y="-394" width="1200" height="1211">
<rect x="-382" y="-394" width="1200" height="1211" fill="url(#paint0_radial_269_120628)"/>
</mask>
<g mask="url(#mask0_269_120628)">
<circle cx="25.5" cy="13.5" r="1.5" fill="#CAC8D4"/>
<circle cx="49.5" cy="13.5" r="1.5" fill="#CAC8D4"/>
<circle cx="73.5" cy="13.5" r="1.5" fill="#CAC8D4"/>
<circle cx="97.5" cy="13.5" r="1.5" fill="#CAC8D4"/>
<circle cx="121.5" cy="13.5" r="1.5" fill="#CAC8D4"/>
<circle cx="145.5" cy="13.5" r="1.5" fill="#CAC8D4"/>
<circle cx="169.5" cy="13.5" r="1.5" fill="#CAC8D4"/>
<circle cx="193.5" cy="13.5" r="1.5" fill="#CAC8D4"/>
<circle cx="217.5" cy="13.5" r="1.5" fill="#CAC8D4"/>
<circle cx="241.5" cy="13.5" r="1.5" fill="#CAC8D4"/>
<circle cx="265.5" cy="13.5" r="1.5" fill="#CAC8D4"/>
<circle cx="289.5" cy="13.5" r="1.5" fill="#CAC8D4"/>
<circle cx="313.5" cy="13.5" r="1.5" fill="#CAC8D4"/>
<circle cx="337.5" cy="13.5" r="1.5" fill="#CAC8D4"/>
<circle cx="361.5" cy="13.5" r="1.5" fill="#CAC8D4"/>
<circle cx="385.5" cy="13.5" r="1.5" fill="#CAC8D4"/>
<circle cx="409.5" cy="13.5" r="1.5" fill="#CAC8D4"/>
<circle cx="25.5" cy="37.5" r="1.5" fill="#CAC8D4"/>
<circle cx="49.5" cy="37.5" r="1.5" fill="#CAC8D4"/>
<circle cx="73.5" cy="37.5" r="1.5" fill="#CAC8D4"/>
<circle cx="97.5" cy="37.5" r="1.5" fill="#CAC8D4"/>
<circle cx="121.5" cy="37.5" r="1.5" fill="#CAC8D4"/>
<circle cx="145.5" cy="37.5" r="1.5" fill="#CAC8D4"/>
<circle cx="169.5" cy="37.5" r="1.5" fill="#CAC8D4"/>
<circle cx="193.5" cy="37.5" r="1.5" fill="#CAC8D4"/>
<circle cx="217.5" cy="37.5" r="1.5" fill="#CAC8D4"/>
<circle cx="241.5" cy="37.5" r="1.5" fill="#CAC8D4"/>
<circle cx="265.5" cy="37.5" r="1.5" fill="#CAC8D4"/>
<circle cx="289.5" cy="37.5" r="1.5" fill="#CAC8D4"/>
<circle cx="313.5" cy="37.5" r="1.5" fill="#CAC8D4"/>
<circle cx="337.5" cy="37.5" r="1.5" fill="#CAC8D4"/>
<circle cx="361.5" cy="37.5" r="1.5" fill="#CAC8D4"/>
<circle cx="385.5" cy="37.5" r="1.5" fill="#CAC8D4"/>
<circle cx="409.5" cy="37.5" r="1.5" fill="#CAC8D4"/>
<circle cx="25.5" cy="61.5" r="1.5" fill="#CAC8D4"/>
<circle cx="49.5" cy="61.5" r="1.5" fill="#CAC8D4"/>
<circle cx="73.5" cy="61.5" r="1.5" fill="#CAC8D4"/>
<circle cx="97.5" cy="61.5" r="1.5" fill="#CAC8D4"/>
<circle cx="121.5" cy="61.5" r="1.5" fill="#CAC8D4"/>
<circle cx="145.5" cy="61.5" r="1.5" fill="#CAC8D4"/>
<circle cx="169.5" cy="61.5" r="1.5" fill="#CAC8D4"/>
<circle cx="193.5" cy="61.5" r="1.5" fill="#CAC8D4"/>
<circle cx="217.5" cy="61.5" r="1.5" fill="#CAC8D4"/>
<circle cx="241.5" cy="61.5" r="1.5" fill="#CAC8D4"/>
<circle cx="265.5" cy="61.5" r="1.5" fill="#CAC8D4"/>
<circle cx="289.5" cy="61.5" r="1.5" fill="#CAC8D4"/>
<circle cx="313.5" cy="61.5" r="1.5" fill="#CAC8D4"/>
<circle cx="337.5" cy="61.5" r="1.5" fill="#CAC8D4"/>
<circle cx="361.5" cy="61.5" r="1.5" fill="#CAC8D4"/>
<circle cx="385.5" cy="61.5" r="1.5" fill="#CAC8D4"/>
<circle cx="409.5" cy="61.5" r="1.5" fill="#CAC8D4"/>
<circle cx="25.5" cy="85.5" r="1.5" fill="#CAC8D4"/>
<circle cx="49.5" cy="85.5" r="1.5" fill="#CAC8D4"/>
<circle cx="73.5" cy="85.5" r="1.5" fill="#CAC8D4"/>
<circle cx="97.5" cy="85.5" r="1.5" fill="#CAC8D4"/>
<circle cx="121.5" cy="85.5" r="1.5" fill="#CAC8D4"/>
<circle cx="145.5" cy="85.5" r="1.5" fill="#CAC8D4"/>
<circle cx="169.5" cy="85.5" r="1.5" fill="#CAC8D4"/>
<circle cx="193.5" cy="85.5" r="1.5" fill="#CAC8D4"/>
<circle cx="217.5" cy="85.5" r="1.5" fill="#CAC8D4"/>
<circle cx="241.5" cy="85.5" r="1.5" fill="#CAC8D4"/>
<circle cx="265.5" cy="85.5" r="1.5" fill="#CAC8D4"/>
<circle cx="289.5" cy="85.5" r="1.5" fill="#CAC8D4"/>
<circle cx="313.5" cy="85.5" r="1.5" fill="#CAC8D4"/>
<circle cx="337.5" cy="85.5" r="1.5" fill="#CAC8D4"/>
<circle cx="361.5" cy="85.5" r="1.5" fill="#CAC8D4"/>
<circle cx="385.5" cy="85.5" r="1.5" fill="#CAC8D4"/>
<circle cx="409.5" cy="85.5" r="1.5" fill="#CAC8D4"/>
<circle cx="25.5" cy="109.5" r="1.5" fill="#CAC8D4"/>
<circle cx="49.5" cy="109.5" r="1.5" fill="#CAC8D4"/>
<circle cx="73.5" cy="109.5" r="1.5" fill="#CAC8D4"/>
<circle cx="97.5" cy="109.5" r="1.5" fill="#CAC8D4"/>
<circle cx="121.5" cy="109.5" r="1.5" fill="#CAC8D4"/>
<circle cx="145.5" cy="109.5" r="1.5" fill="#CAC8D4"/>
<circle cx="169.5" cy="109.5" r="1.5" fill="#CAC8D4"/>
<circle cx="193.5" cy="109.5" r="1.5" fill="#CAC8D4"/>
<circle cx="217.5" cy="109.5" r="1.5" fill="#CAC8D4"/>
<circle cx="241.5" cy="109.5" r="1.5" fill="#CAC8D4"/>
<circle cx="265.5" cy="109.5" r="1.5" fill="#CAC8D4"/>
<circle cx="289.5" cy="109.5" r="1.5" fill="#CAC8D4"/>
<circle cx="313.5" cy="109.5" r="1.5" fill="#CAC8D4"/>
<circle cx="337.5" cy="109.5" r="1.5" fill="#CAC8D4"/>
<circle cx="361.5" cy="109.5" r="1.5" fill="#CAC8D4"/>
<circle cx="385.5" cy="109.5" r="1.5" fill="#CAC8D4"/>
<circle cx="409.5" cy="109.5" r="1.5" fill="#CAC8D4"/>
<circle cx="25.5" cy="133.5" r="1.5" fill="#CAC8D4"/>
<circle cx="49.5" cy="133.5" r="1.5" fill="#CAC8D4"/>
<circle cx="73.5" cy="133.5" r="1.5" fill="#CAC8D4"/>
<circle cx="97.5" cy="133.5" r="1.5" fill="#CAC8D4"/>
<circle cx="121.5" cy="133.5" r="1.5" fill="#CAC8D4"/>
<circle cx="145.5" cy="133.5" r="1.5" fill="#CAC8D4"/>
<circle cx="169.5" cy="133.5" r="1.5" fill="#CAC8D4"/>
<circle cx="193.5" cy="133.5" r="1.5" fill="#CAC8D4"/>
<circle cx="217.5" cy="133.5" r="1.5" fill="#CAC8D4"/>
<circle cx="241.5" cy="133.5" r="1.5" fill="#CAC8D4"/>
<circle cx="265.5" cy="133.5" r="1.5" fill="#CAC8D4"/>
<circle cx="289.5" cy="133.5" r="1.5" fill="#CAC8D4"/>
<circle cx="313.5" cy="133.5" r="1.5" fill="#CAC8D4"/>
<circle cx="337.5" cy="133.5" r="1.5" fill="#CAC8D4"/>
<circle cx="361.5" cy="133.5" r="1.5" fill="#CAC8D4"/>
<circle cx="385.5" cy="133.5" r="1.5" fill="#CAC8D4"/>
<circle cx="409.5" cy="133.5" r="1.5" fill="#CAC8D4"/>
<circle cx="25.5" cy="157.5" r="1.5" fill="#CAC8D4"/>
<circle cx="49.5" cy="157.5" r="1.5" fill="#CAC8D4"/>
<circle cx="73.5" cy="157.5" r="1.5" fill="#CAC8D4"/>
<circle cx="97.5" cy="157.5" r="1.5" fill="#CAC8D4"/>
<circle cx="121.5" cy="157.5" r="1.5" fill="#CAC8D4"/>
<circle cx="145.5" cy="157.5" r="1.5" fill="#CAC8D4"/>
<circle cx="169.5" cy="157.5" r="1.5" fill="#CAC8D4"/>
<circle cx="193.5" cy="157.5" r="1.5" fill="#CAC8D4"/>
<circle cx="217.5" cy="157.5" r="1.5" fill="#CAC8D4"/>
<circle cx="241.5" cy="157.5" r="1.5" fill="#CAC8D4"/>
<circle cx="265.5" cy="157.5" r="1.5" fill="#CAC8D4"/>
<circle cx="289.5" cy="157.5" r="1.5" fill="#CAC8D4"/>
<circle cx="313.5" cy="157.5" r="1.5" fill="#CAC8D4"/>
<circle cx="337.5" cy="157.5" r="1.5" fill="#CAC8D4"/>
<circle cx="361.5" cy="157.5" r="1.5" fill="#CAC8D4"/>
<circle cx="385.5" cy="157.5" r="1.5" fill="#CAC8D4"/>
<circle cx="409.5" cy="157.5" r="1.5" fill="#CAC8D4"/>
<circle cx="25.5" cy="181.5" r="1.5" fill="#CAC8D4"/>
<circle cx="49.5" cy="181.5" r="1.5" fill="#CAC8D4"/>
<circle cx="73.5" cy="181.5" r="1.5" fill="#CAC8D4"/>
<circle cx="97.5" cy="181.5" r="1.5" fill="#CAC8D4"/>
<circle cx="121.5" cy="181.5" r="1.5" fill="#CAC8D4"/>
<circle cx="145.5" cy="181.5" r="1.5" fill="#CAC8D4"/>
<circle cx="169.5" cy="181.5" r="1.5" fill="#CAC8D4"/>
<circle cx="193.5" cy="181.5" r="1.5" fill="#CAC8D4"/>
<circle cx="217.5" cy="181.5" r="1.5" fill="#CAC8D4"/>
<circle cx="241.5" cy="181.5" r="1.5" fill="#CAC8D4"/>
<circle cx="265.5" cy="181.5" r="1.5" fill="#CAC8D4"/>
<circle cx="289.5" cy="181.5" r="1.5" fill="#CAC8D4"/>
<circle cx="313.5" cy="181.5" r="1.5" fill="#CAC8D4"/>
<circle cx="337.5" cy="181.5" r="1.5" fill="#CAC8D4"/>
<circle cx="361.5" cy="181.5" r="1.5" fill="#CAC8D4"/>
<circle cx="385.5" cy="181.5" r="1.5" fill="#CAC8D4"/>
<circle cx="409.5" cy="181.5" r="1.5" fill="#CAC8D4"/>
<circle cx="25.5" cy="205.5" r="1.5" fill="#CAC8D4"/>
<circle cx="49.5" cy="205.5" r="1.5" fill="#CAC8D4"/>
<circle cx="73.5" cy="205.5" r="1.5" fill="#CAC8D4"/>
<circle cx="97.5" cy="205.5" r="1.5" fill="#CAC8D4"/>
<circle cx="121.5" cy="205.5" r="1.5" fill="#CAC8D4"/>
<circle cx="145.5" cy="205.5" r="1.5" fill="#CAC8D4"/>
<circle cx="169.5" cy="205.5" r="1.5" fill="#CAC8D4"/>
<circle cx="193.5" cy="205.5" r="1.5" fill="#CAC8D4"/>
<circle cx="217.5" cy="205.5" r="1.5" fill="#CAC8D4"/>
<circle cx="241.5" cy="205.5" r="1.5" fill="#CAC8D4"/>
<circle cx="265.5" cy="205.5" r="1.5" fill="#CAC8D4"/>
<circle cx="289.5" cy="205.5" r="1.5" fill="#CAC8D4"/>
<circle cx="313.5" cy="205.5" r="1.5" fill="#CAC8D4"/>
<circle cx="337.5" cy="205.5" r="1.5" fill="#CAC8D4"/>
<circle cx="361.5" cy="205.5" r="1.5" fill="#CAC8D4"/>
<circle cx="385.5" cy="205.5" r="1.5" fill="#CAC8D4"/>
<circle cx="409.5" cy="205.5" r="1.5" fill="#CAC8D4"/>
<circle cx="25.5" cy="229.5" r="1.5" fill="#CAC8D4"/>
<circle cx="49.5" cy="229.5" r="1.5" fill="#CAC8D4"/>
<circle cx="73.5" cy="229.5" r="1.5" fill="#CAC8D4"/>
<circle cx="97.5" cy="229.5" r="1.5" fill="#CAC8D4"/>
<circle cx="121.5" cy="229.5" r="1.5" fill="#CAC8D4"/>
<circle cx="145.5" cy="229.5" r="1.5" fill="#CAC8D4"/>
<circle cx="169.5" cy="229.5" r="1.5" fill="#CAC8D4"/>
<circle cx="193.5" cy="229.5" r="1.5" fill="#CAC8D4"/>
<circle cx="217.5" cy="229.5" r="1.5" fill="#CAC8D4"/>
<circle cx="241.5" cy="229.5" r="1.5" fill="#CAC8D4"/>
<circle cx="265.5" cy="229.5" r="1.5" fill="#CAC8D4"/>
<circle cx="289.5" cy="229.5" r="1.5" fill="#CAC8D4"/>
<circle cx="313.5" cy="229.5" r="1.5" fill="#CAC8D4"/>
<circle cx="337.5" cy="229.5" r="1.5" fill="#CAC8D4"/>
<circle cx="361.5" cy="229.5" r="1.5" fill="#CAC8D4"/>
<circle cx="385.5" cy="229.5" r="1.5" fill="#CAC8D4"/>
<circle cx="409.5" cy="229.5" r="1.5" fill="#CAC8D4"/>
<circle cx="25.5" cy="253.5" r="1.5" fill="#CAC8D4"/>
<circle cx="49.5" cy="253.5" r="1.5" fill="#CAC8D4"/>
<circle cx="73.5" cy="253.5" r="1.5" fill="#CAC8D4"/>
<circle cx="97.5" cy="253.5" r="1.5" fill="#CAC8D4"/>
<circle cx="121.5" cy="253.5" r="1.5" fill="#CAC8D4"/>
<circle cx="145.5" cy="253.5" r="1.5" fill="#CAC8D4"/>
<circle cx="169.5" cy="253.5" r="1.5" fill="#CAC8D4"/>
<circle cx="193.5" cy="253.5" r="1.5" fill="#CAC8D4"/>
<circle cx="217.5" cy="253.5" r="1.5" fill="#CAC8D4"/>
<circle cx="241.5" cy="253.5" r="1.5" fill="#CAC8D4"/>
<circle cx="265.5" cy="253.5" r="1.5" fill="#CAC8D4"/>
<circle cx="289.5" cy="253.5" r="1.5" fill="#CAC8D4"/>
<circle cx="313.5" cy="253.5" r="1.5" fill="#CAC8D4"/>
<circle cx="337.5" cy="253.5" r="1.5" fill="#CAC8D4"/>
<circle cx="361.5" cy="253.5" r="1.5" fill="#CAC8D4"/>
<circle cx="385.5" cy="253.5" r="1.5" fill="#CAC8D4"/>
<circle cx="409.5" cy="253.5" r="1.5" fill="#CAC8D4"/>
<circle cx="25.5" cy="277.5" r="1.5" fill="#CAC8D4"/>
<circle cx="49.5" cy="277.5" r="1.5" fill="#CAC8D4"/>
<circle cx="73.5" cy="277.5" r="1.5" fill="#CAC8D4"/>
<circle cx="97.5" cy="277.5" r="1.5" fill="#CAC8D4"/>
<circle cx="121.5" cy="277.5" r="1.5" fill="#CAC8D4"/>
<circle cx="145.5" cy="277.5" r="1.5" fill="#CAC8D4"/>
<circle cx="169.5" cy="277.5" r="1.5" fill="#CAC8D4"/>
<circle cx="193.5" cy="277.5" r="1.5" fill="#CAC8D4"/>
<circle cx="217.5" cy="277.5" r="1.5" fill="#CAC8D4"/>
<circle cx="241.5" cy="277.5" r="1.5" fill="#CAC8D4"/>
<circle cx="265.5" cy="277.5" r="1.5" fill="#CAC8D4"/>
<circle cx="289.5" cy="277.5" r="1.5" fill="#CAC8D4"/>
<circle cx="313.5" cy="277.5" r="1.5" fill="#CAC8D4"/>
<circle cx="337.5" cy="277.5" r="1.5" fill="#CAC8D4"/>
<circle cx="361.5" cy="277.5" r="1.5" fill="#CAC8D4"/>
<circle cx="385.5" cy="277.5" r="1.5" fill="#CAC8D4"/>
<circle cx="409.5" cy="277.5" r="1.5" fill="#CAC8D4"/>
<circle cx="25.5" cy="301.5" r="1.5" fill="#CAC8D4"/>
<circle cx="49.5" cy="301.5" r="1.5" fill="#CAC8D4"/>
<circle cx="73.5" cy="301.5" r="1.5" fill="#CAC8D4"/>
<circle cx="97.5" cy="301.5" r="1.5" fill="#CAC8D4"/>
<circle cx="121.5" cy="301.5" r="1.5" fill="#CAC8D4"/>
<circle cx="145.5" cy="301.5" r="1.5" fill="#CAC8D4"/>
<circle cx="169.5" cy="301.5" r="1.5" fill="#CAC8D4"/>
<circle cx="193.5" cy="301.5" r="1.5" fill="#CAC8D4"/>
<circle cx="217.5" cy="301.5" r="1.5" fill="#CAC8D4"/>
<circle cx="241.5" cy="301.5" r="1.5" fill="#CAC8D4"/>
<circle cx="265.5" cy="301.5" r="1.5" fill="#CAC8D4"/>
<circle cx="289.5" cy="301.5" r="1.5" fill="#CAC8D4"/>
<circle cx="313.5" cy="301.5" r="1.5" fill="#CAC8D4"/>
<circle cx="337.5" cy="301.5" r="1.5" fill="#CAC8D4"/>
<circle cx="361.5" cy="301.5" r="1.5" fill="#CAC8D4"/>
<circle cx="385.5" cy="301.5" r="1.5" fill="#CAC8D4"/>
<circle cx="409.5" cy="301.5" r="1.5" fill="#CAC8D4"/>
<circle cx="25.5" cy="325.5" r="1.5" fill="#CAC8D4"/>
<circle cx="49.5" cy="325.5" r="1.5" fill="#CAC8D4"/>
<circle cx="73.5" cy="325.5" r="1.5" fill="#CAC8D4"/>
<circle cx="97.5" cy="325.5" r="1.5" fill="#CAC8D4"/>
<circle cx="121.5" cy="325.5" r="1.5" fill="#CAC8D4"/>
<circle cx="145.5" cy="325.5" r="1.5" fill="#CAC8D4"/>
<circle cx="169.5" cy="325.5" r="1.5" fill="#CAC8D4"/>
<circle cx="193.5" cy="325.5" r="1.5" fill="#CAC8D4"/>
<circle cx="217.5" cy="325.5" r="1.5" fill="#CAC8D4"/>
<circle cx="241.5" cy="325.5" r="1.5" fill="#CAC8D4"/>
<circle cx="265.5" cy="325.5" r="1.5" fill="#CAC8D4"/>
<circle cx="289.5" cy="325.5" r="1.5" fill="#CAC8D4"/>
<circle cx="313.5" cy="325.5" r="1.5" fill="#CAC8D4"/>
<circle cx="337.5" cy="325.5" r="1.5" fill="#CAC8D4"/>
<circle cx="361.5" cy="325.5" r="1.5" fill="#CAC8D4"/>
<circle cx="385.5" cy="325.5" r="1.5" fill="#CAC8D4"/>
<circle cx="409.5" cy="325.5" r="1.5" fill="#CAC8D4"/>
<circle cx="25.5" cy="349.5" r="1.5" fill="#CAC8D4"/>
<circle cx="49.5" cy="349.5" r="1.5" fill="#CAC8D4"/>
<circle cx="73.5" cy="349.5" r="1.5" fill="#CAC8D4"/>
<circle cx="97.5" cy="349.5" r="1.5" fill="#CAC8D4"/>
<circle cx="121.5" cy="349.5" r="1.5" fill="#CAC8D4"/>
<circle cx="145.5" cy="349.5" r="1.5" fill="#CAC8D4"/>
<circle cx="169.5" cy="349.5" r="1.5" fill="#CAC8D4"/>
<circle cx="193.5" cy="349.5" r="1.5" fill="#CAC8D4"/>
<circle cx="217.5" cy="349.5" r="1.5" fill="#CAC8D4"/>
<circle cx="241.5" cy="349.5" r="1.5" fill="#CAC8D4"/>
<circle cx="265.5" cy="349.5" r="1.5" fill="#CAC8D4"/>
<circle cx="289.5" cy="349.5" r="1.5" fill="#CAC8D4"/>
<circle cx="313.5" cy="349.5" r="1.5" fill="#CAC8D4"/>
<circle cx="337.5" cy="349.5" r="1.5" fill="#CAC8D4"/>
<circle cx="361.5" cy="349.5" r="1.5" fill="#CAC8D4"/>
<circle cx="385.5" cy="349.5" r="1.5" fill="#CAC8D4"/>
<circle cx="409.5" cy="349.5" r="1.5" fill="#CAC8D4"/>
<circle cx="25.5" cy="373.5" r="1.5" fill="#CAC8D4"/>
<circle cx="49.5" cy="373.5" r="1.5" fill="#CAC8D4"/>
<circle cx="73.5" cy="373.5" r="1.5" fill="#CAC8D4"/>
<circle cx="97.5" cy="373.5" r="1.5" fill="#CAC8D4"/>
<circle cx="121.5" cy="373.5" r="1.5" fill="#CAC8D4"/>
<circle cx="145.5" cy="373.5" r="1.5" fill="#CAC8D4"/>
<circle cx="169.5" cy="373.5" r="1.5" fill="#CAC8D4"/>
<circle cx="193.5" cy="373.5" r="1.5" fill="#CAC8D4"/>
<circle cx="217.5" cy="373.5" r="1.5" fill="#CAC8D4"/>
<circle cx="241.5" cy="373.5" r="1.5" fill="#CAC8D4"/>
<circle cx="265.5" cy="373.5" r="1.5" fill="#CAC8D4"/>
<circle cx="289.5" cy="373.5" r="1.5" fill="#CAC8D4"/>
<circle cx="313.5" cy="373.5" r="1.5" fill="#CAC8D4"/>
<circle cx="337.5" cy="373.5" r="1.5" fill="#CAC8D4"/>
<circle cx="361.5" cy="373.5" r="1.5" fill="#CAC8D4"/>
<circle cx="385.5" cy="373.5" r="1.5" fill="#CAC8D4"/>
<circle cx="409.5" cy="373.5" r="1.5" fill="#CAC8D4"/>
<circle cx="25.5" cy="397.5" r="1.5" fill="#CAC8D4"/>
<circle cx="49.5" cy="397.5" r="1.5" fill="#CAC8D4"/>
<circle cx="73.5" cy="397.5" r="1.5" fill="#CAC8D4"/>
<circle cx="97.5" cy="397.5" r="1.5" fill="#CAC8D4"/>
<circle cx="121.5" cy="397.5" r="1.5" fill="#CAC8D4"/>
<circle cx="145.5" cy="397.5" r="1.5" fill="#CAC8D4"/>
<circle cx="169.5" cy="397.5" r="1.5" fill="#CAC8D4"/>
<circle cx="193.5" cy="397.5" r="1.5" fill="#CAC8D4"/>
<circle cx="217.5" cy="397.5" r="1.5" fill="#CAC8D4"/>
<circle cx="241.5" cy="397.5" r="1.5" fill="#CAC8D4"/>
<circle cx="265.5" cy="397.5" r="1.5" fill="#CAC8D4"/>
<circle cx="289.5" cy="397.5" r="1.5" fill="#CAC8D4"/>
<circle cx="313.5" cy="397.5" r="1.5" fill="#CAC8D4"/>
<circle cx="337.5" cy="397.5" r="1.5" fill="#CAC8D4"/>
<circle cx="361.5" cy="397.5" r="1.5" fill="#CAC8D4"/>
<circle cx="385.5" cy="397.5" r="1.5" fill="#CAC8D4"/>
<circle cx="409.5" cy="397.5" r="1.5" fill="#CAC8D4"/>
<circle cx="25.5" cy="421.5" r="1.5" fill="#CAC8D4"/>
<circle cx="49.5" cy="421.5" r="1.5" fill="#CAC8D4"/>
<circle cx="73.5" cy="421.5" r="1.5" fill="#CAC8D4"/>
<circle cx="97.5" cy="421.5" r="1.5" fill="#CAC8D4"/>
<circle cx="121.5" cy="421.5" r="1.5" fill="#CAC8D4"/>
<circle cx="145.5" cy="421.5" r="1.5" fill="#CAC8D4"/>
<circle cx="169.5" cy="421.5" r="1.5" fill="#CAC8D4"/>
<circle cx="193.5" cy="421.5" r="1.5" fill="#CAC8D4"/>
<circle cx="217.5" cy="421.5" r="1.5" fill="#CAC8D4"/>
<circle cx="241.5" cy="421.5" r="1.5" fill="#CAC8D4"/>
<circle cx="265.5" cy="421.5" r="1.5" fill="#CAC8D4"/>
<circle cx="289.5" cy="421.5" r="1.5" fill="#CAC8D4"/>
<circle cx="313.5" cy="421.5" r="1.5" fill="#CAC8D4"/>
<circle cx="337.5" cy="421.5" r="1.5" fill="#CAC8D4"/>
<circle cx="361.5" cy="421.5" r="1.5" fill="#CAC8D4"/>
<circle cx="385.5" cy="421.5" r="1.5" fill="#CAC8D4"/>
<circle cx="409.5" cy="421.5" r="1.5" fill="#CAC8D4"/>
<circle cx="25.5" cy="445.5" r="1.5" fill="#CAC8D4"/>
<circle cx="49.5" cy="445.5" r="1.5" fill="#CAC8D4"/>
<circle cx="73.5" cy="445.5" r="1.5" fill="#CAC8D4"/>
<circle cx="97.5" cy="445.5" r="1.5" fill="#CAC8D4"/>
<circle cx="121.5" cy="445.5" r="1.5" fill="#CAC8D4"/>
<circle cx="145.5" cy="445.5" r="1.5" fill="#CAC8D4"/>
<circle cx="169.5" cy="445.5" r="1.5" fill="#CAC8D4"/>
<circle cx="193.5" cy="445.5" r="1.5" fill="#CAC8D4"/>
<circle cx="217.5" cy="445.5" r="1.5" fill="#CAC8D4"/>
<circle cx="241.5" cy="445.5" r="1.5" fill="#CAC8D4"/>
<circle cx="265.5" cy="445.5" r="1.5" fill="#CAC8D4"/>
<circle cx="289.5" cy="445.5" r="1.5" fill="#CAC8D4"/>
<circle cx="313.5" cy="445.5" r="1.5" fill="#CAC8D4"/>
<circle cx="337.5" cy="445.5" r="1.5" fill="#CAC8D4"/>
<circle cx="361.5" cy="445.5" r="1.5" fill="#CAC8D4"/>
<circle cx="385.5" cy="445.5" r="1.5" fill="#CAC8D4"/>
<circle cx="409.5" cy="445.5" r="1.5" fill="#CAC8D4"/>
<circle cx="25.5" cy="469.5" r="1.5" fill="#CAC8D4"/>
<circle cx="49.5" cy="469.5" r="1.5" fill="#CAC8D4"/>
<circle cx="73.5" cy="469.5" r="1.5" fill="#CAC8D4"/>
<circle cx="97.5" cy="469.5" r="1.5" fill="#CAC8D4"/>
<circle cx="121.5" cy="469.5" r="1.5" fill="#CAC8D4"/>
<circle cx="145.5" cy="469.5" r="1.5" fill="#CAC8D4"/>
<circle cx="169.5" cy="469.5" r="1.5" fill="#CAC8D4"/>
<circle cx="193.5" cy="469.5" r="1.5" fill="#CAC8D4"/>
<circle cx="217.5" cy="469.5" r="1.5" fill="#CAC8D4"/>
<circle cx="241.5" cy="469.5" r="1.5" fill="#CAC8D4"/>
<circle cx="265.5" cy="469.5" r="1.5" fill="#CAC8D4"/>
<circle cx="289.5" cy="469.5" r="1.5" fill="#CAC8D4"/>
<circle cx="313.5" cy="469.5" r="1.5" fill="#CAC8D4"/>
<circle cx="337.5" cy="469.5" r="1.5" fill="#CAC8D4"/>
<circle cx="361.5" cy="469.5" r="1.5" fill="#CAC8D4"/>
<circle cx="385.5" cy="469.5" r="1.5" fill="#CAC8D4"/>
<circle cx="409.5" cy="469.5" r="1.5" fill="#CAC8D4"/>
<circle cx="25.5" cy="493.5" r="1.5" fill="#CAC8D4"/>
<circle cx="49.5" cy="493.5" r="1.5" fill="#CAC8D4"/>
<circle cx="73.5" cy="493.5" r="1.5" fill="#CAC8D4"/>
<circle cx="97.5" cy="493.5" r="1.5" fill="#CAC8D4"/>
<circle cx="121.5" cy="493.5" r="1.5" fill="#CAC8D4"/>
<circle cx="145.5" cy="493.5" r="1.5" fill="#CAC8D4"/>
<circle cx="169.5" cy="493.5" r="1.5" fill="#CAC8D4"/>
<circle cx="193.5" cy="493.5" r="1.5" fill="#CAC8D4"/>
<circle cx="217.5" cy="493.5" r="1.5" fill="#CAC8D4"/>
<circle cx="241.5" cy="493.5" r="1.5" fill="#CAC8D4"/>
<circle cx="265.5" cy="493.5" r="1.5" fill="#CAC8D4"/>
<circle cx="289.5" cy="493.5" r="1.5" fill="#CAC8D4"/>
<circle cx="313.5" cy="493.5" r="1.5" fill="#CAC8D4"/>
<circle cx="337.5" cy="493.5" r="1.5" fill="#CAC8D4"/>
<circle cx="361.5" cy="493.5" r="1.5" fill="#CAC8D4"/>
<circle cx="385.5" cy="493.5" r="1.5" fill="#CAC8D4"/>
<circle cx="409.5" cy="493.5" r="1.5" fill="#CAC8D4"/>
<circle cx="25.5" cy="517.5" r="1.5" fill="#CAC8D4"/>
<circle cx="49.5" cy="517.5" r="1.5" fill="#CAC8D4"/>
<circle cx="73.5" cy="517.5" r="1.5" fill="#CAC8D4"/>
<circle cx="97.5" cy="517.5" r="1.5" fill="#CAC8D4"/>
<circle cx="121.5" cy="517.5" r="1.5" fill="#CAC8D4"/>
<circle cx="145.5" cy="517.5" r="1.5" fill="#CAC8D4"/>
<circle cx="169.5" cy="517.5" r="1.5" fill="#CAC8D4"/>
<circle cx="193.5" cy="517.5" r="1.5" fill="#CAC8D4"/>
<circle cx="217.5" cy="517.5" r="1.5" fill="#CAC8D4"/>
<circle cx="241.5" cy="517.5" r="1.5" fill="#CAC8D4"/>
<circle cx="265.5" cy="517.5" r="1.5" fill="#CAC8D4"/>
<circle cx="289.5" cy="517.5" r="1.5" fill="#CAC8D4"/>
<circle cx="313.5" cy="517.5" r="1.5" fill="#CAC8D4"/>
<circle cx="337.5" cy="517.5" r="1.5" fill="#CAC8D4"/>
<circle cx="361.5" cy="517.5" r="1.5" fill="#CAC8D4"/>
<circle cx="385.5" cy="517.5" r="1.5" fill="#CAC8D4"/>
<circle cx="409.5" cy="517.5" r="1.5" fill="#CAC8D4"/>
<circle cx="25.5" cy="541.5" r="1.5" fill="#CAC8D4"/>
<circle cx="49.5" cy="541.5" r="1.5" fill="#CAC8D4"/>
<circle cx="73.5" cy="541.5" r="1.5" fill="#CAC8D4"/>
<circle cx="97.5" cy="541.5" r="1.5" fill="#CAC8D4"/>
<circle cx="121.5" cy="541.5" r="1.5" fill="#CAC8D4"/>
<circle cx="145.5" cy="541.5" r="1.5" fill="#CAC8D4"/>
<circle cx="169.5" cy="541.5" r="1.5" fill="#CAC8D4"/>
<circle cx="193.5" cy="541.5" r="1.5" fill="#CAC8D4"/>
<circle cx="217.5" cy="541.5" r="1.5" fill="#CAC8D4"/>
<circle cx="241.5" cy="541.5" r="1.5" fill="#CAC8D4"/>
<circle cx="265.5" cy="541.5" r="1.5" fill="#CAC8D4"/>
<circle cx="289.5" cy="541.5" r="1.5" fill="#CAC8D4"/>
<circle cx="313.5" cy="541.5" r="1.5" fill="#CAC8D4"/>
<circle cx="337.5" cy="541.5" r="1.5" fill="#CAC8D4"/>
<circle cx="361.5" cy="541.5" r="1.5" fill="#CAC8D4"/>
<circle cx="385.5" cy="541.5" r="1.5" fill="#CAC8D4"/>
<circle cx="409.5" cy="541.5" r="1.5" fill="#CAC8D4"/>
<circle cx="25.5" cy="565.5" r="1.5" fill="#CAC8D4"/>
<circle cx="49.5" cy="565.5" r="1.5" fill="#CAC8D4"/>
<circle cx="73.5" cy="565.5" r="1.5" fill="#CAC8D4"/>
<circle cx="97.5" cy="565.5" r="1.5" fill="#CAC8D4"/>
<circle cx="121.5" cy="565.5" r="1.5" fill="#CAC8D4"/>
<circle cx="145.5" cy="565.5" r="1.5" fill="#CAC8D4"/>
<circle cx="169.5" cy="565.5" r="1.5" fill="#CAC8D4"/>
<circle cx="193.5" cy="565.5" r="1.5" fill="#CAC8D4"/>
<circle cx="217.5" cy="565.5" r="1.5" fill="#CAC8D4"/>
<circle cx="241.5" cy="565.5" r="1.5" fill="#CAC8D4"/>
<circle cx="265.5" cy="565.5" r="1.5" fill="#CAC8D4"/>
<circle cx="289.5" cy="565.5" r="1.5" fill="#CAC8D4"/>
<circle cx="313.5" cy="565.5" r="1.5" fill="#CAC8D4"/>
<circle cx="337.5" cy="565.5" r="1.5" fill="#CAC8D4"/>
<circle cx="361.5" cy="565.5" r="1.5" fill="#CAC8D4"/>
<circle cx="385.5" cy="565.5" r="1.5" fill="#CAC8D4"/>
<circle cx="409.5" cy="565.5" r="1.5" fill="#CAC8D4"/>
<circle cx="25.5" cy="589.5" r="1.5" fill="#CAC8D4"/>
<circle cx="49.5" cy="589.5" r="1.5" fill="#CAC8D4"/>
<circle cx="73.5" cy="589.5" r="1.5" fill="#CAC8D4"/>
<circle cx="97.5" cy="589.5" r="1.5" fill="#CAC8D4"/>
<circle cx="121.5" cy="589.5" r="1.5" fill="#CAC8D4"/>
<circle cx="145.5" cy="589.5" r="1.5" fill="#CAC8D4"/>
<circle cx="169.5" cy="589.5" r="1.5" fill="#CAC8D4"/>
<circle cx="193.5" cy="589.5" r="1.5" fill="#CAC8D4"/>
<circle cx="217.5" cy="589.5" r="1.5" fill="#CAC8D4"/>
<circle cx="241.5" cy="589.5" r="1.5" fill="#CAC8D4"/>
<circle cx="265.5" cy="589.5" r="1.5" fill="#CAC8D4"/>
<circle cx="289.5" cy="589.5" r="1.5" fill="#CAC8D4"/>
<circle cx="313.5" cy="589.5" r="1.5" fill="#CAC8D4"/>
<circle cx="337.5" cy="589.5" r="1.5" fill="#CAC8D4"/>
<circle cx="361.5" cy="589.5" r="1.5" fill="#CAC8D4"/>
<circle cx="385.5" cy="589.5" r="1.5" fill="#CAC8D4"/>
<circle cx="409.5" cy="589.5" r="1.5" fill="#CAC8D4"/>
<circle cx="25.5" cy="613.5" r="1.5" fill="#CAC8D4"/>
<circle cx="49.5" cy="613.5" r="1.5" fill="#CAC8D4"/>
<circle cx="73.5" cy="613.5" r="1.5" fill="#CAC8D4"/>
<circle cx="97.5" cy="613.5" r="1.5" fill="#CAC8D4"/>
<circle cx="121.5" cy="613.5" r="1.5" fill="#CAC8D4"/>
<circle cx="145.5" cy="613.5" r="1.5" fill="#CAC8D4"/>
<circle cx="169.5" cy="613.5" r="1.5" fill="#CAC8D4"/>
<circle cx="193.5" cy="613.5" r="1.5" fill="#CAC8D4"/>
<circle cx="217.5" cy="613.5" r="1.5" fill="#CAC8D4"/>
<circle cx="241.5" cy="613.5" r="1.5" fill="#CAC8D4"/>
<circle cx="265.5" cy="613.5" r="1.5" fill="#CAC8D4"/>
<circle cx="289.5" cy="613.5" r="1.5" fill="#CAC8D4"/>
<circle cx="313.5" cy="613.5" r="1.5" fill="#CAC8D4"/>
<circle cx="337.5" cy="613.5" r="1.5" fill="#CAC8D4"/>
<circle cx="361.5" cy="613.5" r="1.5" fill="#CAC8D4"/>
<circle cx="385.5" cy="613.5" r="1.5" fill="#CAC8D4"/>
<circle cx="409.5" cy="613.5" r="1.5" fill="#CAC8D4"/>
<circle cx="25.5" cy="637.5" r="1.5" fill="#CAC8D4"/>
<circle cx="49.5" cy="637.5" r="1.5" fill="#CAC8D4"/>
<circle cx="73.5" cy="637.5" r="1.5" fill="#CAC8D4"/>
<circle cx="97.5" cy="637.5" r="1.5" fill="#CAC8D4"/>
<circle cx="121.5" cy="637.5" r="1.5" fill="#CAC8D4"/>
<circle cx="145.5" cy="637.5" r="1.5" fill="#CAC8D4"/>
<circle cx="169.5" cy="637.5" r="1.5" fill="#CAC8D4"/>
<circle cx="193.5" cy="637.5" r="1.5" fill="#CAC8D4"/>
<circle cx="217.5" cy="637.5" r="1.5" fill="#CAC8D4"/>
<circle cx="241.5" cy="637.5" r="1.5" fill="#CAC8D4"/>
<circle cx="265.5" cy="637.5" r="1.5" fill="#CAC8D4"/>
<circle cx="289.5" cy="637.5" r="1.5" fill="#CAC8D4"/>
<circle cx="313.5" cy="637.5" r="1.5" fill="#CAC8D4"/>
<circle cx="337.5" cy="637.5" r="1.5" fill="#CAC8D4"/>
<circle cx="361.5" cy="637.5" r="1.5" fill="#CAC8D4"/>
<circle cx="385.5" cy="637.5" r="1.5" fill="#CAC8D4"/>
<circle cx="409.5" cy="637.5" r="1.5" fill="#CAC8D4"/>
<circle cx="25.5" cy="661.5" r="1.5" fill="#CAC8D4"/>
<circle cx="49.5" cy="661.5" r="1.5" fill="#CAC8D4"/>
<circle cx="73.5" cy="661.5" r="1.5" fill="#CAC8D4"/>
<circle cx="97.5" cy="661.5" r="1.5" fill="#CAC8D4"/>
<circle cx="121.5" cy="661.5" r="1.5" fill="#CAC8D4"/>
<circle cx="145.5" cy="661.5" r="1.5" fill="#CAC8D4"/>
<circle cx="169.5" cy="661.5" r="1.5" fill="#CAC8D4"/>
<circle cx="193.5" cy="661.5" r="1.5" fill="#CAC8D4"/>
<circle cx="217.5" cy="661.5" r="1.5" fill="#CAC8D4"/>
<circle cx="241.5" cy="661.5" r="1.5" fill="#CAC8D4"/>
<circle cx="265.5" cy="661.5" r="1.5" fill="#CAC8D4"/>
<circle cx="289.5" cy="661.5" r="1.5" fill="#CAC8D4"/>
<circle cx="313.5" cy="661.5" r="1.5" fill="#CAC8D4"/>
<circle cx="337.5" cy="661.5" r="1.5" fill="#CAC8D4"/>
<circle cx="361.5" cy="661.5" r="1.5" fill="#CAC8D4"/>
<circle cx="385.5" cy="661.5" r="1.5" fill="#CAC8D4"/>
<circle cx="409.5" cy="661.5" r="1.5" fill="#CAC8D4"/>
<circle cx="25.5" cy="685.5" r="1.5" fill="#CAC8D4"/>
<circle cx="49.5" cy="685.5" r="1.5" fill="#CAC8D4"/>
<circle cx="73.5" cy="685.5" r="1.5" fill="#CAC8D4"/>
<circle cx="97.5" cy="685.5" r="1.5" fill="#CAC8D4"/>
<circle cx="121.5" cy="685.5" r="1.5" fill="#CAC8D4"/>
<circle cx="145.5" cy="685.5" r="1.5" fill="#CAC8D4"/>
<circle cx="169.5" cy="685.5" r="1.5" fill="#CAC8D4"/>
<circle cx="193.5" cy="685.5" r="1.5" fill="#CAC8D4"/>
<circle cx="217.5" cy="685.5" r="1.5" fill="#CAC8D4"/>
<circle cx="241.5" cy="685.5" r="1.5" fill="#CAC8D4"/>
<circle cx="265.5" cy="685.5" r="1.5" fill="#CAC8D4"/>
<circle cx="289.5" cy="685.5" r="1.5" fill="#CAC8D4"/>
<circle cx="313.5" cy="685.5" r="1.5" fill="#CAC8D4"/>
<circle cx="337.5" cy="685.5" r="1.5" fill="#CAC8D4"/>
<circle cx="361.5" cy="685.5" r="1.5" fill="#CAC8D4"/>
<circle cx="385.5" cy="685.5" r="1.5" fill="#CAC8D4"/>
<circle cx="409.5" cy="685.5" r="1.5" fill="#CAC8D4"/>
<circle cx="25.5" cy="709.5" r="1.5" fill="#CAC8D4"/>
<circle cx="49.5" cy="709.5" r="1.5" fill="#CAC8D4"/>
<circle cx="73.5" cy="709.5" r="1.5" fill="#CAC8D4"/>
<circle cx="97.5" cy="709.5" r="1.5" fill="#CAC8D4"/>
<circle cx="121.5" cy="709.5" r="1.5" fill="#CAC8D4"/>
<circle cx="145.5" cy="709.5" r="1.5" fill="#CAC8D4"/>
<circle cx="169.5" cy="709.5" r="1.5" fill="#CAC8D4"/>
<circle cx="193.5" cy="709.5" r="1.5" fill="#CAC8D4"/>
<circle cx="217.5" cy="709.5" r="1.5" fill="#CAC8D4"/>
<circle cx="241.5" cy="709.5" r="1.5" fill="#CAC8D4"/>
<circle cx="265.5" cy="709.5" r="1.5" fill="#CAC8D4"/>
<circle cx="289.5" cy="709.5" r="1.5" fill="#CAC8D4"/>
<circle cx="313.5" cy="709.5" r="1.5" fill="#CAC8D4"/>
<circle cx="337.5" cy="709.5" r="1.5" fill="#CAC8D4"/>
<circle cx="361.5" cy="709.5" r="1.5" fill="#CAC8D4"/>
<circle cx="385.5" cy="709.5" r="1.5" fill="#CAC8D4"/>
<circle cx="409.5" cy="709.5" r="1.5" fill="#CAC8D4"/>
<circle cx="25.5" cy="733.5" r="1.5" fill="#CAC8D4"/>
<circle cx="49.5" cy="733.5" r="1.5" fill="#CAC8D4"/>
<circle cx="73.5" cy="733.5" r="1.5" fill="#CAC8D4"/>
<circle cx="97.5" cy="733.5" r="1.5" fill="#CAC8D4"/>
<circle cx="121.5" cy="733.5" r="1.5" fill="#CAC8D4"/>
<circle cx="145.5" cy="733.5" r="1.5" fill="#CAC8D4"/>
<circle cx="169.5" cy="733.5" r="1.5" fill="#CAC8D4"/>
<circle cx="193.5" cy="733.5" r="1.5" fill="#CAC8D4"/>
<circle cx="217.5" cy="733.5" r="1.5" fill="#CAC8D4"/>
<circle cx="241.5" cy="733.5" r="1.5" fill="#CAC8D4"/>
<circle cx="265.5" cy="733.5" r="1.5" fill="#CAC8D4"/>
<circle cx="289.5" cy="733.5" r="1.5" fill="#CAC8D4"/>
<circle cx="313.5" cy="733.5" r="1.5" fill="#CAC8D4"/>
<circle cx="337.5" cy="733.5" r="1.5" fill="#CAC8D4"/>
<circle cx="361.5" cy="733.5" r="1.5" fill="#CAC8D4"/>
<circle cx="385.5" cy="733.5" r="1.5" fill="#CAC8D4"/>
<circle cx="409.5" cy="733.5" r="1.5" fill="#CAC8D4"/>
<circle cx="25.5" cy="757.5" r="1.5" fill="#CAC8D4"/>
<circle cx="49.5" cy="757.5" r="1.5" fill="#CAC8D4"/>
<circle cx="73.5" cy="757.5" r="1.5" fill="#CAC8D4"/>
<circle cx="97.5" cy="757.5" r="1.5" fill="#CAC8D4"/>
<circle cx="121.5" cy="757.5" r="1.5" fill="#CAC8D4"/>
<circle cx="145.5" cy="757.5" r="1.5" fill="#CAC8D4"/>
<circle cx="169.5" cy="757.5" r="1.5" fill="#CAC8D4"/>
<circle cx="193.5" cy="757.5" r="1.5" fill="#CAC8D4"/>
<circle cx="217.5" cy="757.5" r="1.5" fill="#CAC8D4"/>
<circle cx="241.5" cy="757.5" r="1.5" fill="#CAC8D4"/>
<circle cx="265.5" cy="757.5" r="1.5" fill="#CAC8D4"/>
<circle cx="289.5" cy="757.5" r="1.5" fill="#CAC8D4"/>
<circle cx="313.5" cy="757.5" r="1.5" fill="#CAC8D4"/>
<circle cx="337.5" cy="757.5" r="1.5" fill="#CAC8D4"/>
<circle cx="361.5" cy="757.5" r="1.5" fill="#CAC8D4"/>
<circle cx="385.5" cy="757.5" r="1.5" fill="#CAC8D4"/>
<circle cx="409.5" cy="757.5" r="1.5" fill="#CAC8D4"/>
<circle cx="25.5" cy="781.5" r="1.5" fill="#CAC8D4"/>
<circle cx="49.5" cy="781.5" r="1.5" fill="#CAC8D4"/>
<circle cx="73.5" cy="781.5" r="1.5" fill="#CAC8D4"/>
<circle cx="97.5" cy="781.5" r="1.5" fill="#CAC8D4"/>
<circle cx="121.5" cy="781.5" r="1.5" fill="#CAC8D4"/>
<circle cx="145.5" cy="781.5" r="1.5" fill="#CAC8D4"/>
<circle cx="169.5" cy="781.5" r="1.5" fill="#CAC8D4"/>
<circle cx="193.5" cy="781.5" r="1.5" fill="#CAC8D4"/>
<circle cx="217.5" cy="781.5" r="1.5" fill="#CAC8D4"/>
<circle cx="241.5" cy="781.5" r="1.5" fill="#CAC8D4"/>
<circle cx="265.5" cy="781.5" r="1.5" fill="#CAC8D4"/>
<circle cx="289.5" cy="781.5" r="1.5" fill="#CAC8D4"/>
<circle cx="313.5" cy="781.5" r="1.5" fill="#CAC8D4"/>
<circle cx="337.5" cy="781.5" r="1.5" fill="#CAC8D4"/>
<circle cx="361.5" cy="781.5" r="1.5" fill="#CAC8D4"/>
<circle cx="385.5" cy="781.5" r="1.5" fill="#CAC8D4"/>
<circle cx="409.5" cy="781.5" r="1.5" fill="#CAC8D4"/>
<circle cx="25.5" cy="805.5" r="1.5" fill="#CAC8D4"/>
<circle cx="49.5" cy="805.5" r="1.5" fill="#CAC8D4"/>
<circle cx="73.5" cy="805.5" r="1.5" fill="#CAC8D4"/>
<circle cx="97.5" cy="805.5" r="1.5" fill="#CAC8D4"/>
<circle cx="121.5" cy="805.5" r="1.5" fill="#CAC8D4"/>
<circle cx="145.5" cy="805.5" r="1.5" fill="#CAC8D4"/>
<circle cx="169.5" cy="805.5" r="1.5" fill="#CAC8D4"/>
<circle cx="193.5" cy="805.5" r="1.5" fill="#CAC8D4"/>
<circle cx="217.5" cy="805.5" r="1.5" fill="#CAC8D4"/>
<circle cx="241.5" cy="805.5" r="1.5" fill="#CAC8D4"/>
<circle cx="265.5" cy="805.5" r="1.5" fill="#CAC8D4"/>
<circle cx="289.5" cy="805.5" r="1.5" fill="#CAC8D4"/>
<circle cx="313.5" cy="805.5" r="1.5" fill="#CAC8D4"/>
<circle cx="337.5" cy="805.5" r="1.5" fill="#CAC8D4"/>
<circle cx="361.5" cy="805.5" r="1.5" fill="#CAC8D4"/>
<circle cx="385.5" cy="805.5" r="1.5" fill="#CAC8D4"/>
<circle cx="409.5" cy="805.5" r="1.5" fill="#CAC8D4"/>
</g>
</g>
</g>
</g>
<g opacity="0.1">
<ellipse cx="2.55666" cy="152.889" rx="2.55666" ry="152.889" transform="matrix(-0.877076 -0.480351 -0.480351 0.877076 397.234 519.845)" fill="url(#paint1_linear_269_120628)"/>
<g filter="url(#filter0_f_269_120628)">
<ellipse cx="7.15866" cy="178.455" rx="7.15866" ry="178.455" transform="matrix(-0.877076 -0.480351 -0.480351 0.877076 414 499.877)" fill="url(#paint2_linear_269_120628)"/>
</g>
</g>
<g opacity="0.1">
<ellipse cx="113.449" cy="652.712" rx="2.55666" ry="152.889" transform="rotate(-28.7083 113.449 652.712)" fill="url(#paint3_linear_269_120628)"/>
<g filter="url(#filter1_f_269_120628)">
<ellipse cx="113" cy="652.958" rx="7.15866" ry="178.455" transform="rotate(-28.7083 113 652.958)" fill="url(#paint4_linear_269_120628)"/>
</g>
</g>
<defs>
<filter id="filter0_f_269_120628" x="209.046" y="469.4" width="225.909" height="367.114" filterUnits="userSpaceOnUse" color-interpolation-filters="sRGB">
<feFlood flood-opacity="0" result="BackgroundImageFix"/>
<feBlend mode="normal" in="SourceGraphic" in2="BackgroundImageFix" result="shape"/>
<feGaussianBlur stdDeviation="13.5" result="effect1_foregroundBlur_269_120628"/>
</filter>
<filter id="filter1_f_269_120628" x="0.0452118" y="469.4" width="225.909" height="367.114" filterUnits="userSpaceOnUse" color-interpolation-filters="sRGB">
<feFlood flood-opacity="0" result="BackgroundImageFix"/>
<feBlend mode="normal" in="SourceGraphic" in2="BackgroundImageFix" result="shape"/>
<feGaussianBlur stdDeviation="13.5" result="effect1_foregroundBlur_269_120628"/>
</filter>
<radialGradient id="paint0_radial_269_120628" cx="0" cy="0" r="1" gradientUnits="userSpaceOnUse" gradientTransform="translate(218 -394) rotate(90) scale(984.358 574.573)">
<stop stop-color="white"/>
<stop offset="0.991144" stop-color="white" stop-opacity="0"/>
</radialGradient>
<linearGradient id="paint1_linear_269_120628" x1="2.55666" y1="0" x2="2.55666" y2="305.777" gradientUnits="userSpaceOnUse">
<stop stop-color="#EBFE64"/>
<stop offset="1" stop-color="#8CEA69"/>
</linearGradient>
<linearGradient id="paint2_linear_269_120628" x1="7.15866" y1="0" x2="7.15866" y2="356.91" gradientUnits="userSpaceOnUse">
<stop stop-color="#EBFE64"/>
<stop offset="1" stop-color="#8CEA69"/>
</linearGradient>
<linearGradient id="paint3_linear_269_120628" x1="113.449" y1="499.823" x2="113.449" y2="805.6" gradientUnits="userSpaceOnUse">
<stop stop-color="#EBFE64"/>
<stop offset="1" stop-color="#8CEA69"/>
</linearGradient>
<linearGradient id="paint4_linear_269_120628" x1="113" y1="474.502" x2="113" y2="831.413" gradientUnits="userSpaceOnUse">
<stop stop-color="#EBFE64"/>
<stop offset="1" stop-color="#8CEA69"/>
</linearGradient>
<clipPath id="clip0_269_120628">
<path d="M21 24C21 10.7452 31.7452 0 45 0H390C403.255 0 414 10.7452 414 24V824C414 837.255 403.255 848 390 848H45C31.7452 848 21 837.255 21 824V24Z" fill="white"/>
</clipPath>
</defs>
</svg>
